<svg width="211" height="210" viewBox="0 0 211 210" fill="none" xmlns="http://www.w3.org/2000/svg">
<path d="M144.822 127.063C144.235 127.063 143.648 126.913 143.125 126.608L113.578 109.997C113.48 109.941 113.446 109.817 113.501 109.718C113.557 109.62 113.686 109.585 113.78 109.641L143.326 126.253C144.252 126.788 145.4 126.784 146.322 126.248L168.321 113.464C168.419 113.408 168.544 113.438 168.599 113.537C168.655 113.635 168.625 113.76 168.527 113.815L146.528 126.6C146.005 126.908 145.413 127.063 144.822 127.063Z" fill="#DBDEE4"/>
<path d="M50.3144 200.294C49.8558 200.294 49.3972 200.174 48.9858 199.938L26.6182 186.922C26.5196 186.866 26.4896 186.738 26.5454 186.644C26.6011 186.545 26.7254 186.515 26.8239 186.571L49.1915 199.587C49.8815 199.99 50.7386 199.99 51.4286 199.591L73.9462 186.571C74.0405 186.515 74.1691 186.545 74.2248 186.644C74.2805 186.742 74.2462 186.866 74.1476 186.922L51.6301 199.942C51.2272 200.178 50.7729 200.294 50.3144 200.294Z" fill="#DBDEE4"/>
<path d="M30.3474 185.431C31.8302 186.288 31.8388 187.677 30.3645 188.534C28.8945 189.391 26.4987 189.391 25.0158 188.534C23.5329 187.677 23.5287 186.288 24.9987 185.431C26.4687 184.574 28.8645 184.578 30.3474 185.431Z" fill="white"/>
<path d="M27.6942 189.378C26.687 189.378 25.6799 189.155 24.9127 188.713C24.1284 188.259 23.6956 187.646 23.6956 186.982C23.6956 186.322 24.1198 185.709 24.8956 185.259C26.4213 184.372 28.9156 184.372 30.45 185.259C31.2343 185.713 31.6671 186.331 31.6671 186.995C31.6671 187.655 31.2428 188.268 30.4671 188.718C29.7042 189.155 28.7014 189.378 27.6942 189.378ZM27.6685 184.993C26.7385 184.993 25.8085 185.199 25.1013 185.611C24.4584 185.983 24.1027 186.472 24.1027 186.978C24.1027 187.488 24.4627 187.981 25.1142 188.358C26.537 189.181 28.8471 189.181 30.2571 188.358C30.9 187.985 31.2557 187.496 31.2514 186.991C31.2514 186.476 30.8914 185.988 30.2357 185.611C29.5328 185.199 28.6028 184.993 27.6685 184.993Z" fill="#DBDEE4"/>
<path d="M27.6905 187.964C27.112 187.964 26.5548 187.831 26.1562 187.604C25.8391 187.419 25.6548 187.192 25.6548 186.982C25.6548 186.772 25.8348 186.549 26.1476 186.369C26.5419 186.142 27.0991 186.009 27.6734 186.009C28.252 186.009 28.8091 186.142 29.2077 186.369C29.5249 186.554 29.7091 186.781 29.7091 186.991C29.7091 187.201 29.5291 187.424 29.2163 187.604C28.822 187.831 28.2691 187.964 27.6905 187.964Z" fill="#FF1091"/>
<path d="M40.5565 195.639C39.935 195.639 39.335 195.498 38.9107 195.249C38.5679 195.052 38.3707 194.808 38.3707 194.581C38.3707 194.358 38.5636 194.118 38.8979 193.921C39.3222 193.677 39.9179 193.535 40.5393 193.535C41.1608 193.535 41.7608 193.677 42.1851 193.921C42.5279 194.118 42.7251 194.362 42.7251 194.589C42.7251 194.812 42.5322 195.052 42.1979 195.249C41.7736 195.498 41.1779 195.639 40.5565 195.639Z" fill="#373B42"/>
<path d="M107.633 205.377C107.565 205.377 107.492 205.338 107.458 205.274C107.402 205.175 107.436 205.051 107.535 204.995L125.814 194.491C126.028 194.367 126.157 194.148 126.157 193.9C126.157 193.651 126.028 193.432 125.814 193.308L90.8074 172.955C90.7089 172.899 90.6789 172.771 90.7346 172.676C90.7903 172.578 90.9146 172.543 91.0131 172.603L126.019 192.957C126.362 193.154 126.564 193.51 126.564 193.904C126.564 194.298 126.358 194.654 126.015 194.851L107.736 205.355C107.702 205.368 107.668 205.377 107.633 205.377Z" fill="#DBDEE4"/>
<path d="M108.958 207.472C110.44 206.615 110.449 205.231 108.975 204.374C107.505 203.517 105.109 203.517 103.626 204.374C102.143 205.231 102.139 206.615 103.609 207.472C105.083 208.325 107.475 208.325 108.958 207.472Z" fill="white"/>
<path d="M106.279 208.312C105.272 208.312 104.269 208.089 103.506 207.648C102.73 207.198 102.306 206.585 102.306 205.925C102.306 205.261 102.739 204.648 103.523 204.194C105.062 203.307 107.552 203.307 109.078 204.194C109.853 204.644 110.278 205.257 110.278 205.912C110.278 206.577 109.845 207.189 109.061 207.644C108.289 208.089 107.286 208.312 106.279 208.312ZM106.305 203.932C105.375 203.932 104.44 204.138 103.729 204.549C103.078 204.927 102.718 205.415 102.718 205.925C102.718 206.431 103.073 206.919 103.716 207.292C105.126 208.115 107.436 208.111 108.855 207.292C109.506 206.915 109.866 206.427 109.866 205.912C109.866 205.407 109.515 204.922 108.872 204.545C108.165 204.138 107.235 203.932 106.305 203.932Z" fill="#DBDEE4"/>
<path d="M106.301 204.944C105.722 204.944 105.165 205.077 104.766 205.304C104.449 205.488 104.265 205.715 104.265 205.925C104.265 206.131 104.445 206.358 104.758 206.538C105.152 206.765 105.709 206.898 106.284 206.898C106.862 206.898 107.419 206.765 107.814 206.538C108.131 206.354 108.315 206.127 108.315 205.917C108.315 205.711 108.135 205.484 107.822 205.304C107.432 205.077 106.875 204.944 106.301 204.944Z" fill="#FF1091"/>
<path d="M117.688 198.279C117.067 198.279 116.467 198.421 116.042 198.665C115.699 198.862 115.502 199.106 115.502 199.329C115.502 199.552 115.695 199.792 116.029 199.989C116.454 200.234 117.049 200.375 117.671 200.375C118.292 200.375 118.888 200.234 119.317 199.989C119.66 199.792 119.857 199.548 119.857 199.321C119.857 199.098 119.664 198.858 119.33 198.661C118.905 198.421 118.31 198.279 117.688 198.279Z" fill="#373B42"/>
<path d="M151.104 190.582C151.07 190.582 151.035 190.574 151.001 190.557L106.866 164.876C106.768 164.821 106.738 164.692 106.793 164.598C106.849 164.499 106.973 164.465 107.072 164.525L151.207 190.205C151.305 190.261 151.335 190.39 151.28 190.484C151.245 190.548 151.177 190.582 151.104 190.582Z" fill="#DBDEE4"/>
<path d="M149.498 191.928C148.015 191.071 148.006 189.682 149.48 188.825C150.95 187.968 153.346 187.968 154.829 188.825C156.312 189.682 156.316 191.071 154.846 191.928C153.372 192.785 150.976 192.785 149.498 191.928Z" fill="white"/>
<path d="M152.171 192.772C151.164 192.772 150.161 192.549 149.394 192.108C148.61 191.654 148.177 191.041 148.173 190.377C148.173 189.717 148.597 189.104 149.373 188.654C150.898 187.766 153.393 187.766 154.927 188.654C155.711 189.108 156.144 189.721 156.144 190.385C156.144 191.045 155.72 191.658 154.944 192.108C154.181 192.549 153.179 192.772 152.171 192.772ZM152.146 188.388C151.216 188.388 150.286 188.594 149.578 189.005C148.936 189.378 148.58 189.867 148.58 190.372C148.58 190.887 148.94 191.375 149.596 191.752C151.018 192.575 153.324 192.575 154.739 191.752C155.381 191.379 155.737 190.891 155.737 190.385C155.737 189.875 155.377 189.382 154.721 189.005C154.014 188.594 153.08 188.388 152.146 188.388Z" fill="#DBDEE4"/>
<path d="M152.154 189.399C152.733 189.399 153.29 189.532 153.689 189.759C154.006 189.944 154.19 190.171 154.19 190.381C154.19 190.591 154.01 190.814 153.697 190.994C153.303 191.221 152.746 191.354 152.171 191.354C151.593 191.354 151.036 191.221 150.637 190.994C150.32 190.809 150.136 190.582 150.136 190.372C150.136 190.162 150.316 189.939 150.629 189.759C151.019 189.532 151.576 189.399 152.154 189.399Z" fill="#FF1091"/>
<path d="M140.608 183.232C141.23 183.232 141.83 183.373 142.254 183.618C142.597 183.815 142.794 184.059 142.794 184.286C142.794 184.509 142.601 184.749 142.267 184.946C141.843 185.191 141.247 185.332 140.625 185.332C140.004 185.332 139.404 185.191 138.98 184.946C138.637 184.749 138.44 184.505 138.44 184.278C138.44 184.055 138.633 183.815 138.967 183.618C139.391 183.373 139.991 183.232 140.608 183.232Z" fill="#373B42"/>
<path d="M105.285 165.48C105.25 165.48 105.216 165.472 105.182 165.454L60.2239 139.324C60.1254 139.268 60.0954 139.14 60.1511 139.045C60.2068 138.947 60.3311 138.913 60.4296 138.973L105.388 165.103C105.486 165.159 105.516 165.287 105.46 165.382C105.426 165.442 105.358 165.48 105.285 165.48Z" fill="#DBDEE4"/>
<path d="M79.7977 151.307C79.1762 151.307 78.5762 151.166 78.1519 150.921C77.8091 150.724 77.6119 150.48 77.6119 150.257C77.6119 150.034 77.8048 149.794 78.1391 149.597C78.5634 149.353 79.1591 149.211 79.7805 149.211C80.402 149.211 81.002 149.353 81.4263 149.597C81.7692 149.794 81.9663 150.039 81.9663 150.266C81.9663 150.489 81.7734 150.729 81.4391 150.926C81.0149 151.17 80.4191 151.307 79.7977 151.307Z" fill="#373B42"/>
<path d="M129.568 148.847C129.499 148.847 129.431 148.813 129.392 148.744C129.337 148.646 129.367 148.522 129.465 148.466L174.423 122.335C174.522 122.28 174.646 122.31 174.702 122.408C174.757 122.507 174.727 122.631 174.629 122.687L129.671 148.817C129.637 148.839 129.602 148.847 129.568 148.847Z" fill="#DBDEE4"/>
<path d="M155.056 134.674C155.677 134.674 156.277 134.532 156.702 134.288C157.045 134.091 157.242 133.847 157.242 133.624C157.242 133.401 157.049 133.161 156.715 132.964C156.29 132.72 155.695 132.578 155.073 132.578C154.452 132.578 153.852 132.72 153.427 132.964C153.084 133.161 152.887 133.405 152.887 133.632C152.887 133.855 153.08 134.095 153.414 134.292C153.839 134.532 154.434 134.674 155.056 134.674Z" fill="#373B42"/>
<g opacity="0.1">
<path d="M58.4669 180.296C56.7912 181.261 56.7826 182.834 58.4455 183.798L80.8859 196.835C82.5488 197.8 85.2617 197.8 86.9374 196.835L150.513 160.145C152.193 159.176 152.197 157.607 150.534 156.643L128.094 143.606C126.431 142.641 123.722 142.637 122.042 143.606L58.4669 180.296Z" fill="black"/>
</g>
<path d="M58.4541 172.183C56.7784 173.147 56.7698 174.72 58.4327 175.685L80.8731 188.722C82.536 189.686 85.2489 189.686 86.9246 188.722L150.5 152.031C152.18 151.063 152.184 149.494 150.521 148.53L128.081 135.492C126.418 134.528 123.71 134.524 122.03 135.492L58.4541 172.183Z" fill="white"/>
<path d="M83.8988 189.648C82.7673 189.648 81.6359 189.399 80.7744 188.898L58.334 175.86C57.4683 175.355 56.9883 174.673 56.9883 173.936C56.9883 173.195 57.4726 172.509 58.3512 172.003L121.927 135.312C123.654 134.314 126.461 134.314 128.184 135.312L150.624 148.35C151.494 148.856 151.97 149.537 151.97 150.274C151.97 151.016 151.486 151.701 150.603 152.207L87.0274 188.898C86.1617 189.399 85.0302 189.648 83.8988 189.648ZM58.5569 172.359C57.8112 172.792 57.3997 173.353 57.3997 173.94C57.3997 174.523 57.8026 175.08 58.5397 175.509L80.9801 188.546C82.5873 189.481 85.2059 189.481 86.826 188.546L150.401 151.856C151.147 151.423 151.563 150.861 151.563 150.274C151.563 149.691 151.16 149.134 150.423 148.706L127.982 135.668C126.375 134.734 123.757 134.734 122.137 135.668L58.5569 172.359Z" fill="#373B42"/>
<path d="M151.788 155.349C151.797 155.983 151.368 156.626 150.524 157.11L86.9444 193.801C86.5972 194.002 86.1986 194.169 85.7701 194.281C85.14 194.457 84.4543 194.529 83.7643 194.517C83.1814 194.508 82.6029 194.431 82.0671 194.281C81.6428 194.169 81.24 194.007 80.8928 193.801L58.4524 180.772C57.621 180.279 57.2096 179.653 57.2096 179.023L57.1838 173.949C57.1924 174.579 57.6038 175.205 58.4267 175.685L80.8585 188.722C81.2185 188.932 81.6257 189.091 82.0628 189.206C82.5986 189.356 83.1771 189.429 83.76 189.442C84.4457 189.455 85.1358 189.369 85.7658 189.185C86.1858 189.074 86.5715 188.915 86.9186 188.722L150.498 152.023C151.33 151.543 151.754 150.896 151.754 150.27L151.788 155.349Z" fill="#BEC4CD"/>
<path d="M85.7754 189.185V194.281C85.1454 194.457 84.4597 194.529 83.7697 194.517C83.1868 194.508 82.6082 194.431 82.0725 194.281V189.206C82.6082 189.356 83.1868 189.429 83.7697 189.442C84.4597 189.455 85.1454 189.369 85.7754 189.185Z" fill="#DBDEE4"/>
<path d="M83.9416 194.722C83.8816 194.722 83.8259 194.722 83.7659 194.722C82.6387 194.7 81.5844 194.439 80.8001 193.98L58.3597 180.947C57.494 180.437 57.0183 179.756 57.0183 179.023L56.9926 173.953C56.9926 173.837 57.1083 173.743 57.1983 173.747C57.3097 173.747 57.404 173.837 57.404 173.949C57.4083 174.527 57.8154 175.084 58.544 175.509L80.9801 188.542C81.713 188.97 82.7116 189.215 83.783 189.236C84.9059 189.253 86.0116 189.009 86.8302 188.542L150.41 151.847C151.143 151.423 151.563 150.848 151.563 150.27C151.563 150.158 151.653 150.064 151.769 150.064C151.88 150.064 151.974 150.154 151.974 150.27L152 155.344C152.009 156.09 151.524 156.78 150.637 157.286L87.0616 193.98C86.2216 194.46 85.1202 194.722 83.9416 194.722ZM57.404 175.076L57.4211 179.019C57.4211 179.602 57.824 180.159 58.5611 180.592L81.0015 193.625C81.7258 194.049 82.7116 194.293 83.7702 194.31C84.923 194.332 86.0459 194.083 86.8431 193.625L150.418 156.93C151.173 156.501 151.584 155.94 151.576 155.348L151.554 151.388C151.327 151.693 151.006 151.967 150.603 152.203L87.0188 188.898C86.1402 189.403 84.9702 189.673 83.7616 189.648C82.6216 189.626 81.5544 189.36 80.7615 188.898L58.3254 175.864C57.944 175.633 57.6311 175.367 57.404 175.076Z" fill="#373B42"/>
<g opacity="0.1">
<path d="M38.4223 143.49C37.4666 144.039 37.4623 144.934 38.4094 145.483L54.8197 155.032C55.7669 155.585 57.3055 155.585 58.2612 155.032L84.2802 140.01C85.236 139.457 85.2403 138.566 84.2931 138.017L67.8828 128.468C66.9357 127.915 65.3971 127.915 64.4413 128.468L38.4223 143.49Z" fill="black"/>
</g>
<path d="M82.8877 135.36C82.8877 135.968 82.6734 136.397 82.322 136.598L56.7315 151.47C57.0829 151.268 57.2887 150.84 57.2972 150.236C57.2972 149.01 56.4358 147.51 55.3686 146.901L41.2598 138.75C41.1184 138.664 40.9941 138.561 40.8955 138.45C40.6812 138.201 40.5698 137.922 40.5141 137.742C40.4369 137.502 40.3641 137.1 40.6041 136.894L66.2374 121.992C65.9502 122.194 66.0317 122.614 66.1088 122.875C66.1602 123.051 66.2631 123.329 66.486 123.574C66.5845 123.689 66.7045 123.792 66.8545 123.878L80.9548 132.021C82.0305 132.634 82.8963 134.142 82.8877 135.36Z" fill="#F0F2F5"/>
<path d="M56.7355 151.676C56.6669 151.676 56.5983 151.637 56.5598 151.573C56.5041 151.474 56.5383 151.35 56.6326 151.294L56.6412 151.29C56.9284 151.119 57.0912 150.746 57.0955 150.236C57.0955 149.074 56.2769 147.656 55.2698 147.081L41.1609 138.93C41.0024 138.836 40.8609 138.72 40.7452 138.591C40.5609 138.381 40.4195 138.116 40.3209 137.811C40.1709 137.348 40.2266 136.958 40.4709 136.744L66.1342 121.817C66.2285 121.761 66.3485 121.791 66.4085 121.881C66.4685 121.975 66.4428 122.095 66.3528 122.16C66.1814 122.28 66.2328 122.584 66.3014 122.815C66.3742 123.064 66.49 123.274 66.6357 123.437C66.7257 123.544 66.8285 123.63 66.9528 123.698L81.0574 131.845C82.1802 132.484 83.0931 134.061 83.0845 135.355C83.0845 136.024 82.8488 136.526 82.4159 136.774L56.8341 151.641C56.8298 151.641 56.8298 151.646 56.8255 151.646C56.8041 151.667 56.7698 151.676 56.7355 151.676ZM65.8385 122.464L40.7109 137.07C40.6081 137.164 40.6381 137.451 40.7109 137.678C40.7924 137.931 40.9081 138.146 41.0538 138.313C41.1395 138.411 41.2467 138.497 41.3667 138.57L55.4712 146.721C56.5898 147.364 57.5026 148.937 57.5026 150.231C57.4984 150.45 57.4727 150.647 57.4255 150.827L82.2188 136.418C82.5188 136.247 82.6817 135.87 82.6817 135.355C82.686 134.211 81.8545 132.767 80.8602 132.201L66.76 124.058C66.5928 123.964 66.4514 123.848 66.3357 123.707C66.1514 123.501 66.0099 123.24 65.9199 122.935C65.8642 122.751 65.8385 122.597 65.8385 122.464Z" fill="#373B42"/>
<path d="M80.9583 132.026C82.0297 132.634 82.8911 134.143 82.8869 135.36C82.8869 135.969 82.6726 136.397 82.3211 136.599L56.7307 151.471C57.0821 151.269 57.2878 150.84 57.2964 150.236C57.2964 149.01 56.435 147.51 55.3678 146.902" fill="#DBDEE4"/>
<path d="M56.7351 151.676C56.6665 151.676 56.598 151.637 56.5594 151.573C56.5037 151.475 56.538 151.35 56.6322 151.295L56.6408 151.29C56.928 151.119 57.0908 150.746 57.0951 150.236C57.0951 149.075 56.2765 147.656 55.2694 147.082C55.1708 147.026 55.1365 146.902 55.1922 146.803C55.2479 146.704 55.3722 146.67 55.4708 146.726C56.5894 147.369 57.5023 148.942 57.5023 150.24C57.498 150.459 57.4723 150.656 57.4251 150.836L82.2184 136.427C82.5184 136.256 82.6813 135.879 82.6813 135.364C82.6856 134.22 81.8541 132.776 80.8598 132.206C80.7612 132.15 80.7269 132.026 80.7827 131.927C80.8384 131.828 80.9627 131.794 81.0612 131.85C82.1884 132.493 83.097 134.07 83.0927 135.364C83.0927 136.029 82.857 136.534 82.4241 136.779L56.8422 151.646C56.838 151.646 56.838 151.65 56.8337 151.65C56.8037 151.667 56.7694 151.676 56.7351 151.676Z" fill="#373B42"/>
<path d="M42.4943 118.739C43.5657 119.357 44.4229 120.848 44.4186 122.074L44.3929 131.245C44.3886 133.483 43.6214 135.154 42.2371 135.938L40.6942 136.821C40.3557 137.014 40.4328 137.477 40.5185 137.743C40.5957 138.004 40.7971 138.48 41.2685 138.754L55.3731 146.897C56.4359 147.51 57.3017 149.01 57.2974 150.231C57.2931 151.461 56.4231 151.95 55.3602 151.337L41.2557 143.194C39.3571 142.097 37.6599 139.817 36.9399 137.378C36.2199 134.944 36.627 132.874 37.9685 132.102L39.5156 131.228C40.1671 130.855 40.5271 130.071 40.5271 129.017L40.5528 119.845C40.5571 118.619 41.4314 118.127 42.4943 118.739Z" fill="#373B42"/>
<path d="M56.2254 151.809C55.9254 151.809 55.5954 151.71 55.2568 151.517L41.1522 143.374C39.2065 142.251 37.4793 139.92 36.7422 137.438C35.9964 134.914 36.4336 132.75 37.865 131.927L39.4122 131.053C39.9951 130.718 40.3165 129.998 40.3208 129.017L40.3465 119.845C40.3465 119.181 40.5865 118.675 41.0151 118.427C41.448 118.178 42.0094 118.225 42.5923 118.564C43.7323 119.224 44.6237 120.767 44.6194 122.078L44.5937 131.25C44.5894 133.568 43.7837 135.3 42.3351 136.123L40.7922 137.005C40.5651 137.134 40.6594 137.524 40.7108 137.687C40.7794 137.923 40.9508 138.343 41.3665 138.583L55.4711 146.726C56.5939 147.373 57.5025 148.95 57.4982 150.24C57.4982 150.904 57.2582 151.41 56.8297 151.659C56.6497 151.757 56.4439 151.809 56.2254 151.809ZM41.628 118.679C41.478 118.679 41.3408 118.714 41.2251 118.782C40.9251 118.954 40.7622 119.331 40.7622 119.845L40.7365 129.017C40.7322 130.148 40.3379 130.997 39.6222 131.408L38.075 132.283C36.815 133.007 36.4507 134.987 37.1407 137.323C37.8479 139.71 39.5022 141.947 41.3622 143.023L55.4668 151.166C55.9211 151.427 56.3325 151.474 56.6325 151.303C56.9282 151.131 57.0954 150.754 57.0954 150.24C57.0997 149.1 56.2639 147.656 55.2739 147.081L41.1694 138.938C40.6337 138.63 40.4108 138.098 40.3294 137.807C40.1579 137.271 40.2565 136.847 40.5994 136.65L42.1423 135.767C43.458 135.021 44.1866 133.418 44.1909 131.25L44.2166 122.078C44.2209 120.921 43.4023 119.502 42.3951 118.919C42.1165 118.761 41.8594 118.679 41.628 118.679Z" fill="#373B42"/>
<path d="M67.8361 121.071C69.2161 120.283 69.9833 118.616 69.9919 116.374L70.0176 107.207C70.0176 105.977 69.1647 104.49 68.0933 103.872C67.5533 103.56 67.069 103.534 66.7175 103.74L41.1228 118.611C41.4742 118.406 41.9628 118.436 42.4985 118.744C43.57 119.361 44.4271 120.857 44.4228 122.078L44.3971 131.254C44.3928 133.341 43.7243 134.936 42.5157 135.767C42.5114 135.78 42.5028 135.784 42.4985 135.784L40.7028 136.826C40.6728 136.843 40.6428 136.86 40.6171 136.899L66.2504 121.997L67.8361 121.071Z" fill="white"/>
<path d="M40.6122 137.1C40.5565 137.1 40.505 137.079 40.4622 137.036C40.3979 136.967 40.3893 136.86 40.4408 136.783C40.4922 136.71 40.5479 136.671 40.5908 136.65L42.3694 135.617C42.3779 135.609 42.3865 135.6 42.3951 135.596C43.5437 134.803 44.1823 133.256 44.1865 131.25L44.2122 122.074C44.2165 120.917 43.4022 119.498 42.3908 118.92C41.9451 118.663 41.5208 118.611 41.2293 118.783L41.2251 118.787C41.1265 118.843 41.0022 118.813 40.9465 118.714C40.8908 118.615 40.9208 118.491 41.0193 118.435C41.0236 118.435 41.0236 118.431 41.0279 118.431L66.6141 103.564C67.0512 103.307 67.6127 103.358 68.1955 103.697C69.3313 104.352 70.2227 105.895 70.2227 107.207L70.197 116.378C70.1927 118.693 69.387 120.424 67.9384 121.251L40.715 137.079C40.6808 137.091 40.6465 137.1 40.6122 137.1ZM42.0179 118.32C42.2065 118.367 42.3994 118.448 42.5965 118.56C43.7194 119.207 44.628 120.784 44.6237 122.074L44.598 131.25C44.5937 132.728 44.2594 133.98 43.638 134.897L67.7284 120.891C69.0441 120.141 69.7727 118.534 69.7813 116.374L69.807 107.207C69.807 106.045 68.9884 104.627 67.9855 104.048C67.5312 103.782 67.1155 103.735 66.8198 103.915L42.0179 118.32Z" fill="#373B42"/>
<path d="M103.292 6.49453C103.283 3.60162 101.235 2.43589 98.719 3.88877L10.016 55.0997C7.50023 56.5526 5.46448 60.0755 5.47305 62.9684L5.64448 130.697L103.463 74.2229L103.292 6.49453Z" fill="#373B42"/>
<path d="M5.64439 130.902C5.6101 130.902 5.57582 130.894 5.54153 130.877C5.47724 130.842 5.43867 130.774 5.43867 130.701L5.26724 62.9727C5.25867 60.0198 7.34156 56.4068 9.91303 54.924L98.616 3.71307C99.906 2.96734 101.127 2.85591 102.058 3.39163C102.983 3.92307 103.493 5.0288 103.498 6.49883L103.669 74.2272C103.669 74.3 103.63 74.3686 103.566 74.4029L5.74296 130.872C5.71296 130.894 5.67867 130.902 5.64439 130.902ZM100.763 3.46449C100.172 3.46449 99.5117 3.66592 98.8217 4.0645L10.1188 55.2754C7.66299 56.694 5.6701 60.1441 5.67867 62.9684L5.84582 130.341L103.253 74.1029L103.082 6.49454C103.078 5.17881 102.64 4.20165 101.848 3.74307C101.526 3.55878 101.162 3.46449 100.763 3.46449Z" fill="#373B42"/>
<path d="M7.52161 62.9645C7.51733 60.8044 9.15879 57.9629 11.0402 56.8743L99.7432 5.66345C100.292 5.3463 100.639 5.31201 100.763 5.31201C101.205 5.31201 101.239 6.2206 101.239 6.49918L101.406 75.4061L7.68448 129.523L7.52161 62.9645Z" fill="white"/>
<path d="M7.68473 129.728C7.65045 129.728 7.61616 129.72 7.58188 129.703C7.51759 129.668 7.47902 129.6 7.47902 129.527L7.32044 62.9685C7.31616 60.7485 9.00476 57.817 10.9419 56.7027L99.6406 5.4875C100.211 5.15749 100.588 5.11035 100.764 5.11035C101.355 5.11035 101.445 5.98037 101.445 6.50323L101.612 75.4102C101.612 75.483 101.574 75.5516 101.509 75.5859L7.78759 129.698C7.75331 129.72 7.71902 129.728 7.68473 129.728ZM100.764 5.5175C100.678 5.5175 100.365 5.53893 99.8464 5.83894L11.1434 57.0541C9.31762 58.1084 7.72331 60.8685 7.72759 62.9642L7.88617 129.167L101.201 75.2902L101.034 6.49895C101.034 5.88608 100.896 5.5175 100.764 5.5175Z" fill="#373B42"/>
<path d="M5.64478 130.697L5.67049 139.551C5.67906 142.444 7.72767 143.61 10.2434 142.157L98.9421 90.9463C101.458 89.4934 103.494 85.9705 103.485 83.0776L103.459 74.2231L5.64478 130.697Z" fill="#DBDEE4"/>
<path d="M8.1945 142.993C7.72306 142.993 7.29019 142.881 6.90019 142.658C5.97446 142.127 5.46445 141.021 5.46016 139.551L5.43445 130.693C5.43445 130.62 5.47302 130.551 5.53731 130.517L103.356 74.043C103.42 74.0044 103.498 74.0087 103.562 74.043C103.626 74.0773 103.665 74.1458 103.665 74.2187L103.69 83.0731C103.699 86.026 101.616 89.639 99.0447 91.1218L10.3417 142.337C9.59166 142.774 8.85879 142.993 8.1945 142.993ZM5.84588 130.817L5.8716 139.556C5.87588 140.871 6.31303 141.848 7.10591 142.307C7.90306 142.766 8.98308 142.65 10.136 141.986L98.8389 90.7704C101.295 89.3518 103.288 85.9017 103.279 83.0774L103.253 74.5744L5.84588 130.817Z" fill="#373B42"/>
<path d="M101.963 3.56746C101.132 3.08317 99.9874 3.15603 98.7146 3.8889L10.0159 55.0998C9.28299 55.5241 8.5844 56.1369 7.97582 56.8484C7.54296 57.3413 7.16152 57.877 6.83152 58.4513C6.42008 59.1584 6.09008 59.8999 5.86293 60.6456C5.61435 61.4299 5.47292 62.2185 5.48149 62.9685L5.67435 139.56C5.68292 140.991 6.18865 142.007 7.00295 142.483L1.73571 139.418C0.921413 138.943 0.411404 137.927 0.407118 136.495L0.214258 59.9042C0.205686 59.1627 0.338545 58.3827 0.582835 57.6027C0.818554 56.8527 1.14856 56.1112 1.55142 55.4127C1.89 54.8384 2.27144 54.2898 2.7043 53.7969C3.31288 53.0769 4.01147 52.4683 4.75291 52.0397L93.4559 0.824556C94.7288 0.0916864 95.8731 0.0316851 96.7045 0.507408L101.963 3.56746Z" fill="#BEC4CD"/>
<path d="M7.97587 56.8484C7.54301 57.3412 7.16157 57.8769 6.83157 58.4512C6.42013 59.1584 6.09013 59.8998 5.86298 60.6456L0.582886 57.6027C0.818604 56.8526 1.14861 56.1112 1.55147 55.4126C1.89005 54.8383 2.27149 54.2897 2.70435 53.7969L7.97587 56.8484Z" fill="#F0F2F5"/>
<path d="M6.99452 142.689C6.96023 142.689 6.92595 142.68 6.89166 142.663L1.62443 139.599C0.707267 139.063 0.201544 137.961 0.192972 136.5L0.00011186 59.9086C-0.00845972 58.4728 0.475834 56.8399 1.36728 55.3185C2.24158 53.8099 3.40731 52.5884 4.64591 51.8727L93.3489 0.657527C94.6346 -0.0882007 95.8604 -0.199631 96.7989 0.340378L102.058 3.39186C102.062 3.39615 102.066 3.39615 102.07 3.40043C102.169 3.45615 102.199 3.58044 102.143 3.67901C102.088 3.77758 101.959 3.80758 101.865 3.75187C101.865 3.75187 101.865 3.75187 101.86 3.75187L101.856 3.74758C101.063 3.289 99.9833 3.40472 98.8218 4.07759L10.1189 55.2799C8.94027 55.9614 7.83882 57.1271 7.00738 58.5543C6.14593 60.0329 5.67878 61.6015 5.68307 62.9686L5.87593 139.56C5.88021 140.871 6.31737 141.844 7.10166 142.307C7.20024 142.363 7.23024 142.491 7.17452 142.586C7.13595 142.65 7.06738 142.689 6.99452 142.689ZM95.4918 0.408951C94.9003 0.408951 94.2403 0.610383 93.5546 1.00468L4.84734 52.2199C3.66875 52.897 2.55873 54.0713 1.71871 55.5156C0.870127 56.9771 0.402976 58.5328 0.411548 59.9L0.604408 136.491C0.608694 137.803 1.04584 138.78 1.83014 139.239L5.9145 141.613C5.61878 141.06 5.46449 140.361 5.46021 139.556L5.26735 62.9643C5.25877 61.5243 5.75164 59.8829 6.64737 58.3443C7.5131 56.8528 8.67026 55.6399 9.90886 54.9199L98.6161 3.71758C99.3361 3.30186 100.035 3.079 100.673 3.05757L96.5932 0.691813C96.2675 0.503238 95.8946 0.408951 95.4918 0.408951Z" fill="#373B42"/>
<path d="M49.5006 112.482C49.5006 113.331 48.9092 114.36 48.1678 114.788C47.4306 115.212 46.8306 114.874 46.8306 114.025C46.8263 113.177 47.422 112.148 48.1592 111.719C48.8963 111.295 49.4964 111.634 49.5006 112.482Z" fill="#373B42"/>
<path d="M55.8134 108.839C55.8134 109.688 55.2219 110.716 54.4805 111.145C53.7433 111.569 53.1433 111.231 53.1433 110.382C53.1433 109.533 53.7348 108.505 54.4719 108.076C55.2091 107.648 55.8134 107.991 55.8134 108.839Z" fill="#373B42"/>
<path d="M62.1269 105.192C62.1269 106.041 61.5354 107.069 60.794 107.498C60.0568 107.922 59.4568 107.584 59.4568 106.735C59.4525 105.887 60.0482 104.858 60.7854 104.429C61.5226 104.005 62.1269 104.344 62.1269 105.192Z" fill="#373B42"/>
<path d="M104.406 150.553C104.012 150.78 104.012 151.148 104.402 151.376L108.207 153.587C108.602 153.814 109.236 153.814 109.63 153.587L114.096 151.011C114.49 150.784 114.495 150.416 114.1 150.188L110.295 147.977C109.905 147.75 109.266 147.75 108.872 147.977L104.406 150.553Z" fill="#DBDEE4"/>
<path d="M112.524 145.869C112.129 146.096 112.129 146.464 112.519 146.692L116.325 148.903C116.719 149.13 117.354 149.13 117.748 148.903L122.214 146.327C122.608 146.1 122.612 145.732 122.218 145.504L118.412 143.293C118.022 143.066 117.384 143.066 116.989 143.293L112.524 145.869Z" fill="#DBDEE4"/>
<path d="M128.038 145.483C127.644 145.71 127.644 146.079 128.034 146.306L131.839 148.517C132.234 148.744 132.868 148.744 133.262 148.517L137.728 145.942C138.122 145.714 138.127 145.346 137.732 145.119L133.927 142.907C133.537 142.68 132.898 142.68 132.504 142.907L128.038 145.483Z" fill="#DBDEE4"/>
<path d="M120.636 141.184C120.242 141.411 120.242 141.78 120.632 142.007L124.438 144.218C124.832 144.446 125.466 144.446 125.861 144.218L130.326 141.643C130.721 141.416 130.725 141.047 130.331 140.82L126.525 138.608C126.135 138.381 125.496 138.381 125.102 138.608L120.636 141.184Z" fill="#DBDEE4"/>
<path d="M119.922 150.167C119.528 150.394 119.528 150.763 119.918 150.99L123.723 153.201C124.118 153.429 124.752 153.429 125.146 153.201L129.612 150.626C130.006 150.398 130.011 150.03 129.616 149.803L125.811 147.591C125.421 147.364 124.782 147.364 124.388 147.591L119.922 150.167Z" fill="#DBDEE4"/>
<path d="M119.209 159.15C118.815 159.378 118.815 159.746 119.205 159.973L123.011 162.185C123.401 162.412 124.039 162.412 124.433 162.185L128.899 159.609C129.294 159.382 129.294 159.013 128.904 158.786L125.098 156.575C124.708 156.348 124.069 156.348 123.675 156.575L119.209 159.15Z" fill="#DBDEE4"/>
<path d="M111.808 154.852C111.413 155.079 111.413 155.447 111.803 155.674L115.609 157.886C116.004 158.113 116.638 158.113 117.032 157.886L121.498 155.31C121.892 155.083 121.896 154.714 121.502 154.487L117.696 152.276C117.306 152.049 116.668 152.049 116.274 152.276L111.808 154.852Z" fill="#DBDEE4"/>
<path d="M71.9452 169.286C71.5552 169.513 71.5509 169.882 71.9409 170.109L75.7467 172.32C76.141 172.548 76.7753 172.548 77.1695 172.32L81.6396 169.74C82.0339 169.513 82.0382 169.145 81.6439 168.917L77.8381 166.706C77.4481 166.479 76.8095 166.479 76.4152 166.706L71.9452 169.286Z" fill="#DBDEE4"/>
<path d="M63.8278 173.971C63.4335 174.198 63.4335 174.566 63.8235 174.793L67.6292 177.005C68.0235 177.232 68.6578 177.232 69.0521 177.005L73.5222 174.425C73.9165 174.198 73.9208 173.829 73.5265 173.602L69.7207 171.391C69.3307 171.163 68.6921 171.163 68.2978 171.391L63.8278 173.971Z" fill="#DBDEE4"/>
<path d="M79.3426 173.585C78.9526 173.812 78.9483 174.181 79.3383 174.408L83.1441 176.619C83.5384 176.846 84.1727 176.846 84.567 176.619L89.0371 174.039C89.4314 173.812 89.4357 173.443 89.0414 173.216L85.2356 171.005C84.8456 170.778 84.207 170.778 83.8127 171.005L79.3426 173.585Z" fill="#DBDEE4"/>
<path d="M71.2295 178.269C70.8352 178.496 70.8352 178.865 71.2252 179.092L75.031 181.303C75.4253 181.53 76.0596 181.53 76.4539 181.303L80.9239 178.723C81.3182 178.496 81.3225 178.128 80.9282 177.9L77.1224 175.689C76.7324 175.462 76.0939 175.462 75.6996 175.689L71.2295 178.269Z" fill="#DBDEE4"/>
<path d="M80.0587 164.606C79.6644 164.833 79.6644 165.202 80.0544 165.429L83.8602 167.64C84.2545 167.867 84.8888 167.867 85.2831 167.64L89.7532 165.06C90.1475 164.833 90.1517 164.464 89.7575 164.237L85.9517 162.026C85.5617 161.799 84.9231 161.799 84.5288 162.026L80.0587 164.606Z" fill="#DBDEE4"/>
<path d="M78.6272 182.568C78.2329 182.795 78.2329 183.164 78.6229 183.391L82.4287 185.602C82.8187 185.829 83.4573 185.829 83.8516 185.602L88.3216 183.022C88.7159 182.795 88.7159 182.426 88.3259 182.199L84.5201 179.988C84.1301 179.761 83.4916 179.761 83.0973 179.988L78.6272 182.568Z" fill="#DBDEE4"/>
<path d="M86.7446 177.888C86.3546 178.115 86.3503 178.483 86.7403 178.71L90.5461 180.922C90.9361 181.149 91.5747 181.149 91.969 180.922L96.4391 178.342C96.8334 178.115 96.8334 177.746 96.4433 177.519L92.6376 175.308C92.2476 175.08 91.609 175.08 91.2147 175.308L86.7446 177.888Z" fill="#DBDEE4"/>
<path d="M94.8574 173.203C94.4631 173.43 94.4631 173.799 94.8531 174.026L98.6589 176.237C99.0489 176.465 99.6875 176.465 100.082 176.237L120.782 164.289C121.176 164.062 121.176 163.693 120.786 163.466L116.981 161.254C116.591 161.027 115.952 161.027 115.558 161.254L94.8574 173.203Z" fill="#DBDEE4"/>
<path d="M95.5732 164.22C95.1789 164.447 95.1789 164.816 95.569 165.043L99.3747 167.254C99.769 167.482 100.403 167.482 100.798 167.254L105.268 164.674C105.662 164.447 105.666 164.079 105.272 163.852L101.466 161.64C101.076 161.413 100.438 161.413 100.043 161.64L95.5732 164.22Z" fill="#DBDEE4"/>
<path d="M87.4598 168.905C87.0655 169.132 87.0655 169.5 87.4555 169.728L91.2613 171.939C91.6556 172.166 92.2899 172.166 92.6842 171.939L97.1543 169.359C97.5486 169.132 97.5529 168.763 97.1586 168.536L93.3528 166.325C92.9628 166.098 92.3242 166.098 91.9299 166.325L87.4598 168.905Z" fill="#DBDEE4"/>
<path d="M103.69 159.532C103.296 159.759 103.296 160.127 103.686 160.355L107.492 162.566C107.886 162.793 108.52 162.793 108.915 162.566L113.38 159.99C113.775 159.763 113.779 159.395 113.385 159.167L109.579 156.956C109.189 156.729 108.55 156.729 108.156 156.956L103.69 159.532Z" fill="#DBDEE4"/>
<path d="M96.2931 155.233C95.8988 155.46 95.8988 155.829 96.2888 156.056L100.095 158.267C100.489 158.494 101.123 158.494 101.517 158.267L105.983 155.692C106.378 155.464 106.382 155.096 105.988 154.869L102.182 152.657C101.792 152.43 101.153 152.43 100.759 152.657L96.2931 155.233Z" fill="#DBDEE4"/>
<path d="M88.1759 159.922C87.7816 160.149 87.7816 160.518 88.1716 160.745L91.9774 162.956C92.3717 163.183 93.006 163.183 93.4003 162.956L97.8703 160.376C98.2646 160.149 98.2689 159.78 97.8746 159.553L94.0689 157.342C93.6788 157.115 93.0403 157.115 92.646 157.342L88.1759 159.922Z" fill="#DBDEE4"/>
<path d="M135.439 149.781C135.045 150.008 135.045 150.377 135.435 150.604L139.241 152.816C139.631 153.043 140.269 153.043 140.664 152.816L145.129 150.24C145.524 150.013 145.524 149.644 145.134 149.417L141.328 147.206C140.938 146.978 140.299 146.978 139.905 147.206L135.439 149.781Z" fill="#DBDEE4"/>
<path d="M127.322 154.466C126.928 154.693 126.928 155.062 127.318 155.289L131.124 157.5C131.514 157.727 132.152 157.727 132.546 157.5L137.012 154.924C137.406 154.697 137.406 154.329 137.016 154.102L133.211 151.89C132.821 151.663 132.182 151.663 131.788 151.89L127.322 154.466Z" fill="#DBDEE4"/>
<g opacity="0.1">
<path d="M149.69 117.818L197.288 145.29C198.265 145.852 199.465 145.852 200.442 145.286L208.324 140.704C209.584 139.971 209.584 138.146 208.319 137.417L160.109 109.577C159.517 109.238 158.793 109.238 158.206 109.581L149.686 114.531C148.426 115.264 148.426 117.085 149.69 117.818Z" fill="black"/>
</g>
<path d="M157.893 0.490381C158.673 0.0403734 159.766 0.10466 160.962 0.798958L205.697 26.6337C206.417 27.0494 207.094 27.6409 207.69 28.3437C208.08 28.7937 208.435 29.2995 208.74 29.8266C209.044 30.3538 209.301 30.9023 209.507 31.4638C209.828 32.3467 210.013 33.2467 210.004 34.0867L209.721 132.887C209.721 134.254 209.241 135.214 208.47 135.66L199.457 140.893C200.237 140.443 200.721 139.483 200.717 138.12L201.004 39.3153C201.012 38.4582 200.824 37.5539 200.49 36.6624C200.284 36.0967 200.022 35.5567 199.718 35.0296C199.414 34.5024 199.062 34.0053 198.668 33.5467C198.077 32.8481 197.404 32.2609 196.692 31.8495L151.962 6.03191C150.753 5.33761 149.673 5.27332 148.876 5.7319L157.893 0.490381Z" fill="#BEC4CD"/>
<path d="M198.668 33.5554L207.69 28.3481C208.08 28.7982 208.435 29.3039 208.74 29.831C209.044 30.3582 209.301 30.9068 209.507 31.4682L200.489 36.6711C200.284 36.1054 200.022 35.5654 199.718 35.0383C199.409 34.5068 199.058 34.0097 198.668 33.5554Z" fill="#F0F2F5"/>
<path d="M199.452 141.103C199.384 141.103 199.315 141.068 199.277 141C199.221 140.901 199.255 140.777 199.349 140.721L199.362 140.717C200.108 140.28 200.515 139.363 200.511 138.124L200.794 39.3238C200.798 38.0252 200.352 36.538 199.542 35.1409C198.754 33.7823 197.704 32.6808 196.589 32.038L151.854 6.20751C150.753 5.5775 149.733 5.47036 148.979 5.90751C148.884 5.96322 148.756 5.93322 148.7 5.83465C148.644 5.73608 148.679 5.61179 148.773 5.55607L157.786 0.318839C158.677 -0.195456 159.839 -0.0840254 161.064 0.627416L205.799 26.4579C206.978 27.1393 208.084 28.3008 208.915 29.7279C209.755 31.1765 210.218 32.728 210.21 34.0951L209.927 132.895C209.927 134.293 209.442 135.338 208.568 135.844L199.572 141.073C199.568 141.077 199.564 141.077 199.559 141.081C199.525 141.094 199.491 141.103 199.452 141.103ZM150.131 5.23892C150.731 5.26464 151.383 5.47036 152.056 5.85608L196.791 31.6865C197.965 32.3637 199.067 33.5208 199.894 34.9352C200.742 36.3966 201.209 37.9566 201.201 39.3281L200.918 138.128C200.922 138.878 200.781 139.53 200.515 140.048L208.362 135.493C209.108 135.064 209.515 134.143 209.515 132.895L209.798 34.0951C209.802 32.7966 209.365 31.3222 208.56 29.9336C207.767 28.5708 206.712 27.4607 205.594 26.8136L160.859 0.97885C159.766 0.344553 158.75 0.237409 157.992 0.670273L150.131 5.23892Z" fill="#373B42"/>
<path d="M154.765 7.85744C154.696 7.85744 154.627 7.81887 154.589 7.75458C154.533 7.65601 154.567 7.53172 154.666 7.47601L163.7 2.2602C163.795 2.20449 163.923 2.23449 163.979 2.33306C164.035 2.43163 164 2.55592 163.902 2.61164L154.867 7.82744C154.833 7.84887 154.799 7.85744 154.765 7.85744Z" fill="#373B42"/>
<path d="M205.298 51.1739C205.679 50.9639 206.022 50.9339 206.271 51.0796L207.188 51.6067C206.935 51.4696 206.597 51.491 206.215 51.701C205.457 52.1382 204.844 53.2053 204.839 54.0839V61.7598C204.844 62.2055 204.998 62.5141 205.247 62.6641L204.329 62.1369C204.081 61.9912 203.922 61.6826 203.922 61.2326V53.5568C203.927 52.6782 204.539 51.611 205.298 51.1739Z" fill="#373B42"/>
<path d="M205.251 62.8654C205.217 62.8654 205.182 62.8569 205.148 62.8397L204.231 62.3126C203.905 62.1197 203.725 61.7383 203.717 61.2326V53.5567C203.721 52.5967 204.368 51.4738 205.195 50.9981C205.195 50.9981 205.195 50.9981 205.2 50.9981C205.637 50.7538 206.057 50.7195 206.374 50.9038L207.291 51.431C207.39 51.4867 207.424 51.611 207.368 51.7095C207.312 51.8081 207.188 51.8424 207.09 51.7867C206.897 51.6795 206.622 51.7138 206.318 51.881C205.62 52.2838 205.05 53.2738 205.045 54.0839V61.7597C205.05 62.1111 205.157 62.3726 205.354 62.4883C205.452 62.544 205.482 62.6683 205.427 62.7669C205.388 62.8269 205.32 62.8654 205.251 62.8654ZM205.401 51.3495C204.702 51.7524 204.132 52.7424 204.128 53.5567V61.2326C204.132 61.584 204.24 61.8454 204.437 61.9611L204.668 62.094C204.651 61.9911 204.638 61.8797 204.638 61.764V54.0839C204.642 53.1238 205.29 52.001 206.117 51.5252C206.215 51.4695 206.31 51.4267 206.404 51.3924L206.168 51.2595C205.98 51.1481 205.701 51.1824 205.401 51.3495Z" fill="#373B42"/>
<path d="M204.839 54.0795C204.839 53.2009 205.457 52.1338 206.215 51.6966C206.974 51.2595 207.591 51.6195 207.591 52.5024V60.1825C207.591 61.0611 206.974 62.1282 206.215 62.5654C205.457 63.0025 204.839 62.6425 204.839 61.7597V54.0795Z" fill="white"/>
<path d="M205.607 62.9553C205.44 62.9553 205.285 62.9167 205.144 62.8352C204.818 62.6467 204.638 62.2652 204.638 61.7595V54.0794C204.638 53.1194 205.29 51.9965 206.117 51.5208C206.55 51.2722 206.965 51.2379 207.291 51.4265C207.617 51.6151 207.797 51.9965 207.797 52.5022V60.1823C207.797 61.1424 207.145 62.2652 206.318 62.741C206.07 62.8824 205.83 62.9553 205.607 62.9553ZM206.828 51.7179C206.678 51.7179 206.503 51.7693 206.323 51.8765C205.62 52.2794 205.05 53.2694 205.05 54.0794V61.7595C205.05 62.111 205.157 62.3681 205.354 62.4795C205.547 62.591 205.821 62.5567 206.121 62.3852C206.824 61.9824 207.394 60.9924 207.394 60.1823V52.5022C207.394 52.1508 207.287 51.8936 207.09 51.7822C207.008 51.7393 206.923 51.7179 206.828 51.7179Z" fill="#373B42"/>
<path d="M203.862 94.5416C203.862 93.5859 204.531 92.433 205.354 91.9573C206.177 91.4816 206.845 91.8758 206.845 92.8316L206.841 111.372C206.841 112.328 206.172 113.481 205.35 113.956C204.527 114.432 203.858 114.038 203.858 113.082L203.862 94.5416Z" fill="#F0F2F5"/>
<path d="M204.698 94.0829C204.698 94.4987 204.99 94.6615 205.35 94.4558C205.714 94.2501 206.001 93.7486 206.001 93.3372C206.001 92.9129 205.714 92.7458 205.35 92.9515C204.99 93.1572 204.698 93.6586 204.698 94.0829Z" fill="#373B42"/>
<path d="M196.379 140.593C198.771 141.973 200.708 140.867 200.717 138.12L200.999 39.3193C201.008 36.5721 199.079 33.2335 196.692 31.8578L151.957 6.03158C149.566 4.65156 147.628 5.75729 147.62 8.50449L147.337 107.305C147.328 110.052 149.257 113.391 151.644 114.766L196.379 140.593Z" fill="#373B42"/>
<path d="M198.321 141.394C197.691 141.394 196.992 141.184 196.277 140.773L151.541 114.942C149.099 113.532 147.123 110.103 147.131 107.301L147.414 8.50028C147.419 7.09883 147.903 6.04881 148.786 5.54309C149.673 5.03308 150.834 5.14022 152.06 5.85166L196.795 31.6821C199.238 33.0921 201.214 36.5208 201.205 39.3237L200.922 138.124C200.918 139.525 200.434 140.575 199.551 141.081C199.182 141.291 198.767 141.394 198.321 141.394ZM196.482 140.417C197.575 141.047 198.595 141.158 199.349 140.725C200.095 140.297 200.511 139.371 200.515 138.124L200.798 39.3237C200.807 36.6493 198.921 33.3793 196.594 32.0378L151.854 6.20738C150.761 5.57737 149.741 5.46594 148.987 5.89881C148.241 6.32739 147.826 7.25312 147.821 8.50028L147.539 107.301C147.53 109.975 149.416 113.245 151.743 114.586L196.482 140.417Z" fill="#373B42"/>
<path d="M149.3 6.44751C148.764 6.75608 148.456 7.5061 148.451 8.50468L148.168 107.305C148.164 108.488 148.571 109.846 149.313 111.132C150.054 112.414 151.027 113.447 152.06 114.047L196.791 139.873C197.669 140.383 198.484 140.494 199.028 140.181C199.564 139.873 199.872 139.123 199.876 138.124L200.159 39.3238C200.164 38.1409 199.756 36.7823 199.015 35.4966C198.274 34.2151 197.301 33.1823 196.268 32.5822L151.537 6.7518C150.663 6.24607 149.844 6.13464 149.3 6.44751Z" fill="white"/>
<path d="M198.321 140.559C197.832 140.559 197.271 140.387 196.688 140.049L151.957 114.222C150.894 113.605 149.891 112.547 149.133 111.235C148.374 109.919 147.959 108.527 147.963 107.305L148.246 8.50476C148.25 7.43331 148.593 6.61901 149.197 6.27186C149.806 5.92043 150.697 6.03186 151.64 6.58044L196.375 32.4066C197.438 33.0238 198.441 34.0824 199.199 35.3938C199.958 36.7095 200.374 38.1067 200.369 39.3239L200.087 138.124C200.082 139.196 199.735 140.01 199.135 140.357C198.899 140.49 198.625 140.559 198.321 140.559ZM149.403 6.6233C148.94 6.8933 148.661 7.59617 148.657 8.50048L148.374 107.301C148.37 108.449 148.769 109.774 149.489 111.025C150.209 112.277 151.16 113.284 152.163 113.867L196.894 139.693C197.708 140.164 198.449 140.276 198.925 140.001C199.397 139.731 199.667 139.046 199.671 138.12L199.954 39.3196C199.958 38.171 199.559 36.851 198.839 35.5952C198.119 34.3438 197.168 33.3366 196.165 32.7538L151.434 6.93188C150.62 6.46044 149.883 6.34901 149.403 6.6233Z" fill="#373B42"/>
<path d="M184.384 30.9234C183.719 30.5462 166.863 20.8732 166.083 20.4232C164.832 19.7075 163.816 17.946 163.816 16.5017L163.821 13.8745C164.601 14.3245 185.76 26.4619 186.651 26.9762V29.6034C186.651 31.0477 185.635 31.6434 184.384 30.9234Z" fill="#373B42"/>
<path d="M185.39 31.4334C185.047 31.4334 184.67 31.322 184.285 31.0991C183.693 30.7606 170.227 23.0376 166.76 21.049L165.98 20.6032C164.673 19.8532 163.61 18.0146 163.61 16.506L163.614 13.8788C163.614 13.806 163.653 13.7374 163.717 13.7031C163.781 13.6646 163.859 13.6688 163.923 13.7031L168.089 16.0946C174.504 19.7761 186.098 26.4276 186.753 26.8048C186.818 26.8391 186.856 26.9076 186.856 26.9805V29.6077C186.856 30.3834 186.582 30.9706 186.085 31.2577C185.875 31.3734 185.639 31.4334 185.39 31.4334ZM164.026 14.2303L164.021 16.506C164.021 17.8861 164.994 19.5661 166.186 20.2475L166.966 20.6932C170.429 22.6819 183.895 30.4048 184.486 30.7434C185.022 31.052 185.515 31.1034 185.879 30.8977C186.243 30.6877 186.445 30.2248 186.445 29.6034V27.0962C185.116 26.3333 174.084 20.0032 167.883 16.446L164.026 14.2303Z" fill="#373B42"/>
<path d="M169.138 20.1533C168.88 19.7033 168.735 19.2276 168.735 18.8119C168.735 18.439 168.85 18.1647 169.056 18.0447C169.262 17.929 169.549 17.9633 169.866 18.1433L184.048 26.2777C184.408 26.4835 184.751 26.8477 185.008 27.2978C185.269 27.7478 185.411 28.2278 185.411 28.6478C185.411 29.0164 185.299 29.2864 185.094 29.4064C184.888 29.5264 184.601 29.4878 184.279 29.3078L170.098 21.1691C169.738 20.9634 169.395 20.6034 169.138 20.1533Z" fill="white"/>
<path d="M165.461 18.0449C165.204 17.5949 165.059 17.1191 165.059 16.7034C165.059 16.3305 165.174 16.0563 165.38 15.9363C165.586 15.8163 165.873 15.8548 166.19 16.0348C166.55 16.2405 166.893 16.6048 167.15 17.0548C167.411 17.5049 167.553 17.9849 167.553 18.4049C167.553 18.7734 167.441 19.0435 167.236 19.1635C167.03 19.2835 166.743 19.2449 166.421 19.0649C166.061 18.8549 165.719 18.4949 165.461 18.0449Z" fill="white"/>
<path d="M165.803 17.8436C165.649 17.5779 165.563 17.295 165.563 17.0465C165.563 16.8236 165.632 16.6607 165.752 16.5922C165.872 16.5236 166.043 16.545 166.232 16.6522C166.446 16.7764 166.647 16.9907 166.802 17.2565C166.956 17.5265 167.042 17.8093 167.042 18.0579C167.042 18.2765 166.973 18.4393 166.853 18.5079C166.733 18.5765 166.562 18.5593 166.369 18.4479C166.159 18.3279 165.957 18.1093 165.803 17.8436Z" fill="#FF1091"/>
<path d="M163.893 9.86343C162.976 9.33199 162.984 8.47484 163.893 7.9434C164.819 7.40767 166.289 7.40767 167.206 7.93483C168.149 8.47912 168.153 9.33199 167.227 9.86772C166.319 10.3992 164.836 10.4034 163.893 9.86343Z" fill="#373B42"/>
<path d="M200.979 45.9409C200.91 45.9409 200.841 45.9023 200.803 45.838C200.747 45.7395 200.781 45.6152 200.88 45.5595L209.884 40.3608C209.979 40.3051 210.107 40.3351 210.163 40.4336C210.219 40.5322 210.184 40.6565 210.086 40.7122L201.081 45.9109C201.051 45.9323 201.017 45.9409 200.979 45.9409Z" fill="#373B42"/>
<path d="M200.73 132.527C200.661 132.527 200.592 132.488 200.554 132.424C200.498 132.325 200.532 132.201 200.631 132.145L209.635 126.947C209.73 126.891 209.858 126.921 209.914 127.02C209.97 127.118 209.935 127.242 209.837 127.298L200.832 132.497C200.802 132.518 200.768 132.527 200.73 132.527Z" fill="#373B42"/>
<path d="M24.5408 104.245C23.2765 104.973 22.2565 106.743 22.2608 108.192C22.265 109.645 23.2936 110.228 24.5537 109.499L43.694 98.4503V93.1831L24.5408 104.245Z" fill="#373B42"/>
<path d="M84.3743 69.706L43.6979 93.1878V98.455L84.3914 74.9646C85.6558 74.236 86.6758 72.466 86.6715 71.0174C86.6629 69.5645 85.6386 68.9774 84.3743 69.706Z" fill="#DBDEE4"/>
<path d="M194.429 111.244C195.694 111.972 196.714 113.742 196.709 115.191C196.705 116.644 195.676 117.227 194.416 116.498L164.133 99.0934V93.8262L194.429 111.244Z" fill="#DBDEE4"/>
<path d="M154.207 88.0575L164.128 93.8305V99.0977L154.19 93.3162C152.925 92.5876 151.905 90.8176 151.91 89.369C151.918 87.9161 152.943 87.3289 154.207 88.0575Z" fill="#373B42"/>
<path d="M179.369 121.684C180.089 122.099 180.668 123.102 180.668 123.929C180.663 124.756 180.081 125.091 179.361 124.675L165.393 116.609C164.673 116.193 164.095 115.191 164.095 114.363C164.099 113.536 164.682 113.202 165.402 113.618L179.369 121.684Z" fill="#BEC4CD"/>
<path d="M30.8275 54.3755C31.4018 54.0455 31.8647 54.3069 31.8647 54.9669C31.8647 55.627 31.4061 56.4284 30.8318 56.7584L15.8958 65.3814C15.3215 65.7114 14.8544 65.4457 14.8544 64.7857C14.8544 64.1257 15.3172 63.3285 15.8915 62.9985L30.8275 54.3755Z" fill="#DBDEE4"/>
<path d="M22.0459 65.7158C22.6202 65.3858 23.0831 65.6473 23.0831 66.3073C23.0831 66.9673 22.6245 67.7687 22.0502 68.0987L15.8958 71.6517C15.3215 71.9817 14.8544 71.716 14.8544 71.0559C14.8544 70.3959 15.3172 69.5988 15.8915 69.2688L22.0459 65.7158Z" fill="#DBDEE4"/>
<path d="M92.2212 18.6148C92.7955 18.2848 93.2583 18.5462 93.2583 19.2062C93.2583 19.8662 92.7998 20.6677 92.2255 20.9977L77.2895 29.6207C76.7152 29.9507 76.248 29.685 76.248 29.025C76.248 28.3649 76.7109 27.5678 77.2852 27.2378L92.2212 18.6148Z" fill="#DBDEE4"/>
<path d="M91.8612 25.8194C92.4355 25.4894 92.8984 25.7508 92.8984 26.4108C92.8984 27.0708 92.4398 27.8723 91.8655 28.2023L85.7111 31.7552C85.1368 32.0852 84.6697 31.8195 84.6697 31.1595C84.6697 30.4994 85.1325 29.7023 85.7068 29.3723L91.8612 25.8194Z" fill="#DBDEE4"/>
<path d="M154.031 25.0523C153.457 24.7223 152.994 24.9837 152.994 25.6437C152.994 26.3037 153.453 27.1052 154.027 27.4352L168.963 36.0582C169.537 36.3882 170.005 36.1225 170.005 35.4625C170.005 34.8024 169.542 34.0053 168.967 33.6753L154.031 25.0523Z" fill="#DBDEE4"/>
<path d="M154.306 31.4292C153.731 31.0992 153.268 31.3607 153.268 32.0207C153.268 32.6807 153.727 33.4821 154.301 33.8121L160.456 37.365C161.03 37.6951 161.497 37.4293 161.497 36.7693C161.497 36.1093 161.034 35.3121 160.46 34.9821L154.306 31.4292Z" fill="#DBDEE4"/>
<path d="M190.859 195.151C196.744 198.55 196.769 204.057 190.924 207.451C185.078 210.85 175.576 210.85 169.692 207.451C163.807 204.053 163.765 198.545 169.61 195.147C175.456 191.752 184.975 191.752 190.859 195.151Z" fill="black"/>
<path d="M195.287 194.744L195.269 199.283C195.257 201.494 193.804 203.701 190.898 205.394C188.455 206.813 185.374 207.636 182.185 207.867C180.904 207.961 179.605 207.961 178.328 207.863C175.165 207.627 172.109 206.8 169.67 205.394C166.705 203.68 165.222 201.434 165.226 199.188L165.252 194.663C165.252 196.904 166.735 199.15 169.696 200.856C172.13 202.257 175.178 203.08 178.332 203.324C179.609 203.427 180.908 203.427 182.189 203.328C185.386 203.101 188.472 202.278 190.924 200.856C193.829 199.167 195.282 196.96 195.287 194.744Z" fill="#BEC4CD"/>
<path d="M182.185 203.332V207.871C180.903 207.965 179.605 207.965 178.327 207.867V203.328C179.605 203.427 180.903 203.427 182.185 203.332Z" fill="#DBDEE4"/>
<path d="M180.299 208.141C176.416 208.141 172.533 207.284 169.567 205.574C166.631 203.877 165.016 201.614 165.024 199.193L165.046 194.654C165.046 194.543 165.136 194.448 165.251 194.448C165.363 194.448 165.457 194.543 165.457 194.654C165.453 196.921 166.991 199.06 169.794 200.68C175.61 204.036 185.043 204.04 190.82 200.68C193.559 199.09 195.072 196.99 195.085 194.765V194.748C195.085 194.748 195.085 194.748 195.085 194.744C195.085 194.633 195.175 194.538 195.29 194.538C195.402 194.538 195.496 194.633 195.496 194.744C195.496 194.753 195.496 194.757 195.496 194.765L195.475 199.283C195.466 201.666 193.88 203.898 191.005 205.57C188.056 207.284 184.182 208.141 180.299 208.141ZM165.444 196.715L165.431 199.193C165.427 201.46 166.966 203.598 169.769 205.218C175.584 208.578 185.017 208.578 190.795 205.218C193.538 203.624 195.055 201.516 195.059 199.283L195.072 196.827C194.425 198.413 193.04 199.861 191.022 201.031C185.129 204.456 175.516 204.456 169.584 201.031C167.506 199.831 166.091 198.344 165.444 196.715Z" fill="#373B42"/>
<path d="M190.858 188.551C196.743 191.949 196.768 197.457 190.922 200.851C185.077 204.25 175.575 204.25 169.691 200.851C163.806 197.452 163.763 191.945 169.609 188.547C175.455 185.152 184.974 185.156 190.858 188.551Z" fill="white"/>
<path d="M180.319 203.598C176.436 203.598 172.553 202.741 169.588 201.031C166.66 199.343 165.049 197.084 165.045 194.671C165.04 192.28 166.626 190.042 169.506 188.371C175.399 184.947 185.025 184.947 190.961 188.375C193.879 190.06 195.491 192.314 195.495 194.722C195.5 197.114 193.909 199.355 191.025 201.031C188.081 202.741 184.202 203.598 180.319 203.598ZM180.212 186.207C176.402 186.207 172.601 187.047 169.712 188.727C166.965 190.325 165.452 192.434 165.456 194.675C165.46 196.934 166.999 199.068 169.793 200.68C175.609 204.036 185.042 204.04 190.819 200.68C193.575 199.081 195.088 196.964 195.084 194.727C195.08 192.472 193.545 190.347 190.755 188.735C187.845 187.047 184.026 186.207 180.212 186.207Z" fill="#373B42"/>
<path d="M169.76 194.688C169.76 195.952 170.442 197.221 171.805 198.297C172.118 198.545 172.473 198.785 172.863 199.008C176.969 201.378 183.621 201.378 187.705 199.004C188.069 198.794 188.395 198.575 188.695 198.339C190.071 197.277 190.756 195.999 190.761 194.731C190.769 193.166 189.736 191.594 187.666 190.402C183.552 188.024 176.901 188.024 172.816 190.402C172.182 190.771 171.642 191.174 171.205 191.611C171.033 191.778 170.875 191.954 170.733 192.129C170.305 192.665 170.018 193.231 169.876 193.809C169.85 193.904 169.833 194.002 169.82 194.096C169.786 194.281 169.769 194.474 169.769 194.658C169.76 194.671 169.76 194.679 169.76 194.688Z" fill="white"/>
<path d="M180.286 200.988C177.564 200.988 174.839 200.388 172.76 199.188C172.37 198.965 172.006 198.721 171.676 198.459C170.287 197.362 169.554 196.059 169.554 194.692V194.662C169.554 194.469 169.571 194.268 169.61 194.062C169.623 193.968 169.644 193.865 169.67 193.762C169.82 193.149 170.124 192.558 170.57 192.005C170.737 191.799 170.896 191.624 171.059 191.465C171.513 191.015 172.07 190.599 172.713 190.226C176.849 187.818 183.603 187.818 187.769 190.226C189.839 191.422 190.975 193.021 190.962 194.735C190.957 196.098 190.195 197.435 188.815 198.502C188.515 198.738 188.185 198.961 187.803 199.179C185.737 200.384 183.012 200.988 180.286 200.988ZM180.23 188.825C177.577 188.825 174.929 189.412 172.919 190.582C172.306 190.938 171.779 191.332 171.346 191.756C171.191 191.906 171.041 192.069 170.887 192.262C170.48 192.768 170.206 193.304 170.068 193.861C170.047 193.951 170.03 194.041 170.017 194.126C169.983 194.315 169.966 194.491 169.966 194.658V194.688C169.966 195.926 170.647 197.118 171.929 198.134C172.241 198.382 172.589 198.614 172.961 198.828C177.011 201.168 183.573 201.164 187.597 198.824C187.962 198.614 188.279 198.404 188.562 198.177C189.839 197.187 190.546 195.961 190.55 194.726C190.559 193.171 189.496 191.696 187.559 190.574C185.536 189.408 182.879 188.825 180.23 188.825Z" fill="#373B42"/>
<path d="M190.76 194.731C190.756 195.999 190.07 197.277 188.694 198.339C188.382 198.091 188.03 197.859 187.644 197.632C183.53 195.254 176.879 195.254 172.794 197.632C172.43 197.842 172.104 198.065 171.808 198.297C170.45 197.221 169.764 195.952 169.764 194.688V194.658C169.764 194.474 169.781 194.281 169.816 194.096C169.828 194.002 169.85 193.904 169.871 193.809C170.013 193.231 170.3 192.665 170.728 192.129C170.87 191.954 171.028 191.778 171.2 191.611C171.637 191.178 172.177 190.771 172.811 190.402C176.896 188.024 183.552 188.024 187.662 190.402C189.732 191.594 190.769 193.166 190.76 194.731Z" fill="#373B42"/>
<path d="M188.69 198.545C188.647 198.545 188.6 198.532 188.562 198.502C188.253 198.258 187.915 198.035 187.537 197.812C183.483 195.472 176.913 195.472 172.893 197.812C172.554 198.005 172.233 198.224 171.929 198.459C171.851 198.515 171.749 198.515 171.676 198.459C170.287 197.362 169.554 196.059 169.554 194.692C169.554 194.474 169.571 194.268 169.61 194.062C169.623 193.968 169.644 193.865 169.67 193.762C169.82 193.149 170.124 192.558 170.57 192.005C170.729 191.808 170.896 191.628 171.059 191.465C171.513 191.015 172.07 190.599 172.713 190.226C176.849 187.818 183.603 187.818 187.769 190.226C189.839 191.422 190.975 193.021 190.962 194.735C190.957 196.098 190.195 197.435 188.815 198.502C188.78 198.528 188.737 198.545 188.69 198.545ZM180.204 195.652C182.93 195.652 185.66 196.252 187.743 197.457C188.09 197.658 188.399 197.864 188.69 198.078C189.89 197.105 190.55 195.922 190.555 194.731C190.563 193.175 189.5 191.701 187.563 190.582C183.509 188.242 176.939 188.242 172.919 190.582C172.306 190.938 171.779 191.332 171.346 191.756C171.191 191.906 171.037 192.078 170.887 192.258C170.48 192.764 170.206 193.299 170.068 193.856C170.047 193.946 170.03 194.036 170.017 194.122C169.983 194.311 169.966 194.486 169.966 194.654C169.966 195.884 170.6 197.037 171.809 198.031C172.091 197.821 172.387 197.628 172.691 197.452C174.757 196.252 177.479 195.652 180.204 195.652Z" fill="#373B42"/>
<path d="M197.365 175.003L190.542 194.945C190.547 196.406 189.526 197.808 187.675 198.884C185.716 200.024 183.102 200.645 180.303 200.645C177.505 200.645 174.878 200.019 172.906 198.884C171.033 197.799 169.996 196.398 169.988 194.932H169.983L163.156 174.96C162.565 172.766 163.773 170.525 166.722 168.69C170.009 166.646 174.852 165.467 180.205 165.467C185.558 165.467 190.418 166.642 193.731 168.69C196.722 170.533 197.957 172.796 197.365 175.003Z" fill="url(#paint0_linear_810_9569)"/>
<path d="M204.642 169.067L204.625 174.69C204.625 175.085 204.158 175.419 203.494 175.513L198.128 176.242C197.802 176.979 197.348 177.69 196.744 178.376L198.916 177.112C199.195 176.949 199.345 176.735 199.345 176.512L199.328 182.139C199.328 182.358 199.178 182.572 198.899 182.739L196.169 184.325C196.028 184.406 195.861 184.466 195.681 184.513C195.252 184.616 194.759 184.599 194.339 184.449L189.646 182.769C188.159 183.279 186.573 183.665 184.94 183.901L183.698 187.008C183.608 187.222 183.385 187.402 183.089 187.518C182.853 187.616 182.566 187.668 182.266 187.668H178.392C178.028 187.672 177.689 187.604 177.432 187.466C177.398 187.454 177.368 187.441 177.338 187.424C177.145 187.312 177.008 187.175 176.948 187.016L175.666 183.905C174.029 183.665 172.443 183.292 170.947 182.773L166.267 184.458C166.203 184.479 166.134 184.501 166.066 184.518C165.967 184.539 165.869 184.552 165.766 184.561C165.299 184.612 164.802 184.535 164.446 184.329L161.694 182.735C161.403 182.572 161.249 182.345 161.249 182.122L161.266 176.499C161.266 176.726 161.42 176.945 161.712 177.116L163.696 178.256C163.134 177.609 162.706 176.932 162.402 176.242L157.019 175.513C156.744 175.475 156.504 175.398 156.311 175.286C156.05 175.132 155.883 174.918 155.883 174.686V174.669L155.87 172.423L155.887 166.8L155.9 169.046V169.059C155.9 169.29 156.063 169.505 156.329 169.659C156.521 169.77 156.761 169.847 157.036 169.886L162.419 170.615C162.843 171.566 163.49 172.483 164.377 173.345L164.36 178.642L164.463 178.702C164.75 178.865 165.132 178.955 165.517 178.955V178.942C165.65 178.942 165.779 178.938 165.912 178.921C166.036 178.899 166.169 178.869 166.284 178.826L170.965 177.146C172.456 177.656 174.046 178.029 175.683 178.273L176.965 181.385C177.025 181.543 177.162 181.681 177.355 181.792C177.38 181.809 177.406 181.818 177.432 181.831C177.693 181.968 178.04 182.045 178.409 182.041H182.288C182.583 182.041 182.866 181.989 183.102 181.899C183.41 181.788 183.633 181.603 183.723 181.389L184.971 178.282C186.603 178.042 188.189 177.656 189.676 177.15L194.365 178.826C194.618 178.921 194.896 178.963 195.179 178.959V178.946C195.368 178.946 195.552 178.925 195.724 178.886C195.899 178.848 196.062 178.788 196.199 178.706L196.204 178.702L196.221 173.349C197.095 172.488 197.738 171.57 198.154 170.619L203.519 169.89C204.102 169.813 204.531 169.543 204.629 169.213V169.209C204.638 169.162 204.642 169.115 204.642 169.067Z" fill="#373B42"/>
<path d="M178.349 187.873C177.972 187.873 177.612 187.792 177.333 187.646C177.316 187.642 177.274 187.621 177.231 187.599C176.991 187.462 176.828 187.291 176.755 187.089L175.521 184.089C173.905 183.845 172.366 183.476 170.952 182.992L166.34 184.655C166.259 184.68 166.19 184.706 166.113 184.723C166.006 184.749 165.899 184.758 165.788 184.77C165.26 184.826 164.72 184.732 164.348 184.513L161.596 182.919C161.249 182.722 161.048 182.435 161.048 182.126L161.065 176.503C161.065 176.392 161.155 176.297 161.27 176.297L156.993 175.719C156.689 175.676 156.427 175.59 156.209 175.47C155.87 175.273 155.677 174.99 155.677 174.695L155.665 172.432L155.682 166.809C155.682 166.697 155.772 166.603 155.887 166.603C155.999 166.603 156.093 166.693 156.093 166.809L156.102 169.054C156.102 169.213 156.222 169.367 156.427 169.487C156.595 169.582 156.813 169.65 157.062 169.685L162.44 170.413C162.509 170.422 162.573 170.469 162.599 170.533C163.019 171.476 163.666 172.376 164.515 173.199C164.553 173.237 164.579 173.289 164.579 173.349L164.562 178.53C164.798 178.663 165.119 178.745 165.453 178.753C165.47 178.749 165.492 178.745 165.513 178.745C165.638 178.745 165.762 178.74 165.882 178.723C165.972 178.706 166.1 178.68 166.208 178.642L170.888 176.962C170.931 176.945 170.978 176.945 171.025 176.962C172.478 177.459 174.055 177.836 175.705 178.076C175.778 178.089 175.838 178.136 175.863 178.2L177.145 181.312C177.188 181.428 177.291 181.53 177.445 181.616C177.466 181.629 177.479 181.638 177.496 181.642C177.754 181.775 178.071 181.826 178.396 181.835H182.275C182.545 181.835 182.798 181.792 183.012 181.706C183.265 181.616 183.454 181.466 183.518 181.308L184.765 178.2C184.791 178.132 184.855 178.085 184.924 178.076C186.531 177.836 188.104 177.459 189.595 176.953C189.638 176.94 189.685 176.94 189.728 176.953L194.417 178.629C194.627 178.706 194.858 178.749 195.098 178.749C195.12 178.74 195.141 178.736 195.162 178.736C195.33 178.736 195.501 178.719 195.66 178.68C195.78 178.655 195.891 178.616 195.985 178.573L196.002 173.34C196.002 173.285 196.024 173.233 196.062 173.195C196.902 172.363 197.541 171.467 197.952 170.529C197.982 170.465 198.042 170.417 198.111 170.409L203.477 169.68C204.025 169.607 204.343 169.372 204.415 169.162C204.415 169.153 204.42 169.14 204.424 169.132C204.428 169.115 204.433 169.097 204.433 169.067V169.063C204.433 168.952 204.523 168.857 204.638 168.857C204.754 168.857 204.844 168.947 204.844 169.063V169.067L204.827 174.686C204.827 175.187 204.3 175.603 203.52 175.71L198.265 176.426C198.072 176.85 197.837 177.262 197.558 177.665L198.814 176.936C199.024 176.812 199.14 176.666 199.14 176.516V176.512C199.14 176.4 199.23 176.306 199.345 176.306C199.461 176.306 199.551 176.396 199.551 176.512V176.516L199.534 182.139C199.534 182.439 199.345 182.713 199.007 182.915L196.277 184.5C196.122 184.59 195.947 184.659 195.732 184.71C195.252 184.83 194.721 184.805 194.271 184.638L189.647 182.983C188.185 183.48 186.655 183.849 185.091 184.085L183.895 187.085C183.788 187.351 183.531 187.569 183.171 187.711C182.918 187.818 182.609 187.873 182.271 187.873H178.392C178.379 187.873 178.366 187.873 178.349 187.873ZM170.952 182.568C170.973 182.568 170.995 182.572 171.021 182.58C172.465 183.082 174.042 183.459 175.701 183.703C175.773 183.716 175.833 183.763 175.859 183.828L177.136 186.939C177.179 187.055 177.282 187.158 177.436 187.243C177.453 187.256 177.475 187.265 177.496 187.273C177.754 187.406 178.062 187.483 178.388 187.466H182.275C182.554 187.466 182.811 187.419 183.021 187.333C183.274 187.235 183.454 187.089 183.518 186.935L184.756 183.828C184.782 183.759 184.846 183.712 184.919 183.699C186.527 183.468 188.095 183.09 189.587 182.576C189.629 182.559 189.677 182.563 189.724 182.576L194.417 184.256C194.781 184.393 195.24 184.415 195.638 184.316C195.81 184.273 195.955 184.218 196.071 184.149L198.801 182.563C199.011 182.439 199.127 182.289 199.127 182.143L199.14 177.215C199.101 177.24 199.062 177.266 199.024 177.292L196.847 178.556C196.757 178.603 196.65 178.586 196.585 178.509C196.521 178.432 196.525 178.32 196.59 178.243C197.164 177.592 197.618 176.889 197.94 176.16C197.97 176.096 198.03 176.049 198.098 176.04L203.464 175.312C204.017 175.235 204.42 174.973 204.42 174.69L204.433 169.766C204.205 169.929 203.897 170.045 203.537 170.092L198.287 170.807C197.862 171.733 197.237 172.616 196.418 173.435L196.401 178.702C196.401 178.758 196.375 178.813 196.337 178.852C196.148 178.972 195.964 179.045 195.758 179.088C195.591 179.126 195.411 179.148 195.235 179.152C195.201 179.165 195.162 179.165 195.128 179.165C194.832 179.165 194.545 179.113 194.288 179.019L189.668 177.369C188.211 177.862 186.677 178.23 185.112 178.47L183.912 181.47C183.801 181.74 183.531 181.968 183.171 182.096C182.918 182.195 182.609 182.25 182.288 182.25H178.409C178.006 182.255 177.638 182.173 177.338 182.019C177.321 182.015 177.286 181.998 177.248 181.976C177.012 181.839 176.849 181.668 176.772 181.466L175.538 178.466C173.931 178.222 172.392 177.853 170.969 177.373L166.358 179.028C166.22 179.079 166.07 179.109 165.95 179.13C165.822 179.148 165.702 179.152 165.582 179.156C165.56 179.165 165.539 179.169 165.518 179.169C165.085 179.169 164.673 179.07 164.36 178.89L164.258 178.83C164.193 178.796 164.155 178.728 164.155 178.65L164.172 173.439C163.345 172.625 162.706 171.742 162.278 170.812L157.01 170.096C156.706 170.053 156.445 169.967 156.226 169.847C156.175 169.817 156.127 169.787 156.085 169.753L156.076 172.436L156.089 174.682C156.089 174.845 156.209 174.999 156.415 175.123C156.582 175.217 156.8 175.286 157.049 175.32L162.428 176.049C162.496 176.057 162.56 176.105 162.586 176.169C162.89 176.855 163.315 177.515 163.85 178.132C163.915 178.209 163.915 178.32 163.855 178.398C163.79 178.475 163.679 178.496 163.593 178.445L161.609 177.305C161.558 177.275 161.515 177.245 161.472 177.215L161.459 182.139C161.459 182.293 161.583 182.452 161.802 182.576L164.553 184.17C164.858 184.346 165.299 184.423 165.749 184.376C165.848 184.368 165.938 184.355 166.028 184.338C166.088 184.325 166.143 184.303 166.203 184.286L170.883 182.602C170.905 182.572 170.931 182.568 170.952 182.568ZM161.326 176.302C161.412 176.327 161.476 176.405 161.476 176.499C161.476 176.653 161.596 176.807 161.819 176.936L162.908 177.562C162.659 177.193 162.44 176.816 162.26 176.426L161.326 176.302Z" fill="#373B42"/>
<path d="M199.266 159.348L199.249 164.975C199.249 165.129 199.176 165.283 199.03 165.425L196.141 168.134L196.159 162.506L199.047 159.798C199.193 159.661 199.266 159.502 199.266 159.348Z" fill="#373B42"/>
<path d="M196.142 168.339C196.112 168.339 196.086 168.335 196.06 168.322C195.983 168.288 195.936 168.215 195.936 168.134L195.953 162.506C195.953 162.451 195.974 162.395 196.017 162.356L198.906 159.648C199.009 159.553 199.06 159.451 199.06 159.348V159.343C199.06 159.232 199.15 159.138 199.266 159.138C199.382 159.138 199.472 159.228 199.472 159.343C199.472 159.343 199.472 159.343 199.472 159.348L199.454 164.975C199.454 165.185 199.356 165.395 199.172 165.571L196.283 168.279C196.24 168.318 196.193 168.339 196.142 168.339ZM196.36 162.596L196.343 167.662L198.884 165.279C198.987 165.181 199.039 165.078 199.039 164.979L199.052 160.072L196.36 162.596Z" fill="#373B42"/>
<path d="M164.318 162.51L164.301 168.138L161.386 165.425C161.232 165.283 161.159 165.125 161.159 164.962L161.176 159.339C161.176 159.493 161.249 159.652 161.404 159.793L164.318 162.51Z" fill="#373B42"/>
<path d="M164.305 168.343C164.254 168.343 164.202 168.326 164.168 168.288L161.254 165.575C161.065 165.399 160.962 165.189 160.962 164.962L160.979 159.339C160.979 159.228 161.069 159.133 161.185 159.133C161.301 159.133 161.391 159.223 161.391 159.339C161.391 159.442 161.447 159.549 161.549 159.643L164.464 162.356C164.507 162.395 164.528 162.45 164.528 162.506L164.511 168.133C164.511 168.215 164.464 168.288 164.387 168.322C164.361 168.339 164.331 168.343 164.305 168.343ZM161.382 160.059L161.369 164.966C161.369 165.073 161.425 165.176 161.528 165.275L164.104 167.671L164.117 162.601L161.382 160.059Z" fill="#373B42"/>
<path d="M188.434 167.126L188.417 172.749C188.421 171.532 187.615 170.311 186.012 169.385C182.811 167.538 177.638 167.538 174.458 169.385C172.876 170.302 172.088 171.506 172.083 172.706L172.101 167.083C172.105 165.879 172.894 164.679 174.475 163.762C177.655 161.915 182.828 161.915 186.029 163.762C187.637 164.692 188.438 165.909 188.434 167.126Z" fill="#373B42"/>
<path d="M188.417 172.955C188.301 172.955 188.211 172.861 188.211 172.749C188.215 171.553 187.397 170.422 185.905 169.565C182.764 167.752 177.672 167.752 174.556 169.565C173.095 170.413 172.289 171.532 172.285 172.711C172.285 172.822 172.195 172.916 172.079 172.916C171.968 172.916 171.874 172.822 171.874 172.711L171.891 167.088C171.895 165.755 172.774 164.512 174.368 163.586C177.599 161.709 182.879 161.709 186.128 163.586C187.748 164.52 188.64 165.78 188.635 167.126L188.618 172.749C188.622 172.865 188.528 172.955 188.417 172.955ZM180.227 167.799C182.357 167.799 184.491 168.27 186.115 169.209C187.097 169.775 187.808 170.461 188.22 171.211L188.232 167.126C188.237 165.93 187.418 164.799 185.927 163.942C182.785 162.129 177.694 162.129 174.578 163.942C173.116 164.79 172.306 165.909 172.302 167.088L172.289 171.168C172.696 170.435 173.395 169.762 174.351 169.209C175.966 168.27 178.096 167.799 180.227 167.799Z" fill="#373B42"/>
<path d="M199.122 176.062C199.495 176.401 199.409 176.838 198.921 177.121L196.195 178.706C195.706 178.989 194.956 179.041 194.365 178.831L189.672 177.151C188.181 177.661 186.595 178.042 184.966 178.282L183.723 181.389C183.569 181.779 182.973 182.049 182.292 182.049H178.413C178.006 182.054 177.629 181.959 177.359 181.801C177.17 181.689 177.033 181.552 176.969 181.394L175.692 178.278C174.059 178.038 172.469 177.665 170.977 177.151L166.297 178.835C165.71 179.045 164.956 178.989 164.472 178.706L161.72 177.116C161.236 176.838 161.133 176.401 161.493 176.058L164.382 173.341C163.49 172.479 162.847 171.562 162.423 170.615L157.04 169.886C156.766 169.852 156.526 169.771 156.337 169.663C156.067 169.505 155.9 169.286 155.909 169.051L155.896 166.805C155.887 166.411 156.354 166.063 157.031 165.978L162.384 165.245C162.8 164.302 163.447 163.38 164.322 162.515L161.407 159.802C161.043 159.459 161.129 159.026 161.613 158.739L164.339 157.153C164.827 156.87 165.582 156.819 166.164 157.033L170.862 158.709C172.353 158.199 173.93 157.83 175.568 157.578L176.819 154.475C176.969 154.08 177.56 153.81 178.246 153.815H182.125C182.528 153.81 182.905 153.905 183.175 154.059C183.368 154.17 183.505 154.312 183.565 154.47L184.851 157.573C186.488 157.826 188.078 158.199 189.578 158.709L194.245 157.025C194.832 156.815 195.595 156.87 196.079 157.149L198.831 158.739C199.315 159.018 199.414 159.459 199.049 159.802L196.161 162.51C197.044 163.376 197.704 164.298 198.132 165.245L203.494 165.978C203.772 166.012 204.017 166.093 204.209 166.201C204.479 166.355 204.642 166.573 204.638 166.809L204.651 169.055C204.659 169.449 204.192 169.796 203.519 169.886L198.158 170.615C197.738 171.566 197.095 172.479 196.221 173.345L199.122 176.062ZM174.509 171.275C177.702 173.118 182.875 173.118 186.059 171.271C189.243 169.423 189.222 166.423 186.029 164.58C182.828 162.733 177.655 162.733 174.475 164.58C171.29 166.432 171.307 169.428 174.509 171.275Z" fill="white"/>
<path d="M178.379 182.251C177.959 182.251 177.557 182.152 177.252 181.976C177.017 181.839 176.854 181.664 176.772 181.466L175.538 178.462C173.931 178.218 172.396 177.849 170.974 177.365L166.362 179.024C165.728 179.251 164.905 179.191 164.365 178.882L161.613 177.292C161.296 177.108 161.103 176.859 161.073 176.581C161.043 176.341 161.142 176.101 161.348 175.908L164.082 173.336C163.302 172.552 162.698 171.699 162.278 170.803L157.006 170.088C156.715 170.049 156.445 169.963 156.226 169.839C155.879 169.638 155.686 169.35 155.695 169.046L155.682 166.805C155.669 166.299 156.213 165.875 156.998 165.772L162.239 165.052C162.646 164.165 163.246 163.312 164.022 162.515L161.262 159.947C161.048 159.75 160.949 159.506 160.975 159.262C161.005 158.987 161.193 158.739 161.506 158.559L164.232 156.973C164.772 156.66 165.591 156.605 166.229 156.836L170.858 158.486C172.259 158.01 173.794 157.642 175.418 157.389L176.627 154.393C176.802 153.93 177.462 153.604 178.229 153.604C178.234 153.604 178.238 153.604 178.242 153.604H182.121C182.541 153.604 182.961 153.699 183.274 153.879C183.509 154.016 183.677 154.196 183.754 154.397L184.992 157.389C186.617 157.642 188.155 158.015 189.57 158.49L194.168 156.832C194.811 156.6 195.634 156.66 196.174 156.969L198.925 158.559C199.238 158.739 199.431 158.992 199.461 159.266C199.491 159.51 199.393 159.75 199.183 159.947L196.444 162.51C197.228 163.308 197.837 164.16 198.261 165.052L203.516 165.772C203.811 165.81 204.086 165.896 204.304 166.02C204.647 166.218 204.84 166.509 204.831 166.809L204.844 169.046C204.857 169.548 204.317 169.976 203.537 170.083L198.287 170.799C197.875 171.691 197.28 172.539 196.504 173.336L199.255 175.908C199.47 176.105 199.577 176.345 199.551 176.589C199.521 176.863 199.333 177.112 199.02 177.296L196.294 178.882C195.758 179.195 194.935 179.251 194.293 179.019L189.668 177.365C188.215 177.858 186.685 178.226 185.108 178.462L183.908 181.462C183.724 181.925 183.064 182.251 182.297 182.251C182.292 182.251 182.288 182.251 182.284 182.251H178.405C178.401 182.251 178.388 182.251 178.379 182.251ZM170.969 176.941C170.991 176.941 171.012 176.945 171.034 176.953C172.486 177.455 174.059 177.828 175.709 178.072C175.782 178.085 175.842 178.132 175.868 178.196L177.145 181.312C177.188 181.424 177.295 181.531 177.449 181.621C177.694 181.762 178.028 181.839 178.375 181.839C178.384 181.839 178.392 181.839 178.401 181.839H182.279C182.284 181.839 182.288 181.839 182.292 181.839C182.875 181.839 183.402 181.612 183.522 181.312L184.765 178.205C184.791 178.136 184.855 178.089 184.928 178.076C186.544 177.841 188.112 177.463 189.6 176.953C189.642 176.941 189.69 176.941 189.737 176.953L194.43 178.634C194.961 178.822 195.66 178.775 196.088 178.526L198.814 176.941C199.011 176.825 199.127 176.688 199.144 176.546C199.157 176.405 199.063 176.285 198.981 176.212C198.981 176.212 198.981 176.212 198.977 176.212L196.067 173.495C196.024 173.456 196.003 173.405 196.003 173.349C196.003 173.293 196.024 173.242 196.063 173.199C196.903 172.368 197.541 171.468 197.957 170.533C197.987 170.469 198.047 170.422 198.115 170.413L203.477 169.685C204.026 169.612 204.437 169.342 204.433 169.059L204.42 166.809C204.424 166.655 204.304 166.5 204.094 166.376C203.923 166.278 203.7 166.209 203.456 166.179L198.09 165.446C198.021 165.438 197.961 165.39 197.931 165.33C197.503 164.392 196.851 163.492 196.003 162.656C195.964 162.618 195.938 162.562 195.943 162.506C195.943 162.45 195.968 162.399 196.007 162.36L198.895 159.652C198.973 159.579 199.063 159.459 199.045 159.317C199.028 159.172 198.908 159.03 198.711 158.919L195.96 157.329C195.523 157.08 194.824 157.033 194.297 157.222L189.634 158.906C189.591 158.923 189.54 158.923 189.497 158.906C188.052 158.413 186.475 158.036 184.808 157.779C184.74 157.766 184.68 157.719 184.65 157.655L183.364 154.552C183.321 154.432 183.214 154.329 183.059 154.239C182.819 154.102 182.485 154.02 182.138 154.02C182.129 154.02 182.121 154.02 182.117 154.02H178.238C178.234 154.02 178.229 154.02 178.225 154.02C177.638 154.02 177.115 154.247 177.004 154.547L175.752 157.655C175.726 157.723 175.666 157.77 175.594 157.779C173.926 158.036 172.354 158.413 170.922 158.902C170.879 158.915 170.832 158.915 170.785 158.902L166.088 157.226C165.565 157.033 164.871 157.076 164.433 157.329L161.708 158.915C161.511 159.03 161.395 159.167 161.378 159.309C161.361 159.45 161.455 159.57 161.536 159.647L164.451 162.36C164.493 162.399 164.515 162.45 164.515 162.506C164.515 162.562 164.493 162.618 164.455 162.656C163.611 163.492 162.972 164.388 162.561 165.322C162.531 165.386 162.471 165.433 162.402 165.442L157.049 166.175C156.496 166.248 156.08 166.513 156.089 166.796L156.102 169.046C156.098 169.2 156.218 169.359 156.428 169.479C156.599 169.578 156.818 169.646 157.058 169.676L162.441 170.409C162.509 170.418 162.569 170.465 162.599 170.529C163.023 171.476 163.671 172.372 164.515 173.191C164.553 173.229 164.579 173.285 164.579 173.341C164.579 173.396 164.553 173.448 164.515 173.486L161.626 176.199C161.549 176.272 161.459 176.388 161.476 176.529C161.493 176.671 161.618 176.816 161.815 176.932L164.566 178.522C165.003 178.775 165.698 178.822 166.221 178.634L170.896 176.949C170.922 176.945 170.948 176.941 170.969 176.941ZM180.287 172.861C178.161 172.861 176.031 172.393 174.406 171.455C172.786 170.521 171.895 169.265 171.891 167.919C171.891 166.582 172.769 165.335 174.368 164.405C177.599 162.527 182.879 162.527 186.128 164.405C187.744 165.339 188.635 166.59 188.635 167.936C188.635 169.273 187.757 170.52 186.158 171.451C184.547 172.389 182.417 172.861 180.287 172.861ZM180.244 163.402C178.187 163.402 176.134 163.856 174.578 164.76C173.112 165.613 172.302 166.736 172.302 167.919C172.306 169.11 173.125 170.242 174.612 171.099C177.745 172.908 182.837 172.908 185.957 171.095C187.427 170.242 188.232 169.119 188.232 167.936C188.232 166.745 187.414 165.618 185.927 164.76C184.358 163.852 182.297 163.402 180.244 163.402Z" fill="#373B42"/>
<path d="M117.272 108.385C118.755 109.242 118.764 110.627 117.289 111.484C115.819 112.341 113.424 112.341 111.941 111.484C110.458 110.627 110.453 109.242 111.923 108.385C113.394 107.532 115.789 107.532 117.272 108.385Z" fill="white"/>
<path d="M114.62 112.328C113.613 112.328 112.605 112.105 111.838 111.664C111.054 111.209 110.621 110.597 110.621 109.932C110.621 109.272 111.045 108.664 111.821 108.209C113.351 107.322 115.841 107.322 117.376 108.209C118.16 108.664 118.593 109.276 118.597 109.941C118.597 110.601 118.173 111.214 117.397 111.664C116.63 112.105 115.623 112.328 114.62 112.328ZM114.594 107.948C113.664 107.948 112.734 108.154 112.027 108.565C111.384 108.938 111.028 109.422 111.028 109.932C111.028 110.442 111.388 110.931 112.044 111.308C113.467 112.131 115.773 112.131 117.187 111.308C117.83 110.935 118.186 110.451 118.186 109.941C118.186 109.431 117.826 108.938 117.17 108.561C116.458 108.154 115.524 107.948 114.594 107.948Z" fill="#DBDEE4"/>
<path d="M114.615 110.914C114.036 110.914 113.479 110.781 113.081 110.554C112.764 110.369 112.579 110.142 112.579 109.932C112.579 109.727 112.759 109.499 113.072 109.319C113.466 109.092 114.024 108.959 114.598 108.959C115.176 108.959 115.734 109.092 116.132 109.319C116.449 109.504 116.634 109.731 116.634 109.941C116.634 110.147 116.454 110.374 116.141 110.554C115.746 110.781 115.189 110.914 114.615 110.914Z" fill="#FF1091"/>
<path d="M127.657 118.336C127.035 118.336 126.435 118.195 126.011 117.951C125.668 117.754 125.471 117.509 125.471 117.286C125.471 117.064 125.664 116.824 125.998 116.626C126.422 116.382 127.018 116.241 127.64 116.241C128.261 116.241 128.861 116.382 129.285 116.626C129.628 116.824 129.825 117.068 129.825 117.295C129.825 117.518 129.632 117.758 129.298 117.955C128.874 118.195 128.278 118.336 127.657 118.336Z" fill="#373B42"/>
<path d="M44.8445 83.2573C44.0473 82.797 44.0473 81.3045 44.8445 79.9237L62.9535 48.5579C63.7508 47.1771 65.0433 46.4308 65.8405 46.8911C66.6377 47.3514 66.6377 48.8439 65.8405 50.2247L47.7315 81.5905C46.9342 82.9713 45.6417 83.7175 44.8445 83.2573Z" fill="#FF1091"/>
<path d="M65.8405 71.1352C66.6377 69.7544 66.6377 68.2619 65.8405 67.8017L47.7314 57.3464C46.9342 56.8861 45.6417 57.6324 44.8445 59.0132C44.0473 60.394 44.0473 61.8865 44.8445 62.3467L62.9535 72.802C63.7507 73.2623 65.0433 72.516 65.8405 71.1352Z" fill="#FF1091"/>
<path d="M183.271 87.1142C184.068 86.6539 184.068 85.1614 183.271 83.7806L165.162 52.4148C164.365 51.034 163.072 50.2878 162.275 50.7481C161.478 51.2083 161.478 52.7008 162.275 54.0816L180.384 85.4474C181.181 86.8282 182.474 87.5745 183.271 87.1142Z" fill="#FF1091"/>
<path d="M162.275 74.9921C161.478 73.6113 161.478 72.1189 162.275 71.6586L180.384 61.2033C181.181 60.7431 182.474 61.4893 183.271 62.8701C184.068 64.2509 184.068 65.7434 183.271 66.2037L165.162 76.6589C164.365 77.1192 163.072 76.373 162.275 74.9921Z" fill="#FF1091"/>
<defs>
<linearGradient id="paint0_linear_810_9569" x1="180.259" y1="200.647" x2="180.259" y2="165.462" gradientUnits="userSpaceOnUse">
<stop offset="0.0334" stop-color="#FF1091" stop-opacity="0.9"/>
<stop offset="0.1206" stop-color="#FF1091" stop-opacity="0.8188"/>
<stop offset="0.3607" stop-color="#FF1091" stop-opacity="0.5952"/>
<stop offset="0.5773" stop-color="#FF1091" stop-opacity="0.3935"/>
<stop offset="0.7627" stop-color="#FF1091" stop-opacity="0.2209"/>
<stop offset="0.9098" stop-color="#FF1091" stop-opacity="0.084"/>
<stop offset="1" stop-color="white" stop-opacity="0"/>
</linearGradient>
</defs>
</svg>
