<svg width="441" height="490" viewBox="0 0 441 490" fill="none" xmlns="http://www.w3.org/2000/svg">
<path d="M215.13 489.88C215.04 489.92 214.91 489.95 214.75 489.97C214.59 489.99 214.38 490 214.13 490C213.89 490 213.69 489.99 213.53 489.97C213.37 489.95 213.24 489.92 213.15 489.88" fill="black"/>
<path d="M138.4 312.95C138.25 312.95 138.11 312.87 138.03 312.74C137.91 312.54 137.98 312.27 138.18 312.15L356.68 185.19C356.88 185.07 357.15 185.14 357.27 185.35C357.39 185.55 357.32 185.82 357.12 185.94L138.62 312.9C138.55 312.93 138.47 312.95 138.4 312.95Z" fill="#DBDEE4"/>
<path d="M371.56 293.53C371.41 293.53 371.27 293.45 371.19 293.32C371.07 293.12 371.14 292.85 371.34 292.73L436.22 254.72C438.1 253.63 439.22 251.68 439.21 249.51C439.21 247.34 438.08 245.39 436.2 244.31L363.59 202.39C363.39 202.27 363.32 202.01 363.43 201.8C363.55 201.59 363.82 201.52 364.02 201.64L436.63 243.56C438.78 244.8 440.06 247.02 440.07 249.5C440.07 251.98 438.79 254.21 436.65 255.45L371.77 293.46C371.71 293.51 371.63 293.53 371.56 293.53Z" fill="#DBDEE4"/>
<path d="M253.49 243.22C252.19 243.22 250.93 243.52 250.04 244.03C249.32 244.44 248.91 244.95 248.91 245.42C248.91 245.89 249.31 246.39 250.02 246.8C250.91 247.31 252.16 247.61 253.45 247.61C254.75 247.61 256 247.31 256.9 246.8C257.62 246.39 258.03 245.88 258.03 245.4C258.03 244.93 257.63 244.43 256.92 244.02C256.04 243.52 254.79 243.22 253.49 243.22Z" fill="#373B42"/>
<path d="M333.02 161.05C332.95 161.05 332.87 161.03 332.8 160.99L240.4 107.25C240.2 107.13 240.13 106.87 240.25 106.66C240.37 106.45 240.63 106.38 240.84 106.5L333.24 160.24C333.44 160.36 333.51 160.62 333.39 160.83C333.31 160.98 333.17 161.05 333.02 161.05Z" fill="#DBDEE4"/>
<path d="M249.79 106.47C252.89 108.26 252.91 111.17 249.83 112.96C246.75 114.75 241.73 114.75 238.63 112.96C235.53 111.17 235.51 108.26 238.59 106.47C241.68 104.67 246.69 104.67 249.79 106.47Z" fill="white"/>
<path d="M244.24 114.72C242.13 114.72 240.03 114.26 238.42 113.33C236.78 112.38 235.87 111.09 235.87 109.7C235.87 108.32 236.76 107.04 238.38 106.09C241.58 104.23 246.79 104.23 250.01 106.09C251.65 107.04 252.56 108.33 252.56 109.72C252.56 111.1 251.67 112.38 250.05 113.32C248.45 114.26 246.34 114.72 244.24 114.72ZM244.18 105.55C242.23 105.55 240.28 105.98 238.8 106.84C237.45 107.62 236.71 108.64 236.71 109.7C236.71 110.77 237.46 111.79 238.83 112.58C241.81 114.3 246.64 114.3 249.6 112.58C250.95 111.8 251.69 110.78 251.69 109.72C251.69 108.65 250.93 107.62 249.57 106.83C248.09 105.98 246.13 105.55 244.18 105.55Z" fill="#DBDEE4"/>
<path d="M244.23 111.76C243.02 111.76 241.85 111.48 241.02 111C240.35 110.61 239.97 110.14 239.97 109.7C239.97 109.26 240.35 108.8 241 108.42C241.82 107.94 242.99 107.67 244.2 107.67C245.41 107.67 246.58 107.95 247.41 108.43C248.08 108.82 248.46 109.29 248.46 109.73C248.46 110.17 248.09 110.63 247.43 111.01C246.6 111.48 245.44 111.76 244.23 111.76Z" fill="#FF1091"/>
<path d="M268.39 124.66C267.09 124.66 265.83 124.36 264.94 123.85C264.22 123.44 263.81 122.93 263.81 122.45C263.81 121.98 264.21 121.48 264.92 121.07C265.81 120.56 267.06 120.26 268.35 120.26C269.65 120.26 270.9 120.56 271.8 121.07C272.52 121.48 272.93 121.99 272.93 122.47C272.93 122.94 272.53 123.44 271.82 123.85C270.94 124.37 269.69 124.66 268.39 124.66Z" fill="#373B42"/>
<g opacity="0.1">
<path d="M314.48 167.12C289.89 181.31 289.76 204.32 314.2 218.52C338.64 232.72 378.38 232.71 402.97 218.52C427.57 204.32 427.72 181.31 403.28 167.11C378.84 152.92 339.08 152.93 314.48 167.12Z" fill="black"/>
</g>
<path d="M421.23 182.61C421.25 191.94 415.1 201.29 402.75 208.4C393.19 213.92 381.35 217.28 369 218.48C362.15 219.17 355.14 219.17 348.3 218.52C335.83 217.34 323.89 213.96 314.31 208.4C302.21 201.37 296.15 192.19 296.13 182.98L296.09 160.31C296.11 169.54 302.16 178.72 314.27 185.75C323.87 191.33 335.83 194.71 348.3 195.87C355.15 196.52 362.16 196.52 369 195.83C381.33 194.63 393.17 191.25 402.71 185.75C415.04 178.66 421.19 169.33 421.19 159.98L421.23 182.61Z" fill="#BEC4CD"/>
<path d="M369 195.83V218.48C362.15 219.17 355.14 219.17 348.3 218.52V195.87C355.14 196.52 362.15 196.52 369 195.83Z" fill="#F0F2F5"/>
<path d="M358.46 219.41C342.36 219.41 326.29 215.86 314.08 208.77C302.25 201.9 295.71 192.73 295.69 182.97L295.65 160.32C295.65 160.08 295.84 159.89 296.08 159.89C296.32 159.89 296.51 160.08 296.51 160.32C296.54 169.77 302.92 178.67 314.48 185.38C338.66 199.43 378.15 199.43 402.5 185.38C414.29 178.58 420.77 169.56 420.77 159.99V159.95C420.77 159.71 420.96 159.52 421.2 159.52C421.44 159.52 421.63 159.71 421.63 159.95C421.63 159.97 421.63 159.98 421.63 160L421.67 182.61C421.7 192.52 415.06 201.81 402.98 208.78C390.67 215.87 374.56 219.41 358.46 219.41ZM296.52 166.38L296.55 182.97C296.58 192.42 302.96 201.32 314.52 208.03C338.71 222.08 378.19 222.08 402.54 208.03C414.34 201.22 420.83 192.19 420.81 182.6L420.78 166.07C418.64 173.64 412.49 180.61 402.93 186.12C378.34 200.31 338.47 200.31 314.05 186.12C304.7 180.69 298.66 173.84 296.52 166.38Z" fill="#373B42"/>
<path d="M314.54 134.53C290.04 148.67 289.91 171.6 314.26 185.74C338.61 199.88 378.21 199.88 402.71 185.74C427.22 171.6 427.37 148.66 403.02 134.52C378.67 120.38 339.05 120.39 314.54 134.53Z" fill="white"/>
<path d="M358.42 196.76C342.32 196.76 326.25 193.21 314.04 186.12C302.17 179.22 295.63 170.02 295.65 160.22C295.66 150.35 302.3 141.1 314.32 134.16C338.92 119.96 378.8 119.96 403.23 134.15C415.1 141.04 421.62 150.23 421.61 160.03C421.6 169.9 414.96 179.16 402.92 186.11C390.63 193.21 374.52 196.76 358.42 196.76ZM358.85 124.36C342.9 124.36 326.94 127.87 314.75 134.9C303 141.68 296.52 150.67 296.51 160.22C296.5 169.7 302.88 178.64 314.48 185.37C338.66 199.42 378.15 199.42 402.5 185.37C414.27 178.58 420.75 169.58 420.77 160.03C420.78 150.55 414.41 141.63 402.81 134.89C390.71 127.87 374.79 124.36 358.85 124.36Z" fill="#373B42"/>
<path d="M385.73 136.89L376.55 152.61C376.4 152.85 376.23 153.03 376.03 153.15L353.96 165.96C354.16 165.84 354.35 165.67 354.48 165.44L363.66 149.72L385.73 136.89Z" fill="#373B42"/>
<path d="M353.96 166.38C353.81 166.38 353.67 166.3 353.59 166.17C353.47 165.97 353.54 165.7 353.74 165.58C353.9 165.49 354.02 165.36 354.11 165.22L363.29 149.5C363.33 149.44 363.38 149.38 363.44 149.35L385.51 136.53C385.68 136.43 385.89 136.46 386.03 136.6C386.17 136.74 386.2 136.95 386.1 137.12L376.92 152.84C376.71 153.17 376.49 153.39 376.24 153.53L354.17 166.34C354.11 166.37 354.04 166.38 353.96 166.38ZM363.97 150.03L355.48 164.58L375.82 152.78C375.95 152.71 376.07 152.58 376.2 152.38L384.55 138.08L363.97 150.03Z" fill="#373B42"/>
<path d="M439.65 108.96C439.6 122.97 434.33 132.82 425.51 137.94L403.42 150.77C412.26 145.64 417.53 135.8 417.58 121.79C417.68 88.7397 388.46 44.9997 352.36 24.1697C331.55 12.1597 312.98 10.3797 300.96 17.3597L323.05 4.52967C335.04 -2.45033 353.61 -0.650332 374.42 11.3397C410.53 32.1897 439.74 75.9097 439.65 108.96Z" fill="#F0F2F5"/>
<path d="M403.42 151.2C403.27 151.2 403.13 151.12 403.05 150.99C402.93 150.79 403 150.52 403.2 150.4C412.28 145.13 417.1 135.24 417.15 121.79C417.25 88.8997 388.08 45.2797 352.14 24.5497C332.16 13.0097 313.58 10.5297 301.18 17.7397C300.97 17.8597 300.71 17.7897 300.59 17.5797C300.47 17.3797 300.54 17.1097 300.74 16.9897L322.83 4.15967C335.47 -3.20033 354.35 -0.710331 374.63 10.9697C410.81 31.8597 440.16 75.8197 440.07 108.96C440.02 122.73 435.06 132.88 425.72 138.31L403.63 151.14C403.57 151.18 403.5 151.2 403.42 151.2ZM317.56 12.8297C327.93 12.8297 339.99 16.5397 352.58 23.8097C388.76 44.6797 418.11 88.6297 418.02 121.8C417.98 132.62 414.91 141.2 409.06 147.02L425.3 137.58C434.36 132.31 439.18 122.41 439.23 108.97C439.33 76.0997 410.16 32.4797 374.22 11.7297C354.21 0.19967 335.65 -2.28033 323.28 4.91967L307.21 14.2597C310.4 13.2897 313.88 12.8297 317.56 12.8297Z" fill="#373B42"/>
<path d="M439.65 108.96C439.6 122.97 434.33 132.82 425.51 137.94L403.42 150.77C412.26 145.64 417.53 135.8 417.58 121.79" fill="#DBDEE4"/>
<path d="M403.42 151.2C403.27 151.2 403.13 151.12 403.05 150.99C402.93 150.79 403 150.52 403.2 150.4L403.24 150.38C412.29 145.11 417.11 135.22 417.15 121.79C417.15 121.55 417.34 121.36 417.58 121.36C417.82 121.36 418.01 121.55 418.01 121.79C417.97 132.61 414.9 141.19 409.05 147.01L425.29 137.57C434.35 132.3 439.17 122.4 439.22 108.96C439.22 108.72 439.41 108.53 439.65 108.53C439.89 108.53 440.08 108.72 440.08 108.96C440.03 122.73 435.07 132.88 425.73 138.31L403.68 151.12C403.67 151.13 403.66 151.13 403.64 151.14C403.57 151.18 403.5 151.2 403.42 151.2Z" fill="#373B42"/>
<path d="M352.36 24.1697C388.47 45.0097 417.67 88.7297 417.57 121.79C417.49 151.23 394.23 162.31 363.66 149.71L354.48 165.43C353.95 166.31 352.96 166.33 351.96 165.75C350.96 165.18 349.97 164.01 349.45 162.52L340.39 136.28C309.85 113.61 286.73 75.7697 286.81 46.3297C286.92 13.2697 316.27 3.33967 352.36 24.1697Z" fill="white"/>
<path d="M353.24 166.57C352.78 166.57 352.27 166.42 351.75 166.13C350.58 165.46 349.57 164.16 349.05 162.68L340.03 136.56C308.86 113.38 286.31 75.4597 286.39 46.3497C286.43 32.5397 291.43 22.3697 300.85 16.9497C313.53 9.65967 332.38 12.1597 352.57 23.8197C388.74 44.6897 418.09 88.6497 418 121.81C417.96 134.81 413.49 144.65 405.06 150.28C394.98 157 380.36 157 363.85 150.27L354.86 165.67C354.49 166.25 353.92 166.57 353.24 166.57ZM317.56 13.6797C311.44 13.6797 305.93 14.9997 301.28 17.6797C292.14 22.9397 287.29 32.8497 287.25 46.3397C287.17 75.2297 309.63 112.92 340.65 135.94C340.72 135.99 340.77 136.06 340.8 136.14L349.86 162.38C350.31 163.66 351.2 164.81 352.18 165.37C352.59 165.61 353.6 166.06 354.12 165.2L363.3 149.48C363.41 149.29 363.64 149.21 363.83 149.3C380.21 156.05 394.69 156.13 404.59 149.53C412.77 144.07 417.11 134.47 417.15 121.78C417.24 88.8897 388.08 45.2697 352.15 24.5297C339.69 17.3497 327.77 13.6797 317.56 13.6797Z" fill="#373B42"/>
<path d="M350.39 40.2797C327.25 28.0297 308.43 37.8697 308.36 62.2197C308.29 86.5697 326.98 116.25 350.12 128.49C373.26 140.74 392.04 130.88 392.12 106.53C392.2 82.1797 373.53 52.5197 350.39 40.2797ZM329.29 65.4097C329.31 61.6497 332.21 60.1297 335.8 62.0197C339.36 63.9097 342.25 68.4997 342.25 72.2597C342.23 76.0197 339.33 77.5597 335.76 75.6697C332.17 73.7597 329.29 69.1697 329.29 65.4097ZM350.17 112.93C342.18 108.71 335.62 98.9497 334.65 90.3097C334.53 89.1797 335.35 88.6897 336.36 89.2197L364.06 103.88C365.05 104.43 365.87 105.77 365.74 106.76C364.72 114.34 358.12 117.14 350.17 112.93ZM364.74 91.0097C361.18 89.1197 358.27 84.5097 358.29 80.7497C358.29 76.9897 361.21 75.4697 364.8 77.3597C368.36 79.2497 371.25 83.8397 371.25 87.5997C371.23 91.3597 368.33 92.8997 364.74 91.0097Z" fill="#FF1091"/>
<path d="M200.26 392.47C199.3 392.47 198.35 392.22 197.5 391.73L150.36 364.49C150.15 364.37 150.09 364.11 150.2 363.9C150.32 363.69 150.59 363.62 150.79 363.74L197.93 390.98C199.37 391.81 201.17 391.81 202.61 390.97L249.43 363.73C249.63 363.61 249.9 363.68 250.02 363.89C250.14 364.09 250.07 364.36 249.87 364.48L203.05 391.72C202.18 392.22 201.22 392.47 200.26 392.47Z" fill="#DBDEE4"/>
<path d="M242.07 361.37C238.97 363.16 238.95 366.07 242.03 367.86C245.11 369.65 250.13 369.65 253.23 367.86C256.33 366.07 256.35 363.16 253.27 361.37C250.18 359.58 245.17 359.58 242.07 361.37Z" fill="white"/>
<path d="M247.62 369.63C245.52 369.63 243.41 369.17 241.81 368.24C240.19 367.3 239.3 366.02 239.3 364.64C239.3 363.25 240.21 361.96 241.85 361.01C245.07 359.15 250.28 359.15 253.48 361.01C255.1 361.95 255.99 363.24 255.99 364.62C255.99 366.01 255.08 367.3 253.44 368.25C251.84 369.16 249.73 369.63 247.62 369.63ZM247.67 360.45C245.72 360.45 243.77 360.88 242.28 361.74C240.91 362.53 240.16 363.56 240.16 364.63C240.16 365.69 240.9 366.71 242.25 367.49C245.21 369.21 250.04 369.21 253.02 367.49C254.39 366.7 255.14 365.68 255.14 364.6C255.14 363.54 254.4 362.52 253.05 361.74C251.57 360.88 249.62 360.45 247.67 360.45Z" fill="#DBDEE4"/>
<path d="M247.63 366.66C248.84 366.66 250.01 366.38 250.84 365.9C251.51 365.51 251.89 365.04 251.89 364.6C251.89 364.16 251.51 363.7 250.86 363.32C250.04 362.84 248.87 362.57 247.66 362.57C246.45 362.57 245.28 362.85 244.45 363.33C243.78 363.72 243.4 364.19 243.4 364.63C243.4 365.07 243.77 365.53 244.43 365.91C245.26 366.39 246.42 366.66 247.63 366.66Z" fill="#FF1091"/>
<path d="M220.69 382.73C221.99 382.73 223.25 382.43 224.14 381.92C224.86 381.51 225.27 381 225.27 380.52C225.27 380.05 224.87 379.55 224.16 379.14C223.27 378.63 222.02 378.33 220.73 378.33C219.43 378.33 218.18 378.63 217.28 379.14C216.56 379.55 216.15 380.06 216.15 380.54C216.15 381.01 216.55 381.51 217.26 381.92C218.14 382.43 219.39 382.73 220.69 382.73Z" fill="#373B42"/>
<path d="M190.19 427.77C190.12 427.77 190.04 427.75 189.97 427.71L97.5702 373.97C97.3702 373.85 97.3002 373.59 97.4202 373.38C97.5402 373.17 97.8002 373.11 98.0102 373.22L190.41 426.96C190.61 427.08 190.68 427.34 190.56 427.55C190.48 427.69 190.33 427.77 190.19 427.77Z" fill="#DBDEE4"/>
<path d="M186.82 430.58C183.72 428.79 183.7 425.88 186.78 424.09C189.86 422.3 194.88 422.3 197.98 424.09C201.08 425.88 201.1 428.79 198.02 430.58C194.93 432.37 189.92 432.37 186.82 430.58Z" fill="white"/>
<path d="M192.42 432.35C190.32 432.35 188.21 431.89 186.6 430.96C184.96 430.01 184.05 428.72 184.05 427.33C184.05 425.95 184.94 424.67 186.56 423.73C189.76 421.87 194.97 421.87 198.19 423.73C199.83 424.68 200.74 425.97 200.74 427.36C200.74 428.74 199.85 430.02 198.23 430.97C196.63 431.88 194.53 432.35 192.42 432.35ZM192.37 423.17C190.42 423.17 188.47 423.6 187 424.46C185.65 425.24 184.91 426.26 184.91 427.32C184.91 428.39 185.67 429.42 187.03 430.21C190.01 431.93 194.84 431.93 197.8 430.21C199.15 429.43 199.89 428.41 199.89 427.35C199.89 426.28 199.14 425.26 197.77 424.47C196.27 423.6 194.32 423.17 192.37 423.17Z" fill="#DBDEE4"/>
<path d="M192.38 425.29C193.59 425.29 194.76 425.57 195.59 426.05C196.26 426.44 196.64 426.91 196.64 427.35C196.64 427.79 196.26 428.25 195.61 428.63C194.79 429.11 193.62 429.38 192.41 429.38C191.2 429.38 190.03 429.1 189.2 428.62C188.53 428.23 188.15 427.76 188.15 427.32C188.15 426.88 188.52 426.42 189.18 426.04C190.01 425.56 191.17 425.29 192.38 425.29Z" fill="#FF1091"/>
<path d="M168.21 412.39C169.51 412.39 170.77 412.69 171.66 413.2C172.38 413.61 172.79 414.12 172.79 414.6C172.79 415.07 172.39 415.57 171.68 415.98C170.79 416.49 169.54 416.79 168.25 416.79C166.95 416.79 165.7 416.49 164.8 415.98C164.08 415.57 163.67 415.06 163.67 414.58C163.67 414.11 164.07 413.61 164.78 413.2C165.67 412.68 166.92 412.39 168.21 412.39Z" fill="#373B42"/>
<g opacity="0.1">
<path d="M182.47 355.47L38.7902 438.4C35.8402 440.1 32.2102 440.09 29.2702 438.39L5.47021 424.56C1.66021 422.35 1.67021 416.84 5.48021 414.64L151.01 330.6C152.79 329.57 154.98 329.58 156.76 330.61L182.48 345.56C186.3 347.76 186.29 353.27 182.47 355.47Z" fill="black"/>
</g>
<path d="M157.72 1.31967C155.37 -0.040329 152.07 0.159671 148.46 2.24967L13.4202 80.2297C11.2402 81.4897 9.20021 83.2697 7.41021 85.3997C6.24021 86.7597 5.16021 88.2797 4.24021 89.8697C3.32021 91.4597 2.54021 93.1097 1.93021 94.8097C0.950209 97.4697 0.410209 100.19 0.430209 102.73L1.28021 400.96C1.28021 405.09 2.72021 407.98 5.06021 409.33L32.2702 425.12C29.9202 423.76 28.4502 420.86 28.4602 416.75L27.6002 118.51C27.5802 115.92 28.1402 113.19 29.1502 110.51C29.7602 108.81 30.5602 107.17 31.4802 105.58C32.4002 103.99 33.4602 102.48 34.6502 101.11C36.4302 98.9997 38.4702 97.2297 40.6202 95.9797L175.63 18.0397C179.28 15.9497 182.54 15.7497 184.94 17.1397L157.72 1.31967Z" fill="#BEC4CD"/>
<path d="M34.6402 101.12L7.40021 85.3997C6.23021 86.7597 5.15021 88.2797 4.23021 89.8697C3.31021 91.4597 2.53021 93.1097 1.92021 94.8097L29.1302 110.52C29.7402 108.82 30.5402 107.18 31.4602 105.59C32.3902 104 33.4502 102.49 34.6402 101.12Z" fill="#F0F2F5"/>
<path d="M32.2602 425.57C32.1902 425.57 32.1102 425.55 32.0502 425.51L4.85021 409.71C2.27021 408.22 0.850213 405.11 0.850213 400.97L0.000214381 102.74C-0.0197856 98.6397 1.36021 93.9897 3.88021 89.6497C6.37021 85.3797 9.68021 81.8897 13.2102 79.8497L148.25 1.87967C151.89 -0.230328 155.33 -0.560329 157.95 0.959671L185.16 16.7697C185.36 16.8897 185.43 17.1497 185.32 17.3597C185.2 17.5697 184.93 17.6297 184.73 17.5197C182.39 16.1697 179.24 16.4997 175.86 18.4297L40.8202 96.3697C37.4302 98.3297 34.2402 101.68 31.8402 105.8C29.3702 110.05 28.0102 114.57 28.0302 118.52L28.8802 416.75C28.8702 420.56 30.1302 423.4 32.4502 424.75L32.4702 424.76C32.4702 424.76 32.4702 424.76 32.4802 424.76C32.6802 424.88 32.7502 425.14 32.6402 425.35C32.5502 425.49 32.4002 425.57 32.2602 425.57ZM154.31 0.879671C152.59 0.879671 150.67 1.46967 148.67 2.62967L13.6302 80.5997C10.2302 82.5697 7.03022 85.9397 4.61022 90.0897C2.16022 94.2997 0.820215 98.7897 0.840215 102.74L1.69021 400.97C1.69021 404.8 2.96022 407.64 5.27022 408.97L29.5602 423.08C28.5402 421.45 28.0102 419.3 28.0202 416.76L27.1702 118.53C27.1502 114.42 28.5502 109.75 31.1002 105.37C33.5702 101.12 36.8802 97.6597 40.4002 95.6297L175.43 17.6697C177.7 16.3697 179.9 15.7597 181.85 15.8297L157.51 1.69967C156.56 1.14967 155.48 0.879671 154.31 0.879671Z" fill="#373B42"/>
<path d="M167.16 23.3597C167.09 23.3597 167.01 23.3397 166.95 23.2997L139.68 7.55967C139.48 7.43967 139.41 7.17967 139.52 6.96967C139.64 6.75967 139.91 6.68967 140.11 6.80967L167.38 22.5497C167.58 22.6697 167.65 22.9297 167.54 23.1397C167.45 23.2897 167.31 23.3597 167.16 23.3597Z" fill="#373B42"/>
<path d="M14.6202 154.3C13.4702 153.66 12.4302 153.58 11.6902 154.01L8.92021 155.6C9.68021 155.18 10.7102 155.25 11.8502 155.89C14.1402 157.21 15.9902 160.43 16.0002 163.08V186.25C15.9902 187.6 15.5202 188.53 14.7702 188.98L17.5402 187.39C18.3002 186.94 18.7602 186.02 18.7702 184.66V161.49C18.7602 158.84 16.9102 155.62 14.6202 154.3Z" fill="#373B42"/>
<path d="M14.7602 189.4C14.6102 189.4 14.4702 189.32 14.3902 189.19C14.2702 188.99 14.3402 188.73 14.5402 188.61C15.1902 188.23 15.5602 187.39 15.5602 186.25V163.08C15.5502 160.57 13.7902 157.51 11.6202 156.26C10.6502 155.72 9.76021 155.62 9.11021 155.98C8.91021 156.09 8.65021 156.02 8.53021 155.81C8.41021 155.6 8.49021 155.34 8.69021 155.23L11.4602 153.64C12.3602 153.12 13.5502 153.23 14.8102 153.93C14.8102 153.93 14.8102 153.93 14.8202 153.93C17.2202 155.31 19.1802 158.71 19.1802 161.49V184.66C19.1702 186.12 18.6502 187.21 17.7302 187.76L14.9602 189.35C14.9102 189.39 14.8402 189.4 14.7602 189.4ZM10.8102 155.01C11.2202 155.11 11.6302 155.28 12.0602 155.51C14.5002 156.92 16.4202 160.24 16.4302 163.08V186.25C16.4302 186.76 16.3602 187.22 16.2402 187.64L17.3202 187.02C17.9702 186.64 18.3302 185.8 18.3402 184.66V161.49C18.3302 158.98 16.5702 155.92 14.4102 154.67C13.4202 154.12 12.5302 154.02 11.9002 154.38L10.8102 155.01Z" fill="#373B42"/>
<path d="M15.9902 163.08C15.9902 160.42 14.1302 157.2 11.8402 155.89C9.55022 154.57 7.69022 155.66 7.69022 158.32V181.5C7.69022 184.16 9.55022 187.38 11.8402 188.69C14.1302 190.01 15.9902 188.92 15.9902 186.26V163.08Z" fill="white"/>
<path d="M13.6902 189.68C13.0502 189.68 12.3502 189.47 11.6302 189.06C9.22021 187.68 7.26021 184.29 7.26021 181.5V158.32C7.26021 156.87 7.77021 155.78 8.70021 155.24C9.62021 154.7 10.8102 154.8 12.0602 155.52C14.4702 156.9 16.4302 160.29 16.4302 163.08V186.26C16.4302 187.71 15.9202 188.8 14.9902 189.34C14.6002 189.56 14.1602 189.68 13.6902 189.68ZM10.0002 155.76C9.68021 155.76 9.38021 155.83 9.12021 155.98C8.47021 156.36 8.11021 157.19 8.11021 158.32V181.5C8.11021 184.02 9.88021 187.07 12.0502 188.32C13.0202 188.88 13.9102 188.97 14.5502 188.6C15.2002 188.22 15.5602 187.39 15.5602 186.26V163.08C15.5602 160.57 13.7902 157.51 11.6202 156.26C11.0502 155.93 10.4902 155.76 10.0002 155.76Z" fill="#373B42"/>
<path d="M18.9502 285.22C18.9502 282.34 16.9402 278.85 14.4502 277.42C11.9602 275.99 9.95021 277.17 9.95021 280.05L9.96021 336.01C9.96021 338.89 11.9702 342.38 14.4602 343.81C16.9502 345.24 18.9602 344.06 18.9602 341.18L18.9502 285.22Z" fill="#F0F2F5"/>
<path d="M16.4302 283.83C16.4302 285.08 15.5502 285.58 14.4702 284.96C13.3802 284.33 12.5102 282.83 12.5102 281.58C12.5102 280.3 13.3802 279.79 14.4702 280.42C15.5502 281.04 16.4302 282.55 16.4302 283.83Z" fill="#373B42"/>
<path d="M41.5402 424.22C34.3302 428.38 28.4702 425.05 28.4502 416.76L27.6002 118.53C27.5802 110.24 33.3902 100.16 40.6102 95.9997L175.64 18.0397C182.85 13.8797 188.71 17.2097 188.73 25.4997L189.58 323.73C189.6 332.02 183.79 342.1 176.57 346.26L41.5402 424.22Z" fill="#373B42"/>
<path d="M35.6802 426.45C34.3602 426.45 33.1402 426.14 32.0602 425.52C29.4602 424.03 28.0302 420.92 28.0202 416.76L27.1702 118.53C27.1502 110.12 33.0802 99.8497 40.3902 95.6297L175.42 17.6597C179.06 15.5597 182.5 15.2297 185.11 16.7297C187.71 18.2197 189.14 21.3297 189.15 25.4897L190 323.72C190.02 332.12 184.09 342.4 176.78 346.62L41.7602 424.59C39.6202 425.82 37.5502 426.45 35.6802 426.45ZM181.5 16.6697C179.78 16.6697 177.86 17.2497 175.86 18.4097L40.8202 96.3797C33.7402 100.47 28.0002 110.41 28.0302 118.54L28.8802 416.77C28.8902 420.6 30.1702 423.45 32.4902 424.79C34.8302 426.13 37.9602 425.81 41.3302 423.86L176.36 345.9C183.44 341.81 189.18 331.87 189.15 323.74L188.3 25.4997C188.29 21.6697 187.01 18.8197 184.69 17.4797C183.74 16.9397 182.67 16.6697 181.5 16.6697Z" fill="#373B42"/>
<path d="M183.65 19.2997C185.26 20.2297 186.2 22.4997 186.21 25.5097L187.06 323.74C187.07 327.31 185.85 331.41 183.61 335.29C181.38 339.16 178.43 342.28 175.31 344.09L40.2902 422.04C37.6402 423.57 35.1802 423.91 33.5302 422.97C31.9202 422.04 30.9802 419.77 30.9702 416.76L30.1202 118.53C30.1102 114.96 31.3302 110.86 33.5702 106.98C35.8002 103.11 38.7502 99.9897 41.8702 98.1797L176.9 20.2197C179.54 18.6897 182.01 18.3497 183.65 19.2997Z" fill="white"/>
<path d="M35.6802 423.92C34.8002 423.92 34.0002 423.73 33.3202 423.34C31.5602 422.33 30.5502 419.93 30.5502 416.76L29.7002 118.53C29.6902 114.88 30.9402 110.7 33.2102 106.76C35.4802 102.83 38.4802 99.6497 41.6602 97.8097L176.69 19.8497C179.48 18.2397 182.1 17.8997 183.87 18.9197C185.62 19.9297 186.64 22.3297 186.64 25.4997L187.49 323.73C187.5 327.38 186.26 331.56 183.98 335.5C181.71 339.43 178.71 342.61 175.53 344.45L40.5002 422.41C38.7702 423.41 37.1102 423.92 35.6802 423.92ZM181.5 19.1897C180.22 19.1897 178.71 19.6597 177.11 20.5897L42.0802 98.5497C39.0302 100.32 36.1402 103.39 33.9402 107.19C31.7402 111 30.5302 115.03 30.5402 118.53L31.3902 416.76C31.4002 419.61 32.2502 421.74 33.7402 422.6C35.2402 423.47 37.5502 423.13 40.0702 421.68L175.1 343.72C178.15 341.95 181.04 338.88 183.24 335.08C185.44 331.27 186.65 327.24 186.63 323.74L185.78 25.4997C185.77 22.6497 184.92 20.5197 183.43 19.6597C182.89 19.3497 182.23 19.1897 181.5 19.1897Z" fill="#373B42"/>
<path d="M77.7402 93.1797C79.7502 92.0397 130.62 62.8397 132.98 61.4897C136.75 59.3197 139.82 54.0097 139.82 49.6597L139.81 41.7297C137.45 43.0797 73.5802 79.7297 70.8902 81.2697V89.1997C70.9102 93.5497 73.9702 95.3497 77.7402 93.1797Z" fill="#373B42"/>
<path d="M74.7202 94.5297C73.9902 94.5297 73.3102 94.3597 72.7102 94.0097C71.2702 93.1797 70.4802 91.4697 70.4802 89.1897V81.2597C70.4802 81.1097 70.5602 80.9597 70.7002 80.8897C73.3902 79.3497 137.26 42.6997 139.62 41.3497C139.75 41.2697 139.92 41.2697 140.05 41.3497C140.18 41.4297 140.26 41.5697 140.26 41.7197L140.27 49.6497C140.26 54.1497 137.1 59.6197 133.21 61.8597L125.63 66.2097C110.67 74.7997 79.5302 92.6597 77.9602 93.5497C76.8202 94.1997 75.7202 94.5297 74.7202 94.5297ZM71.3302 81.5197V89.1997C71.3302 91.1597 71.9702 92.5997 73.1302 93.2697C74.2902 93.9397 75.8502 93.7797 77.5202 92.8097C79.0802 91.9197 110.22 74.0497 125.19 65.4697L132.77 61.1197C136.42 59.0197 139.39 53.8797 139.4 49.6597L139.39 42.4697C132.41 46.4797 75.9802 78.8497 71.3302 81.5197Z" fill="#373B42"/>
<path d="M123.77 60.6597C124.55 59.3097 124.98 57.8697 124.98 56.6097C124.98 55.4797 124.64 54.6597 124.01 54.2897C123.39 53.9297 122.53 54.0397 121.57 54.5897L78.7602 79.1497C77.6702 79.7697 76.6402 80.8697 75.8602 82.2297C75.0702 83.5897 74.6402 85.0397 74.6402 86.2997C74.6402 87.4197 74.9802 88.2297 75.6002 88.5897C76.2202 88.9497 77.0902 88.8397 78.0502 88.2897L120.86 63.7397C121.96 63.1197 122.99 62.0197 123.77 60.6597Z" fill="white"/>
<path d="M134.87 54.2997C135.65 52.9497 136.08 51.5097 136.08 50.2497C136.08 49.1197 135.74 48.2997 135.11 47.9397C134.49 47.5797 133.63 47.6897 132.66 48.2397C131.57 48.8597 130.54 49.9597 129.76 51.3197C128.97 52.6797 128.54 54.1297 128.54 55.3897C128.54 56.5097 128.88 57.3197 129.5 57.6797C130.12 58.0397 130.99 57.9297 131.95 57.3797C133.05 56.7497 134.09 55.6597 134.87 54.2997Z" fill="white"/>
<path d="M133.84 53.6897C134.3 52.8897 134.56 52.0297 134.56 51.2797C134.56 50.6097 134.36 50.1197 133.99 49.8997C133.62 49.6897 133.11 49.7497 132.53 50.0797C131.88 50.4497 131.27 51.0997 130.8 51.9097C130.33 52.7197 130.07 53.5797 130.08 54.3297C130.08 54.9897 130.28 55.4797 130.65 55.6897C131.02 55.8997 131.54 55.8397 132.11 55.5097C132.76 55.1497 133.37 54.4997 133.84 53.6897Z" fill="#FF1091"/>
<path d="M139.6 29.5997C142.37 27.9997 142.35 25.3997 139.6 23.8097C136.81 22.1897 132.37 22.1897 129.6 23.7897C126.76 25.4297 126.74 28.0097 129.53 29.6297C132.27 31.2197 136.76 31.2397 139.6 29.5997Z" fill="#373B42"/>
<path d="M27.6502 138.32C27.5802 138.32 27.5002 138.3 27.4402 138.26L0.260221 122.57C0.0602211 122.45 -0.00977872 122.19 0.100221 121.98C0.220221 121.77 0.490221 121.7 0.690221 121.82L27.8702 137.51C28.0702 137.63 28.1402 137.89 28.0302 138.1C27.9402 138.24 27.8002 138.32 27.6502 138.32Z" fill="#373B42"/>
<path d="M28.4002 399.69C28.3302 399.69 28.2502 399.67 28.1902 399.63L1.01022 383.94C0.810221 383.82 0.740221 383.56 0.850221 383.35C0.970221 383.14 1.24022 383.08 1.44022 383.19L28.6202 398.88C28.8202 399 28.8902 399.26 28.7802 399.47C28.6902 399.61 28.5502 399.69 28.4002 399.69Z" fill="#373B42"/>
<path d="M60.1902 122.96C49.9002 128.89 41.5902 143.28 41.6202 155.09C41.6302 159.66 42.9002 163.16 45.0302 165.41C48.4102 168.99 54.0002 169.38 60.3102 165.74C66.6302 162.1 72.2002 155.27 75.5502 147.81C77.6602 143.12 78.9002 138.17 78.8902 133.6C78.8502 121.78 70.4902 117.02 60.1902 122.96Z" fill="#FF1091"/>
<path d="M60.1802 129.18C57.0702 130.98 54.5402 135.34 54.5502 138.92C54.5602 142.5 57.1002 143.94 60.2102 142.14C63.3302 140.34 65.8502 135.98 65.8402 132.4C65.8302 128.82 63.3002 127.38 60.1802 129.18Z" fill="white"/>
<path d="M60.2302 145.22C54.6702 148.43 49.7602 154.44 46.8102 161C49.7802 164.15 54.7102 164.5 60.2702 161.29C65.8302 158.08 70.7502 152.06 73.6902 145.5C70.7202 142.34 65.7902 142.01 60.2302 145.22Z" fill="white"/>
<path d="M60.1902 177.68C49.9002 183.61 41.5902 198 41.6202 209.81C41.6302 214.38 42.9002 217.88 45.0302 220.13C48.4102 223.71 54.0002 224.1 60.3102 220.46C66.6302 216.82 72.2002 209.99 75.5502 202.53C77.6602 197.84 78.9002 192.89 78.8902 188.32C78.8502 176.51 70.4902 171.75 60.1902 177.68Z" fill="#DBDEE4"/>
<path d="M60.1802 183.91C57.0702 185.71 54.5402 190.07 54.5502 193.65C54.5602 197.23 57.1002 198.67 60.2102 196.87C63.3302 195.07 65.8502 190.71 65.8402 187.13C65.8402 183.55 63.3002 182.11 60.1802 183.91Z" fill="white"/>
<path d="M60.2302 199.95C54.6702 203.16 49.7602 209.17 46.8102 215.73C49.7802 218.88 54.7102 219.23 60.2702 216.02C65.8302 212.81 70.7502 206.79 73.6902 200.23C70.7202 197.07 65.7902 196.74 60.2302 199.95Z" fill="white"/>
<path d="M60.1902 282.7C49.9002 288.63 41.5902 303.02 41.6202 314.83C41.6302 319.4 42.9002 322.9 45.0302 325.15C48.4102 328.73 54.0002 329.12 60.3102 325.48C66.6302 321.84 72.2002 315.01 75.5502 307.55C77.6602 302.86 78.9002 297.91 78.8902 293.34C78.8502 281.53 70.4902 276.76 60.1902 282.7Z" fill="#FF1091"/>
<path d="M60.1802 288.92C57.0702 290.72 54.5402 295.08 54.5502 298.66C54.5602 302.24 57.1002 303.68 60.2102 301.88C63.3302 300.08 65.8502 295.72 65.8402 292.14C65.8302 288.56 63.3002 287.12 60.1802 288.92Z" fill="white"/>
<path d="M60.2302 304.96C54.6702 308.17 49.7602 314.18 46.8102 320.74C49.7802 323.89 54.7102 324.24 60.2702 321.03C65.8302 317.82 70.7502 311.8 73.6902 305.24C70.7202 302.09 65.7902 301.75 60.2302 304.96Z" fill="white"/>
<path d="M160.94 181.74C150.65 187.67 142.34 202.06 142.37 213.87C142.38 218.44 143.65 221.94 145.78 224.19C149.16 227.77 154.75 228.16 161.06 224.52C167.37 220.88 172.95 214.05 176.3 206.59C178.41 201.9 179.65 196.95 179.64 192.38C179.61 180.56 171.24 175.8 160.94 181.74Z" fill="#FF1091"/>
<path d="M160.94 187.96C157.83 189.76 155.3 194.12 155.31 197.7C155.32 201.28 157.86 202.72 160.97 200.92C164.09 199.12 166.61 194.76 166.6 191.18C166.59 187.6 164.06 186.16 160.94 187.96Z" fill="white"/>
<path d="M160.98 204C155.42 207.21 150.51 213.22 147.56 219.78C150.53 222.93 155.46 223.28 161.02 220.07C166.58 216.86 171.5 210.84 174.44 204.28C171.48 201.12 166.55 200.79 160.98 204Z" fill="white"/>
<path d="M173.28 66.1197C174.26 65.5497 175.07 66.0097 175.07 67.1297L175.15 95.9497C175.15 97.0797 174.35 98.4497 173.37 99.0197L97.6602 142.73C96.6802 143.3 95.8902 142.85 95.8802 141.72L95.8602 134.27C95.8602 133.87 95.6602 133.61 95.3502 133.61L85.4902 133.39C84.8202 133.38 84.8102 132.28 85.4802 131.49L95.3102 119.91C95.6202 119.55 95.8102 119.07 95.8102 118.67L95.7902 112.9C95.7902 111.79 96.5702 110.41 97.5602 109.84L173.28 66.1197Z" fill="#F0F2F5"/>
<path d="M173.28 120.26C174.26 119.69 175.07 120.15 175.07 121.27L175.15 150.09C175.15 151.22 174.35 152.59 173.37 153.16L97.6602 196.87C96.6802 197.44 95.8902 196.99 95.8802 195.86L95.8602 188.41C95.8602 188.01 95.6602 187.75 95.3502 187.75L85.4902 187.53C84.8202 187.52 84.8102 186.42 85.4802 185.63L95.3102 174.05C95.6202 173.69 95.8102 173.21 95.8102 172.81L95.7902 167.04C95.7902 165.93 96.5702 164.55 97.5602 163.98L173.28 120.26Z" fill="#F0F2F5"/>
<path d="M173.28 227.24C174.26 226.67 175.07 227.13 175.07 228.25L175.15 257.07C175.15 258.2 174.35 259.57 173.37 260.14L97.6602 303.85C96.6802 304.42 95.8902 303.97 95.8802 302.84L95.8602 295.39C95.8602 294.99 95.6602 294.73 95.3502 294.73L85.4902 294.51C84.8202 294.5 84.8102 293.4 85.4802 292.61L95.3102 281.03C95.6202 280.67 95.8102 280.19 95.8102 279.79L95.7902 274.02C95.7902 272.91 96.5702 271.53 97.5602 270.96L173.28 227.24Z" fill="#F0F2F5"/>
<path d="M119.1 202.39C120.08 201.82 120.89 202.28 120.89 203.4L120.91 209.17C120.91 209.57 121.11 209.83 121.42 209.83L131.28 210.05C131.95 210.06 131.96 211.16 131.29 211.95L121.46 223.53C121.15 223.89 120.96 224.37 120.96 224.77L120.98 232.22C120.98 233.35 120.18 234.72 119.2 235.29L43.4902 279C42.5202 279.56 41.7202 279.12 41.7102 277.99L41.6302 249.17C41.6302 248.06 42.4302 246.67 43.4002 246.11L119.1 202.39Z" fill="#F0F2F5"/>
<path d="M102.89 116.74C102.74 116.74 102.6 116.66 102.52 116.53C102.4 116.32 102.47 116.06 102.68 115.94L167.74 78.3797C167.94 78.2597 168.21 78.3297 168.33 78.5397C168.45 78.7497 168.38 79.0097 168.17 79.1297L103.11 116.69C103.04 116.73 102.97 116.74 102.89 116.74Z" fill="#373B42"/>
<path d="M102.89 124.32C102.74 124.32 102.6 124.24 102.52 124.11C102.4 123.9 102.47 123.64 102.68 123.52L167.74 85.9597C167.94 85.8397 168.21 85.9097 168.33 86.1197C168.45 86.3297 168.38 86.5897 168.17 86.7097L103.11 124.27C103.04 124.3 102.97 124.32 102.89 124.32Z" fill="#373B42"/>
<path d="M102.89 131.9C102.74 131.9 102.6 131.82 102.52 131.69C102.4 131.48 102.47 131.22 102.68 131.1L145.97 106.11C146.17 105.99 146.43 106.06 146.56 106.27C146.68 106.48 146.61 106.74 146.4 106.86L103.11 131.85C103.04 131.88 102.97 131.9 102.89 131.9Z" fill="#373B42"/>
<path d="M102.89 170.2C102.74 170.2 102.6 170.12 102.52 169.99C102.4 169.78 102.47 169.52 102.68 169.4L167.74 131.84C167.94 131.72 168.21 131.79 168.33 132C168.45 132.21 168.38 132.47 168.17 132.59L103.11 170.15C103.04 170.18 102.97 170.2 102.89 170.2Z" fill="#373B42"/>
<path d="M102.89 177.77C102.74 177.77 102.6 177.69 102.52 177.56C102.4 177.35 102.47 177.09 102.68 176.97L167.74 139.41C167.94 139.29 168.21 139.36 168.33 139.57C168.45 139.78 168.38 140.04 168.17 140.16L103.11 177.72C103.04 177.75 102.97 177.77 102.89 177.77Z" fill="#373B42"/>
<path d="M102.89 185.35C102.74 185.35 102.6 185.27 102.52 185.14C102.4 184.93 102.47 184.67 102.68 184.55L145.97 159.56C146.17 159.44 146.43 159.51 146.56 159.72C146.68 159.93 146.61 160.19 146.4 160.31L103.11 185.3C103.04 185.33 102.97 185.35 102.89 185.35Z" fill="#373B42"/>
<path d="M46.8102 254.81C46.6602 254.81 46.5202 254.73 46.4402 254.6C46.3202 254.39 46.3902 254.13 46.6002 254.01L111.66 216.45C111.86 216.33 112.12 216.4 112.25 216.61C112.37 216.82 112.3 217.08 112.09 217.2L47.0302 254.76C46.9602 254.79 46.8902 254.81 46.8102 254.81Z" fill="#373B42"/>
<path d="M46.8102 262.39C46.6602 262.39 46.5202 262.31 46.4402 262.18C46.3202 261.97 46.3902 261.71 46.6002 261.59L111.66 224.03C111.86 223.91 112.12 223.98 112.25 224.19C112.37 224.4 112.3 224.66 112.09 224.78L47.0302 262.33C46.9602 262.37 46.8902 262.39 46.8102 262.39Z" fill="#373B42"/>
<path d="M46.8102 269.96C46.6602 269.96 46.5202 269.88 46.4402 269.75C46.3202 269.54 46.3902 269.28 46.6002 269.16L89.8902 244.17C90.0902 244.05 90.3502 244.12 90.4802 244.33C90.6002 244.54 90.5302 244.8 90.3202 244.92L47.0302 269.91C46.9602 269.95 46.8902 269.96 46.8102 269.96Z" fill="#373B42"/>
<path d="M160.94 284.24C150.65 290.17 142.34 304.56 142.37 316.37C142.38 320.94 143.65 324.44 145.78 326.69C149.16 330.27 154.75 330.66 161.06 327.02C167.38 323.38 172.95 316.55 176.3 309.09C178.41 304.4 179.65 299.45 179.64 294.88C179.61 283.06 171.24 278.3 160.94 284.24Z" fill="#DBDEE4"/>
<path d="M160.94 290.46C157.83 292.26 155.3 296.62 155.31 300.2C155.32 303.78 157.86 305.22 160.97 303.42C164.09 301.62 166.61 297.26 166.6 293.68C166.59 290.1 164.06 288.66 160.94 290.46Z" fill="white"/>
<path d="M160.98 306.5C155.42 309.71 150.51 315.72 147.56 322.28C150.53 325.43 155.46 325.78 161.02 322.57C166.58 319.36 171.5 313.34 174.44 306.78C171.48 303.62 166.55 303.29 160.98 306.5Z" fill="white"/>
<path d="M119.1 304.89C120.08 304.32 120.89 304.78 120.89 305.9L120.91 311.67C120.91 312.07 121.11 312.33 121.42 312.33L131.28 312.55C131.95 312.56 131.96 313.66 131.29 314.45L121.46 326.03C121.15 326.39 120.96 326.87 120.96 327.27L120.98 334.72C120.98 335.85 120.18 337.22 119.2 337.79L43.4902 381.5C42.5202 382.06 41.7202 381.62 41.7102 380.49L41.6302 351.67C41.6302 350.56 42.4302 349.17 43.4002 348.61L119.1 304.89Z" fill="#F0F2F5"/>
<path d="M46.8102 357.31C46.6602 357.31 46.5202 357.23 46.4402 357.1C46.3202 356.89 46.3902 356.63 46.6002 356.51L111.66 318.95C111.86 318.83 112.12 318.9 112.25 319.11C112.37 319.32 112.3 319.58 112.09 319.7L47.0302 357.26C46.9602 357.29 46.8902 357.31 46.8102 357.31Z" fill="#373B42"/>
<path d="M46.8102 364.89C46.6602 364.89 46.5202 364.81 46.4402 364.68C46.3202 364.47 46.3902 364.21 46.6002 364.09L111.66 326.53C111.86 326.41 112.12 326.48 112.25 326.69C112.37 326.9 112.3 327.16 112.09 327.28L47.0302 364.83C46.9602 364.87 46.8902 364.89 46.8102 364.89Z" fill="#373B42"/>
<path d="M46.8102 372.47C46.6602 372.47 46.5202 372.39 46.4402 372.26C46.3202 372.05 46.3902 371.79 46.6002 371.67L89.8902 346.68C90.0902 346.56 90.3502 346.63 90.4802 346.84C90.6002 347.05 90.5302 347.31 90.3202 347.43L47.0302 372.41C46.9602 372.45 46.8902 372.47 46.8102 372.47Z" fill="#373B42"/>
<path d="M101.54 279.45C101.39 279.45 101.25 279.37 101.17 279.24C101.05 279.03 101.12 278.77 101.33 278.65L166.39 241.09C166.59 240.97 166.86 241.04 166.98 241.25C167.1 241.46 167.03 241.72 166.82 241.84L101.76 279.4C101.69 279.43 101.61 279.45 101.54 279.45Z" fill="#373B42"/>
<path d="M101.54 287.03C101.39 287.03 101.25 286.95 101.17 286.82C101.05 286.61 101.12 286.35 101.33 286.23L166.39 248.67C166.59 248.55 166.86 248.62 166.98 248.83C167.1 249.04 167.03 249.3 166.82 249.42L101.76 286.98C101.69 287.01 101.61 287.03 101.54 287.03Z" fill="#373B42"/>
<path d="M101.54 294.61C101.39 294.61 101.25 294.53 101.17 294.4C101.05 294.19 101.12 293.93 101.33 293.81L144.62 268.82C144.82 268.7 145.08 268.77 145.21 268.98C145.33 269.19 145.26 269.45 145.05 269.57L101.76 294.56C101.69 294.59 101.61 294.61 101.54 294.61Z" fill="#373B42"/>
<path d="M112.67 349.12C117.98 346.06 122.29 348.52 122.31 354.6C122.33 360.7 118.04 368.11 112.73 371.18C107.42 374.24 103.11 371.79 103.09 365.69C103.08 359.6 107.37 352.18 112.67 349.12Z" fill="#BEC4CD"/>
<g opacity="0.1">
<path d="M406.07 401.62C421.15 410.33 421.23 424.45 406.25 433.16C391.26 441.87 366.89 441.87 351.81 433.16C336.72 424.45 336.65 410.33 351.63 401.62C366.61 392.91 390.99 392.91 406.07 401.62Z" fill="black"/>
</g>
<path d="M429.13 297.11L425.08 346.39L421.46 390.45L419.85 410.09C419.89 416.16 415.93 422.22 407.97 426.85C392.05 436.1 366.14 436.1 350.12 426.85C342.11 422.22 338.08 416.16 338.04 410.1L336.41 390.28L332.79 346.2L328.76 297.11H429.13Z" fill="white"/>
<path d="M379.09 434.21C368.53 434.21 357.96 431.88 349.9 427.23C342.01 422.67 337.65 416.59 337.61 410.11L328.33 297.15C328.32 297.03 328.36 296.91 328.44 296.82C328.52 296.73 328.63 296.68 328.76 296.68H429.13C429.25 296.68 429.36 296.73 429.45 296.82C429.53 296.91 429.57 297.03 429.56 297.15L420.28 410.14C420.32 416.59 416.03 422.67 408.19 427.23C400.18 431.89 389.64 434.21 379.09 434.21ZM329.22 297.54L338.46 410.07C338.5 416.27 342.71 422.09 350.32 426.49C366.21 435.66 391.97 435.67 407.74 426.49C415.3 422.09 419.44 416.27 419.41 410.11L428.65 297.54H329.22Z" fill="#373B42"/>
<path d="M433.76 301.87C433.74 309.94 428.43 318.01 417.83 324.17C396.49 336.57 361.78 336.57 340.3 324.17C329.49 317.93 324.09 309.74 324.12 301.56L324.09 312.24C324.07 320.42 329.46 328.61 340.27 334.85C361.75 347.25 396.46 347.25 417.8 334.85C428.4 328.69 433.71 320.63 433.73 312.55L433.76 301.87Z" fill="#373B42"/>
<path d="M379.09 344.56C364.97 344.56 350.84 341.45 340.06 335.22C329.46 329.1 323.64 320.94 323.66 312.24L323.69 301.56C323.69 301.32 323.88 301.13 324.12 301.13C324.36 301.13 324.55 301.32 324.55 301.56C324.53 309.94 330.2 317.84 340.52 323.8C361.84 336.11 396.43 336.11 417.62 323.8C427.73 317.92 433.32 310.14 433.34 301.87C433.34 301.63 433.53 301.44 433.77 301.44C434.01 301.44 434.2 301.63 434.2 301.87L434.17 312.55C434.14 321.13 428.41 329.18 418.02 335.22C407.31 341.45 393.21 344.56 379.09 344.56ZM324.53 307.28L324.52 312.24C324.5 320.62 330.17 328.52 340.49 334.48C361.81 346.79 396.4 346.79 417.59 334.48C427.7 328.6 433.29 320.82 433.31 312.55L433.32 307.58C431.35 313.98 426.1 319.87 418.05 324.55C396.63 337 361.65 337 340.09 324.55C331.85 319.79 326.5 313.8 324.53 307.28Z" fill="#373B42"/>
<path d="M417.58 279.27C439.06 291.67 439.17 311.78 417.83 324.18C396.49 336.58 361.78 336.58 340.3 324.18C318.82 311.78 318.71 291.67 340.05 279.27C361.39 266.87 396.1 266.87 417.58 279.27Z" fill="white"/>
<path d="M379.12 333.88C365 333.88 350.87 330.77 340.09 324.54C329.53 318.44 323.7 310.31 323.69 301.64C323.68 293.03 329.41 284.95 339.83 278.89C361.26 266.44 396.23 266.44 417.79 278.89C428.35 284.99 434.17 293.12 434.19 301.79C434.2 310.4 428.47 318.48 418.04 324.54C407.34 330.77 393.24 333.88 379.12 333.88ZM378.77 270.4C364.81 270.4 350.87 273.48 340.27 279.63C330.12 285.53 324.54 293.34 324.55 301.63C324.56 309.98 330.23 317.85 340.52 323.79C361.84 336.1 396.43 336.1 417.62 323.79C427.77 317.89 433.35 310.08 433.34 301.79C433.33 293.44 427.66 285.57 417.37 279.63C406.71 273.48 392.73 270.4 378.77 270.4Z" fill="#373B42"/>
<path d="M417.44 291.59L417.42 299.09C417.4 304.76 413.68 310.42 406.23 314.75C391.24 323.46 366.87 323.46 351.79 314.75C344.2 310.37 340.41 304.62 340.42 298.87L340.44 291.37C340.42 297.11 344.21 302.87 351.81 307.25C366.89 315.96 391.27 315.96 406.25 307.25C413.69 302.93 417.42 297.27 417.44 291.59Z" fill="#373B42"/>
<path d="M379.04 321.7C369.1 321.7 359.16 319.51 351.57 315.13C344.09 310.81 339.97 305.04 339.99 298.88L340.01 291.38C340.01 291.14 340.2 290.95 340.44 290.95C340.68 290.95 340.87 291.14 340.87 291.38C340.85 297.22 344.81 302.72 352.02 306.89C366.96 315.51 391.19 315.52 406.03 306.89C413.09 302.79 416.99 297.36 417 291.6C417 291.36 417.19 291.17 417.43 291.17C417.67 291.17 417.86 291.36 417.86 291.6L417.84 299.1C417.82 305.17 413.78 310.87 406.44 315.13C398.9 319.5 388.98 321.7 379.04 321.7ZM340.85 296.18L340.84 298.88C340.82 304.72 344.78 310.23 351.99 314.39C366.93 323.02 391.16 323.01 406 314.39C413.06 310.29 416.96 304.86 416.97 299.1L416.98 296.4C415.42 300.64 411.82 304.52 406.45 307.64C391.36 316.4 366.75 316.4 351.57 307.64C346.09 304.45 342.41 300.49 340.85 296.18Z" fill="#373B42"/>
<path d="M406.07 275.72C421.15 284.43 421.23 298.55 406.25 307.26C391.26 315.97 366.89 315.97 351.81 307.26C336.72 298.55 336.65 284.43 351.63 275.72C366.61 267.01 390.99 267.01 406.07 275.72Z" fill="#FF1091"/>
<path d="M379.06 314.2C369.12 314.2 359.18 312.01 351.59 307.63C344.13 303.32 340.02 297.57 340.01 291.44C340 285.35 344.05 279.63 351.41 275.35C366.49 266.59 391.11 266.59 406.29 275.35C413.75 279.65 417.86 285.4 417.87 291.54C417.88 297.64 413.83 303.35 406.47 307.63C398.92 312.01 389 314.2 379.06 314.2ZM378.81 269.62C369.03 269.62 359.26 271.78 351.84 276.09C344.75 280.21 340.86 285.66 340.87 291.43C340.88 297.25 344.84 302.73 352.02 306.88C366.96 315.5 391.19 315.51 406.03 306.88C413.12 302.76 417.01 297.31 417 291.54C416.99 285.72 413.03 280.24 405.85 276.09C398.39 271.78 388.59 269.62 378.81 269.62Z" fill="#373B42"/>
<path d="M425.08 346.4L421.46 390.46C419.96 391.63 418.3 392.75 416.47 393.81C395.88 405.77 362.37 405.77 341.65 393.8C339.72 392.69 337.98 391.51 336.41 390.28L332.79 346.2C335.13 348.62 338.09 350.9 341.65 352.96C362.38 364.93 395.88 364.94 416.47 352.97C419.93 350.97 422.79 348.75 425.08 346.4Z" fill="#FF1091"/>
<path d="M379.12 403.19C365.49 403.19 351.84 400.18 341.43 394.17C339.53 393.07 337.75 391.88 336.14 390.62C336.05 390.55 335.99 390.44 335.98 390.32L332.36 346.24C332.34 346.06 332.45 345.89 332.61 345.81C332.78 345.73 332.97 345.77 333.1 345.9C335.46 348.34 338.41 350.59 341.87 352.58C362.45 364.46 395.82 364.47 416.26 352.59C419.62 350.64 422.48 348.45 424.78 346.09C424.91 345.96 425.1 345.92 425.27 346C425.43 346.07 425.53 346.24 425.52 346.43L421.9 390.49C421.89 390.61 421.83 390.72 421.74 390.79C420.22 391.97 418.53 393.11 416.71 394.17C406.35 400.19 392.75 403.19 379.12 403.19ZM336.82 390.06C338.36 391.25 340.05 392.39 341.86 393.43C362.44 405.31 395.82 405.31 416.25 393.44C417.98 392.43 419.59 391.36 421.04 390.24L424.55 347.52C422.35 349.63 419.71 351.58 416.68 353.34C396 365.35 362.24 365.35 341.43 353.33C338.3 351.52 335.57 349.51 333.31 347.33L336.82 390.06Z" fill="#373B42"/>
<path d="M389.77 302.1C388.12 303.06 388.11 304.61 389.76 305.57C390.58 306.05 391.67 306.29 392.74 306.29C393.83 306.29 394.91 306.05 395.74 305.58L407.86 298.58C409.52 297.62 409.52 296.07 407.87 295.11C407.05 294.63 405.96 294.39 404.89 294.39C403.82 294.39 402.72 294.62 401.89 295.1L389.77 302.1Z" fill="#373B42"/>
</svg>
