<svg width="491" height="490" viewBox="0 0 491 490" fill="none" xmlns="http://www.w3.org/2000/svg">
<path d="M450.45 230.69C450.29 230.69 450.13 230.61 450.04 230.45C449.91 230.22 449.98 229.93 450.21 229.8L483.08 210.75C483.73 210.37 484.13 209.69 484.12 208.94C484.12 208.18 483.73 207.51 483.07 207.13L431.51 177.44C431.28 177.31 431.2 177.02 431.33 176.79C431.46 176.56 431.75 176.48 431.98 176.61L483.54 206.3C484.5 206.85 485.07 207.84 485.07 208.94C485.07 210.04 484.5 211.03 483.55 211.58L450.68 230.63C450.62 230.67 450.54 230.69 450.45 230.69Z" fill="#DBDEE4"/>
<path d="M451.06 235.69C454.52 233.7 454.54 230.47 451.1 228.48C447.67 226.49 442.08 226.49 438.62 228.48C435.16 230.47 435.15 233.7 438.58 235.69C442.01 237.68 447.6 237.68 451.06 235.69Z" fill="white"/>
<path d="M444.81 237.65C442.46 237.65 440.12 237.13 438.34 236.1C436.53 235.05 435.54 233.63 435.54 232.09C435.54 230.55 436.55 229.12 438.38 228.06C441.97 226 447.78 226 451.34 228.06C453.15 229.11 454.14 230.53 454.14 232.07C454.14 233.61 453.13 235.05 451.3 236.1C449.5 237.13 447.16 237.65 444.81 237.65ZM444.87 227.46C442.7 227.46 440.52 227.94 438.86 228.9C437.34 229.78 436.5 230.91 436.5 232.1C436.5 233.28 437.32 234.41 438.82 235.28C442.12 237.19 447.5 237.19 450.82 235.28C452.34 234.4 453.18 233.26 453.19 232.07C453.19 230.89 452.37 229.76 450.87 228.89C449.21 227.94 447.04 227.46 444.87 227.46Z" fill="#DBDEE4"/>
<path d="M444.86 229.81C443.51 229.81 442.21 230.12 441.28 230.65C440.54 231.08 440.11 231.6 440.11 232.09C440.11 232.57 440.53 233.09 441.26 233.52C442.18 234.05 443.48 234.36 444.82 234.36C446.17 234.36 447.47 234.05 448.4 233.52C449.14 233.09 449.57 232.56 449.57 232.07C449.57 231.59 449.15 231.07 448.42 230.64C447.5 230.11 446.2 229.81 444.86 229.81Z" fill="#FF1091"/>
<path d="M475.29 212.53C473.84 212.53 472.44 212.86 471.45 213.43C470.65 213.89 470.19 214.46 470.19 214.98C470.19 215.5 470.64 216.06 471.42 216.51C472.41 217.08 473.8 217.41 475.25 217.41C476.7 217.41 478.1 217.08 479.09 216.51C479.89 216.05 480.35 215.48 480.35 214.96C480.35 214.44 479.9 213.88 479.12 213.43C478.13 212.86 476.74 212.53 475.29 212.53Z" fill="#373B42"/>
<path d="M394.66 323.18C394.58 323.18 394.5 323.16 394.42 323.12L283.15 259.05C281.27 257.97 280.14 256.02 280.14 253.85C280.14 251.68 281.26 249.74 283.14 248.65L393.64 184.61C393.86 184.48 394.16 184.55 394.29 184.78C394.42 185.01 394.35 185.3 394.12 185.43L283.62 249.47C282.04 250.39 281.1 252.02 281.1 253.84C281.1 255.66 282.05 257.3 283.63 258.21L394.9 322.28C395.13 322.41 395.21 322.7 395.08 322.93C394.98 323.1 394.82 323.18 394.66 323.18Z" fill="#DBDEE4"/>
<path d="M453.29 482.35C453.13 482.35 452.97 482.27 452.88 482.11C452.75 481.88 452.82 481.59 453.05 481.46L485.92 462.41C486.58 462.03 486.97 461.35 486.96 460.6C486.96 459.84 486.57 459.17 485.91 458.79L434.35 429.1C434.12 428.97 434.04 428.68 434.17 428.45C434.3 428.22 434.59 428.14 434.82 428.27L486.38 457.96C487.34 458.51 487.91 459.5 487.91 460.6C487.91 461.7 487.34 462.69 486.39 463.24L453.52 482.29C453.46 482.33 453.38 482.35 453.29 482.35Z" fill="#DBDEE4"/>
<path d="M291.3 488.43C287.61 488.43 283.92 487.48 280.63 485.59L157.45 414.67C157.22 414.54 157.14 414.25 157.27 414.02C157.4 413.79 157.69 413.71 157.92 413.84L281.1 484.76C287.41 488.39 295.24 488.38 301.54 484.73L387.38 434.98C387.6 434.85 387.9 434.92 388.03 435.15C388.16 435.38 388.09 435.67 387.86 435.8L302.02 485.55C298.72 487.47 295.01 488.43 291.3 488.43Z" fill="#DBDEE4"/>
<g opacity="0.1">
<path d="M270.38 378.06C263.99 381.74 255.12 383.08 246.92 382.12L181.52 420.04L186.23 422.75L156.06 440.23L151.31 437.51C151.22 437.59 151.08 437.66 150.97 437.74L88.7702 473.8C89.3702 478.03 86.8702 482.37 81.2502 485.6C71.1702 491.41 54.8702 491.41 44.8502 485.6C34.8302 479.79 34.8602 470.38 44.9602 464.57C53.2502 459.8 65.7102 458.93 75.4502 462L134.48 427.8L125.7 422.75L155.87 405.28L164.63 410.32L228.47 373.32C224.55 367.91 226.44 361.43 234.08 357.03C244.16 351.22 260.5 351.22 270.52 357.03C280.54 362.82 280.46 372.25 270.38 378.06Z" fill="black"/>
</g>
<path d="M234.61 345.17C234.61 357.15 244.36 366.87 256.34 366.87C268.36 366.87 278.1 357.15 278.1 345.17C278.1 336.52 273 329.03 265.63 325.56C262.81 324.24 259.66 323.49 256.34 323.49C253.04 323.49 249.9 324.23 247.1 325.55C239.73 329.01 234.61 336.5 234.61 345.17Z" fill="#FF1091"/>
<path d="M256.34 367.34C244.09 367.34 234.13 357.39 234.13 345.16C234.13 336.62 239.14 328.75 246.9 325.1C249.87 323.7 253.04 323 256.34 323C259.65 323 262.85 323.71 265.83 325.11C273.57 328.76 278.58 336.63 278.58 345.15C278.58 357.39 268.61 367.34 256.34 367.34ZM256.34 323.96C253.18 323.96 250.14 324.64 247.31 325.97C239.89 329.46 235.09 336.99 235.09 345.16C235.09 356.86 244.62 366.38 256.35 366.38C268.09 366.38 277.63 356.86 277.63 345.16C277.63 337 272.84 329.47 265.43 325.98C262.57 324.64 259.51 323.96 256.34 323.96Z" fill="#373B42"/>
<path d="M157.68 392.83C158.77 392.19 160.28 392.3 161.95 393.26C165.26 395.17 167.93 399.76 167.91 403.56C167.91 405.47 167.24 406.79 166.17 407.43L251.2 358.13C252.29 357.51 252.96 356.17 252.96 354.28C252.96 350.48 250.31 345.87 247 343.98C245.33 343 243.81 342.91 242.71 343.55L157.68 392.83Z" fill="white"/>
<path d="M166.18 407.9C166.02 407.9 165.86 407.82 165.77 407.66C165.64 407.43 165.71 407.14 165.94 407.01C166.91 406.43 167.45 405.2 167.45 403.55C167.47 399.93 164.9 395.5 161.73 393.67C160.26 392.83 158.92 392.67 157.95 393.23L157.93 393.24C157.7 393.37 157.41 393.3 157.28 393.07C157.15 392.84 157.22 392.55 157.45 392.42C157.46 392.42 157.46 392.41 157.47 392.41L242.48 343.14C243.79 342.38 245.49 342.54 247.25 343.57C250.67 345.52 253.45 350.33 253.45 354.28C253.45 356.3 252.74 357.81 251.45 358.55L166.42 407.85C166.35 407.88 166.26 407.9 166.18 407.9ZM160.04 392.02C160.73 392.14 161.46 392.42 162.2 392.85C165.7 394.87 168.42 399.57 168.4 403.57C168.4 404.4 168.28 405.16 168.04 405.8L250.97 357.71C251.95 357.15 252.49 355.93 252.49 354.27C252.49 350.62 249.92 346.19 246.77 344.39C245.31 343.53 243.95 343.38 242.95 343.96L160.04 392.02Z" fill="#373B42"/>
<path d="M161.96 393.25C158.65 391.34 155.94 392.85 155.93 396.65C155.92 400.46 158.61 405.09 161.92 407C165.23 408.91 167.92 407.37 167.93 403.56C167.94 399.76 165.27 395.16 161.96 393.25Z" fill="white"/>
<path d="M164.61 408.3C163.7 408.3 162.71 408 161.69 407.41C158.24 405.42 155.45 400.6 155.46 396.65C155.47 394.65 156.17 393.15 157.45 392.41C158.75 391.66 160.44 391.82 162.21 392.83C165.64 394.81 168.43 399.62 168.42 403.55C168.41 405.57 167.7 407.08 166.42 407.82C165.87 408.14 165.26 408.3 164.61 408.3ZM159.26 392.9C158.77 392.9 158.32 393.01 157.92 393.24C156.95 393.8 156.41 395.01 156.41 396.65C156.4 400.29 158.98 404.75 162.16 406.58C163.61 407.42 164.95 407.57 165.93 407C166.9 406.44 167.44 405.21 167.45 403.55C167.46 399.92 164.89 395.48 161.72 393.66C160.84 393.16 160 392.9 159.26 392.9Z" fill="#373B42"/>
<path d="M180.32 388.68L180.25 419.62L154.68 434.44L154.76 403.49L180.32 388.68Z" fill="#BEC4CD"/>
<path d="M154.68 434.91C154.6 434.91 154.52 434.89 154.44 434.85C154.29 434.77 154.2 434.61 154.2 434.44L154.28 403.5C154.28 403.33 154.37 403.17 154.52 403.09L180.08 388.28C180.23 388.19 180.41 388.19 180.56 388.28C180.71 388.36 180.8 388.52 180.8 388.69L180.72 419.63C180.72 419.8 180.63 419.96 180.48 420.04L154.92 434.85C154.85 434.89 154.77 434.91 154.68 434.91ZM155.24 403.77L155.17 433.61L179.77 419.35L179.84 389.51L155.24 403.77Z" fill="#373B42"/>
<path d="M154.76 403.49L154.68 434.44L128.96 419.62L129.03 388.68L154.76 403.49Z" fill="#DBDEE4"/>
<path d="M154.68 434.91C154.6 434.91 154.52 434.89 154.44 434.85L128.71 420.04C128.56 419.95 128.47 419.8 128.47 419.62L128.55 388.67C128.55 388.5 128.64 388.34 128.79 388.26C128.94 388.18 129.12 388.18 129.27 388.26L155 403.07C155.15 403.16 155.24 403.31 155.24 403.49L155.16 434.43C155.16 434.6 155.07 434.76 154.92 434.84C154.85 434.89 154.77 434.91 154.68 434.91ZM129.44 419.35L154.21 433.61L154.28 403.77L129.51 389.51L129.44 419.35Z" fill="#373B42"/>
<path d="M180.32 388.68L154.76 403.49L129.03 388.68L154.59 373.86L180.32 388.68Z" fill="#F0F2F5"/>
<path d="M154.76 403.97C154.68 403.97 154.6 403.95 154.52 403.91L128.79 389.1C128.64 389.01 128.55 388.86 128.55 388.69C128.55 388.52 128.64 388.36 128.79 388.28L154.35 373.47C154.5 373.38 154.68 373.39 154.83 373.47L180.56 388.28C180.71 388.37 180.8 388.52 180.8 388.69C180.8 388.86 180.71 389.02 180.56 389.1L155 403.91C154.93 403.95 154.84 403.97 154.76 403.97ZM129.99 388.68L154.76 402.94L179.36 388.68L154.59 374.42L129.99 388.68Z" fill="#373B42"/>
<path d="M52.4202 453.84C53.5102 453.2 55.0202 453.31 56.7002 454.27C60.0102 456.18 62.6802 460.77 62.6602 464.57C62.6602 466.48 61.9902 467.8 60.9202 468.44L145.95 419.14C147.04 418.52 147.71 417.18 147.71 415.29C147.71 411.49 145.06 406.88 141.75 404.99C140.08 404.01 138.56 403.92 137.46 404.56L52.4202 453.84Z" fill="white"/>
<path d="M60.9201 468.91C60.7601 468.91 60.6001 468.83 60.5101 468.67C60.3801 468.44 60.4501 468.15 60.6801 468.02C61.6501 467.44 62.1901 466.21 62.1901 464.56C62.2101 460.94 59.6401 456.51 56.4601 454.68C55.0001 453.84 53.6501 453.68 52.6801 454.24L52.6601 454.25C52.4301 454.38 52.1401 454.31 52.0101 454.08C51.8801 453.85 51.9501 453.56 52.1801 453.43C52.1901 453.43 52.1901 453.42 52.2001 453.42L137.21 404.15C138.52 403.39 140.21 403.54 141.98 404.58C145.4 406.53 148.18 411.34 148.18 415.29C148.18 417.31 147.47 418.82 146.18 419.56L61.1501 468.86C61.0801 468.89 61.0001 468.91 60.9201 468.91ZM54.7701 453.03C55.4601 453.15 56.1901 453.43 56.9301 453.86C60.4301 455.87 63.1501 460.58 63.1301 464.57C63.1301 465.41 63.0101 466.16 62.7701 466.81L145.7 418.72C146.68 418.16 147.22 416.94 147.22 415.28C147.22 411.63 144.65 407.2 141.5 405.4C140.04 404.54 138.68 404.39 137.68 404.97L54.7701 453.03Z" fill="#373B42"/>
<path d="M56.7001 454.26C53.3901 452.35 50.6801 453.86 50.6701 457.66C50.6601 461.47 53.3501 466.1 56.6601 468.01C59.9701 469.92 62.6601 468.38 62.6701 464.57C62.6701 460.78 60.0101 456.17 56.7001 454.26Z" fill="white"/>
<path d="M59.3401 469.31C58.4301 469.31 57.4401 469.01 56.4201 468.42C52.9701 466.44 50.1801 461.61 50.1901 457.66C50.2001 455.66 50.9001 454.16 52.1801 453.42C53.4701 452.67 55.1601 452.82 56.9301 453.84C60.3601 455.82 63.1501 460.63 63.1401 464.56C63.1301 466.57 62.4201 468.09 61.1401 468.83C60.6001 469.16 59.9901 469.31 59.3401 469.31ZM53.9901 453.92C53.5001 453.92 53.0501 454.03 52.6501 454.26C51.6801 454.82 51.1401 456.03 51.1401 457.67C51.1301 461.31 53.7101 465.77 56.8901 467.6C58.3401 468.44 59.6801 468.59 60.6601 468.02C61.6301 467.46 62.1701 466.23 62.1801 464.57C62.1901 460.94 59.6201 456.5 56.4501 454.68C55.5801 454.17 54.7401 453.92 53.9901 453.92Z" fill="#373B42"/>
<path d="M162.47 319.9L162.42 387.94C162.42 389.09 161.66 390.23 160.15 391.11C157.11 392.87 152.16 392.87 149.1 391.11C147.56 390.22 146.79 389.06 146.79 387.9L146.84 319.86C146.84 321.02 147.61 322.19 149.15 323.07C152.21 324.83 157.16 324.83 160.2 323.07C161.71 322.19 162.47 321.04 162.47 319.9Z" fill="white"/>
<path d="M154.63 392.9C152.54 392.9 150.46 392.44 148.87 391.53C147.22 390.58 146.32 389.29 146.32 387.9L146.37 319.88C146.37 319.87 146.37 319.87 146.37 319.86C146.37 319.6 146.58 319.38 146.85 319.38C147.11 319.38 147.33 319.59 147.33 319.86V319.87C147.33 320.9 148.06 321.89 149.4 322.66C152.32 324.34 157.06 324.34 159.97 322.66C161.28 321.9 162 320.92 162 319.9C162 319.64 162.21 319.42 162.48 319.42C162.75 319.42 162.96 319.63 162.96 319.9L162.91 387.94C162.91 389.32 162.01 390.59 160.4 391.52C158.81 392.44 156.72 392.9 154.63 392.9ZM147.33 322.22L147.28 387.9C147.28 388.94 148.01 389.93 149.35 390.7C152.27 392.38 157.01 392.38 159.92 390.7C161.23 389.94 161.95 388.96 161.95 387.94L162 322.25C161.6 322.7 161.08 323.12 160.45 323.49C157.29 325.33 152.12 325.33 148.93 323.49C148.27 323.11 147.74 322.68 147.33 322.22Z" fill="#373B42"/>
<path d="M167.64 290.83L167.56 338.8C167.55 340.67 166.32 342.54 163.85 343.97C158.89 346.85 150.81 346.85 145.83 343.97C143.32 342.52 142.06 340.62 142.07 338.73L142.15 290.76C142.14 292.66 143.4 294.56 145.91 296C150.9 298.87 158.97 298.87 163.93 296C166.4 294.58 167.63 292.71 167.64 290.83Z" fill="#373B42"/>
<path d="M154.84 346.6C151.49 346.6 148.14 345.87 145.59 344.39C143 342.9 141.58 340.89 141.59 338.73L141.67 290.78V290.77C141.67 290.51 141.88 290.29 142.15 290.29C142.41 290.29 142.63 290.5 142.63 290.77V290.78C142.63 292.58 143.88 294.29 146.15 295.6C151 298.39 158.87 298.39 163.7 295.6C165.93 294.31 167.16 292.62 167.17 290.84C167.17 290.58 167.38 290.36 167.65 290.36C167.91 290.36 168.13 290.57 168.13 290.84L168.05 338.8C168.04 340.93 166.64 342.92 164.11 344.39C161.55 345.86 158.2 346.6 154.84 346.6ZM142.62 293.73L142.55 338.73C142.54 340.53 143.8 342.25 146.07 343.56C150.92 346.35 158.79 346.35 163.62 343.56C165.85 342.27 167.08 340.58 167.09 338.8L167.16 293.79C166.49 294.77 165.49 295.67 164.18 296.42C159.09 299.37 150.79 299.37 145.68 296.42C144.33 295.65 143.3 294.74 142.62 293.73Z" fill="#373B42"/>
<path d="M0.970093 166.47L207.37 46.86L225.69 57.41L19.2901 177.02L0.970093 166.47Z" fill="#F0F2F5"/>
<path d="M19.2901 177.5C19.2101 177.5 19.1301 177.48 19.0501 177.44L0.730112 166.89C0.580112 166.8 0.490112 166.65 0.490112 166.48C0.490112 166.31 0.580112 166.15 0.730112 166.07L207.13 46.45C207.28 46.36 207.46 46.37 207.61 46.45L225.93 57C226.08 57.09 226.17 57.24 226.17 57.41C226.17 57.58 226.08 57.74 225.93 57.82L19.5301 177.44C19.4601 177.48 19.3801 177.5 19.2901 177.5ZM1.93011 166.47L19.3001 176.47L224.74 57.41L207.37 47.41L1.93011 166.47Z" fill="#373B42"/>
<path d="M242.42 254.03L36.0301 373.65C34.2001 374.71 31.6501 374.56 28.8601 372.96C23.3101 369.76 18.7801 361.96 18.8001 355.61L19.2801 177.03L225.68 57.41L225.2 235.99C225.18 242.35 229.7 250.15 235.26 253.34C238.06 254.96 240.59 255.1 242.42 254.03Z" fill="#BEC4CD"/>
<path d="M33.3801 374.82C31.9101 374.82 30.3001 374.34 28.6301 373.38C22.9301 370.1 18.3101 362.13 18.3301 355.61L18.8101 177.03C18.8101 176.86 18.9001 176.7 19.0501 176.62L225.45 57C225.6 56.91 225.78 56.91 225.93 57C226.08 57.08 226.17 57.24 226.17 57.41L225.69 235.99C225.67 242.21 230.08 249.81 235.51 252.93C238.04 254.39 240.4 254.65 242.16 253.63L242.18 253.62C242.4 253.49 242.7 253.56 242.83 253.79C242.96 254.02 242.89 254.31 242.66 254.44C242.65 254.44 242.65 254.45 242.64 254.45L36.2701 374.07C35.4101 374.57 34.4301 374.82 33.3801 374.82ZM19.7701 177.31L19.2901 355.61C19.2701 361.82 23.6801 369.42 29.1101 372.55C31.6701 374.02 34.0401 374.26 35.8001 373.24L239.47 255.19C238.09 255.13 236.58 254.65 235.04 253.75C229.34 250.48 224.72 242.51 224.74 235.98L225.22 58.23L19.7701 177.31Z" fill="#373B42"/>
<path d="M47.4901 370.65L30.2801 360.68L29.4601 109.25L46.6601 119.22L47.4901 370.65Z" fill="#DBDEE4"/>
<path d="M47.4901 371.13C47.4101 371.13 47.3201 371.11 47.2501 371.07L30.0501 361.1C29.9001 361.02 29.8101 360.86 29.8101 360.69L28.9901 109.26C28.9901 109.09 29.0801 108.93 29.2301 108.84C29.3801 108.75 29.5601 108.75 29.7101 108.84L46.9101 118.81C47.0601 118.89 47.1501 119.05 47.1501 119.22L47.9701 370.65C47.9701 370.82 47.8801 370.98 47.7301 371.07C47.6501 371.11 47.5701 371.13 47.4901 371.13ZM30.7601 360.4L47.0101 369.82L46.1801 119.5L29.9301 110.08L30.7601 360.4Z" fill="#373B42"/>
<path d="M46.6601 119.22L29.4601 109.25L218.37 0.47998L235.57 10.45L46.6601 119.22Z" fill="#F0F2F5"/>
<path d="M46.6601 119.7C46.5801 119.7 46.4901 119.68 46.4201 119.64L29.2201 109.67C29.0701 109.58 28.9801 109.43 28.9801 109.26C28.9801 109.09 29.0701 108.93 29.2201 108.85L218.13 0.06C218.28 -0.02 218.46 -0.02 218.61 0.06L235.81 10.03C235.96 10.12 236.05 10.27 236.05 10.44C236.05 10.61 235.96 10.77 235.81 10.85L46.9001 119.64C46.8301 119.68 46.7401 119.7 46.6601 119.7ZM30.4101 109.25L46.6601 118.67L234.62 10.45L218.37 1.03L30.4101 109.25Z" fill="#373B42"/>
<path d="M235.57 10.45L236.4 261.88L47.49 370.65L46.66 119.22L235.57 10.45Z" fill="white"/>
<path d="M47.4901 371.13C47.4101 371.13 47.3301 371.11 47.2501 371.07C47.1001 370.99 47.0101 370.83 47.0101 370.66L46.1901 119.23C46.1901 119.06 46.2801 118.9 46.4301 118.81L235.33 10.03C235.48 9.94997 235.66 9.94997 235.81 10.03C235.96 10.11 236.05 10.27 236.05 10.44L236.87 261.87C236.87 262.04 236.78 262.2 236.63 262.29L47.7201 371.07C47.6501 371.11 47.5701 371.13 47.4901 371.13ZM47.1401 119.5L47.9601 369.83L235.92 261.6L235.1 11.27L47.1401 119.5Z" fill="#373B42"/>
<path d="M144.65 109.15C146.37 108.16 147.78 108.94 147.78 110.92C147.79 112.88 146.39 115.29 144.67 116.29L68.9702 159.88C67.2602 160.87 65.8502 160.07 65.8502 158.11C65.8402 156.13 67.2401 153.74 68.9501 152.75L144.65 109.15Z" fill="#DBDEE4"/>
<path d="M120.69 101.53C122.42 100.54 123.82 101.33 123.82 103.31C123.83 105.27 122.43 107.68 120.71 108.68L68.9001 138.5C67.1901 139.49 65.7801 138.69 65.7801 136.73C65.7701 134.75 67.1701 132.34 68.8801 131.36L120.69 101.53Z" fill="white"/>
<path d="M67.5101 139.41C67.1301 139.41 66.7701 139.32 66.4501 139.14C65.7101 138.71 65.3001 137.86 65.3001 136.74C65.2901 134.61 66.7901 132.02 68.6401 130.95L120.45 101.12C121.44 100.55 122.4 100.47 123.15 100.9C123.89 101.33 124.3 102.18 124.3 103.31C124.31 105.43 122.8 108.02 120.95 109.09L69.1401 138.92C68.5801 139.24 68.0201 139.41 67.5101 139.41ZM120.69 101.53L120.93 101.94L69.1201 131.77C67.5601 132.67 66.2501 134.94 66.2601 136.73C66.2601 137.5 66.5001 138.06 66.9301 138.31C67.3701 138.56 67.9901 138.49 68.6601 138.1L120.47 108.27C122.03 107.37 123.35 105.1 123.35 103.32C123.35 102.55 123.11 101.98 122.67 101.73C122.23 101.48 121.61 101.55 120.93 101.95L120.69 101.53Z" fill="#373B42"/>
<path d="M39.4501 232.37L245.85 112.75L264.18 123.3L57.7901 242.92L39.4501 232.37Z" fill="#F0F2F5"/>
<path d="M57.7901 243.4C57.7101 243.4 57.6301 243.38 57.5501 243.34L39.2201 232.78C39.0701 232.69 38.9801 232.54 38.9801 232.37C38.9801 232.2 39.0701 232.04 39.2201 231.96L245.62 112.34C245.77 112.25 245.95 112.26 246.1 112.34L264.44 122.9C264.59 122.99 264.68 123.14 264.68 123.31C264.68 123.48 264.59 123.64 264.44 123.72L58.0301 243.34C57.9501 243.38 57.8701 243.4 57.7901 243.4ZM40.4101 232.37L57.7901 242.38L263.23 123.31L245.85 113.3L40.4101 232.37Z" fill="#373B42"/>
<path d="M57.7901 242.92L57.3101 377.77C57.2601 395.72 44.4701 402.99 28.8101 393.97C13.1401 384.95 0.440137 363 0.490137 345.06L0.970138 166.48L19.2901 177.03L18.8101 355.61C18.7901 361.97 23.3101 369.76 28.8601 372.96C34.4101 376.16 38.9501 373.58 38.9701 367.22L39.4501 232.37L57.7901 242.92Z" fill="#373B42"/>
<path d="M41.5201 398.33C37.5301 398.33 33.1201 397.01 28.5601 394.38C12.7601 385.28 -0.0498541 363.16 0.000145874 345.05L0.480145 166.47C0.480145 166.3 0.570146 166.14 0.720146 166.06C0.870146 165.98 1.05015 165.98 1.20015 166.06L19.5201 176.61C19.6701 176.7 19.7601 176.85 19.7601 177.03L19.2801 355.61C19.2601 361.82 23.6601 369.42 29.0901 372.55C31.6401 374.02 34.0001 374.27 35.7701 373.25C37.5101 372.25 38.4701 370.11 38.4801 367.22L38.9601 232.37C38.9601 232.2 39.0501 232.04 39.2001 231.96C39.3501 231.88 39.5301 231.88 39.6801 231.96L58.0101 242.52C58.1601 242.61 58.2501 242.76 58.2501 242.94L57.7701 377.79C57.7401 386.6 54.7001 393.2 49.2001 396.37C46.9301 397.68 44.3301 398.33 41.5201 398.33ZM1.45015 167.3L0.970146 345.06C0.920146 362.86 13.5201 384.61 29.0501 393.56C36.5101 397.85 43.5001 398.56 48.7501 395.53C53.9401 392.54 56.8101 386.23 56.8401 377.77L57.3201 243.2L39.9401 233.19L39.4501 367.22C39.4401 370.46 38.3101 372.89 36.2601 374.08C34.2001 375.27 31.4901 375.02 28.6301 373.38C22.9401 370.1 18.3201 362.13 18.3401 355.61L18.8201 177.3L1.45015 167.3Z" fill="#373B42"/>
<path d="M263.71 258.15C263.68 267.07 260.51 273.35 255.41 276.31L49.0001 395.93C54.1201 392.96 57.2901 386.69 57.3001 377.77L57.7801 242.92L191.13 165.65L191.06 136.39C191.04 131.05 194.83 124.48 199.52 121.79L255.59 89.51C260.28 86.81 264.08 88.99 264.1 94.34L263.71 258.15Z" fill="#FF1091"/>
<path d="M49.0001 396.41C48.8401 396.41 48.6801 396.33 48.5901 396.17C48.4601 395.94 48.5301 395.65 48.7601 395.52C53.9401 392.51 56.8101 386.21 56.8301 377.77L57.3101 242.92C57.3101 242.75 57.4001 242.59 57.5501 242.51L190.66 165.38L190.59 136.4C190.57 130.89 194.47 124.15 199.29 121.38L255.36 89.0999C257.79 87.6999 260.1 87.49 261.86 88.51C263.61 89.52 264.58 91.5899 264.59 94.3399L264.19 258.16C264.16 266.96 261.12 273.56 255.65 276.73L49.2601 396.34C49.2501 396.34 49.2501 396.35 49.2501 396.35C49.1701 396.39 49.0901 396.41 49.0001 396.41ZM58.2601 243.2L57.7801 377.77C57.7701 384.12 56.1801 389.32 53.2301 392.92L255.17 275.9C260.34 272.91 263.2 266.6 263.23 258.15L263.63 94.3399C263.62 91.9399 262.82 90.1699 261.38 89.3399C259.93 88.4999 257.95 88.71 255.84 89.93L199.77 122.21C195.22 124.83 191.53 131.19 191.55 136.4L191.62 165.66C191.62 165.83 191.53 165.99 191.38 166.07L58.2601 243.2Z" fill="#373B42"/>
<path d="M261.62 88.94C260.09 88.04 257.95 88.15 255.59 89.52L199.52 121.8C197.32 123.08 195.34 125.2 193.83 127.66C192.13 130.42 191.06 133.56 191.08 136.42L191.16 165.36L173.11 154.91L173.03 125.94C173.01 123.1 174.09 119.95 175.78 117.18C177.29 114.74 179.27 112.61 181.49 111.34L237.54 79.06C239.9 77.71 242.04 77.58 243.59 78.48L261.62 88.94Z" fill="#F0F2F5"/>
<path d="M191.15 165.84C191.07 165.84 190.98 165.82 190.91 165.78L172.86 155.33C172.71 155.25 172.62 155.09 172.62 154.92L172.55 125.95C172.53 123.14 173.53 119.94 175.37 116.94C177.02 114.27 179.05 112.2 181.25 110.93L237.3 78.65C239.75 77.25 242.06 77.04 243.83 78.07L261.81 88.5C261.83 88.51 261.85 88.52 261.87 88.53C262.1 88.66 262.17 88.96 262.04 89.18C261.9 89.41 261.62 89.48 261.39 89.35L261.34 89.32C259.91 88.5 257.91 88.73 255.85 89.93L199.77 122.21C197.74 123.39 195.78 125.41 194.25 127.91C192.5 130.75 191.55 133.77 191.57 136.41L191.64 165.35C191.64 165.52 191.55 165.68 191.4 165.76C191.32 165.81 191.24 165.84 191.15 165.84ZM173.58 154.63L190.67 164.52L190.6 136.41C190.58 133.59 191.58 130.4 193.42 127.4C195.03 124.77 197.11 122.63 199.28 121.37L255.35 89.09C256.56 88.39 257.76 87.98 258.88 87.89L243.34 78.87C241.89 78.02 239.9 78.23 237.77 79.45L181.72 111.73C179.69 112.9 177.72 114.91 176.18 117.41C174.43 120.25 173.48 123.27 173.5 125.91L173.58 154.63Z" fill="#373B42"/>
<path d="M34.9202 461.13C34.9202 473.11 44.6702 482.83 56.6502 482.83C68.6702 482.83 78.4102 473.11 78.4102 461.13C78.4102 452.48 73.3102 444.99 65.9402 441.52C63.1202 440.2 59.9702 439.45 56.6502 439.45C53.3502 439.45 50.2102 440.19 47.4102 441.51C40.0302 444.97 34.9202 452.46 34.9202 461.13Z" fill="#FF1091"/>
<path d="M56.6502 483.3C44.4002 483.3 34.4402 473.35 34.4402 461.12C34.4402 452.58 39.4502 444.71 47.2102 441.06C50.1802 439.66 53.3502 438.96 56.6502 438.96C59.9602 438.96 63.1502 439.67 66.1402 441.07C73.8802 444.72 78.8902 452.59 78.8902 461.11C78.8902 473.35 68.9202 483.3 56.6502 483.3ZM56.6502 439.92C53.4902 439.92 50.4502 440.6 47.6102 441.93C40.1902 445.42 35.3902 452.95 35.3902 461.12C35.3902 472.82 44.9202 482.34 56.6502 482.34C68.3802 482.34 77.9302 472.82 77.9302 461.12C77.9302 452.96 73.1402 445.43 65.7302 441.94C62.8802 440.6 59.8202 439.92 56.6502 439.92Z" fill="#373B42"/>
<path d="M175.78 117.19C174.09 119.95 173.01 123.11 173.02 125.94L173.1 154.91L191.15 165.36L191.07 136.41C191.06 133.57 192.14 130.42 193.83 127.66" fill="#DBDEE4"/>
<path d="M191.15 165.84C191.07 165.84 190.98 165.82 190.91 165.78L172.86 155.33C172.71 155.25 172.62 155.09 172.62 154.92L172.54 125.95C172.53 123.13 173.54 119.93 175.37 116.95C175.51 116.72 175.8 116.65 176.03 116.79C176.26 116.93 176.33 117.22 176.19 117.45C174.47 120.24 173.49 123.34 173.5 125.95L173.58 154.65L190.67 164.55L190.59 136.43C190.58 133.61 191.58 130.42 193.42 127.43C193.56 127.2 193.85 127.13 194.08 127.27C194.31 127.41 194.38 127.7 194.24 127.93C192.52 130.73 191.54 133.82 191.55 136.43L191.63 165.38C191.63 165.55 191.54 165.71 191.39 165.79C191.32 165.82 191.23 165.84 191.15 165.84Z" fill="#373B42"/>
<path d="M137.2 297.49C137.21 300.35 135.68 302.99 133.21 304.42L82.1401 333.82C80.2301 334.92 77.8401 333.54 77.8301 331.34V330.16C77.8201 326.93 79.5401 323.95 82.3401 322.34L131.36 294.12C133.95 292.63 137.19 294.5 137.2 297.49Z" fill="white"/>
<path d="M137.2 322.34C137.21 325.2 135.68 327.84 133.21 329.27L82.1401 358.67C80.2301 359.77 77.8401 358.39 77.8301 356.19V355.01C77.8201 351.78 79.5401 348.8 82.3401 347.19L131.36 318.97C133.95 317.48 137.19 319.35 137.2 322.34Z" fill="white"/>
<g opacity="0.1">
<path d="M324.15 438.95C321.11 440.7 321.09 443.54 324.1 445.28L399.01 488.7C402.02 490.44 406.93 490.44 409.97 488.69L485.36 445.28C488.4 443.53 488.42 440.69 485.41 438.95L410.5 395.53C407.49 393.79 402.58 393.79 399.54 395.54L324.15 438.95Z" fill="black"/>
</g>
<path d="M490.01 431.67C490.01 432.83 489.25 434 487.72 434.86L412.34 478.29C410.87 479.13 408.96 479.56 407.06 479.6C405.01 479.62 402.94 479.19 401.37 478.29L326.46 434.86C324.99 434.02 324.23 432.88 324.23 431.74L324.17 393.39C324.17 394.53 324.93 395.66 326.42 396.51L401.33 439.94C402.89 440.84 404.99 441.27 407.06 441.23C408.94 441.19 410.83 440.76 412.28 439.94L487.66 396.51C489.2 395.63 489.95 394.49 489.95 393.32L490.01 431.67Z" fill="white"/>
<path d="M406.91 480.07C404.72 480.07 402.67 479.59 401.12 478.7L326.2 435.27C324.63 434.38 323.73 433.09 323.73 431.73L323.67 393.39C323.67 393.13 323.88 392.91 324.15 392.91C324.41 392.91 324.63 393.12 324.63 393.39V393.4C324.63 394.4 325.35 395.36 326.64 396.1L401.56 439.53C402.98 440.35 404.98 440.79 407.04 440.75C408.93 440.71 410.7 440.27 412.04 439.53L487.42 396.1C488.75 395.34 489.47 394.36 489.47 393.33C489.47 393.07 489.68 392.85 489.95 392.85C490.21 392.85 490.43 393.06 490.43 393.33L490.49 431.67C490.49 433.08 489.59 434.36 487.95 435.27L412.57 478.7C411.09 479.54 409.14 480.03 407.06 480.07C407.01 480.07 406.96 480.07 406.91 480.07ZM324.64 395.71L324.7 431.72C324.7 432.72 325.42 433.71 326.69 434.43L401.61 477.86C403.05 478.68 405.03 479.13 407.06 479.1C408.98 479.06 410.77 478.62 412.11 477.86L487.49 434.43C488.82 433.69 489.54 432.71 489.54 431.66L489.48 395.66C489.07 396.12 488.54 396.54 487.9 396.91L412.52 440.34C411.05 441.17 409.11 441.64 407.07 441.69C404.84 441.73 402.65 441.24 401.09 440.34L326.18 396.91C325.55 396.56 325.03 396.16 324.64 395.71Z" fill="#373B42"/>
<path d="M407.05 479.59C405 479.61 402.93 479.18 401.36 478.28L326.45 434.85C324.98 434.01 324.22 432.87 324.22 431.73L324.16 393.38C324.16 394.52 324.92 395.65 326.41 396.5L401.32 439.93C402.88 440.83 404.98 441.26 407.05 441.22" fill="#DBDEE4"/>
<path d="M406.91 480.07C404.73 480.07 402.68 479.59 401.12 478.7L326.2 435.27C324.63 434.38 323.73 433.09 323.73 431.73L323.67 393.39C323.67 393.39 323.67 393.39 323.67 393.38C323.67 393.12 323.88 392.9 324.15 392.9C324.41 392.9 324.63 393.11 324.63 393.38V393.39C324.63 394.39 325.35 395.35 326.64 396.09L401.56 439.52C402.98 440.34 404.98 440.78 407.04 440.74C407.33 440.72 407.52 440.95 407.53 441.21C407.54 441.47 407.32 441.69 407.06 441.7C404.83 441.75 402.64 441.25 401.08 440.35L326.17 396.92C325.55 396.56 325.03 396.16 324.64 395.71L324.7 431.72C324.7 432.72 325.42 433.71 326.69 434.43L401.61 477.86C403.05 478.68 405.03 479.13 407.06 479.1C407.06 479.1 407.06 479.1 407.07 479.1C407.33 479.1 407.55 479.31 407.55 479.57C407.55 479.83 407.34 480.05 407.08 480.05C407.01 480.07 406.96 480.07 406.91 480.07Z" fill="#373B42"/>
<path d="M446.91 448.02C446.75 448.02 446.59 447.93 446.5 447.78C446.37 447.55 446.45 447.26 446.68 447.13L480.37 427.72C480.59 427.59 480.89 427.66 481.02 427.9C481.15 428.13 481.07 428.42 480.84 428.55L447.15 447.96C447.08 448 446.99 448.02 446.91 448.02Z" fill="#373B42"/>
<path d="M417.99 465.56C417.73 465.56 417.51 465.35 417.51 465.08V448.35C417.51 448.09 417.72 447.87 417.99 447.87C418.25 447.87 418.47 448.08 418.47 448.35V465.08C418.47 465.35 418.26 465.56 417.99 465.56Z" fill="#373B42"/>
<path d="M424.34 461.9C424.08 461.9 423.86 461.69 423.86 461.42V444.69C423.86 444.43 424.07 444.21 424.34 444.21C424.6 444.21 424.82 444.42 424.82 444.69V461.42C424.82 461.69 424.6 461.9 424.34 461.9Z" fill="#373B42"/>
<path d="M430.69 458.24C430.43 458.24 430.21 458.03 430.21 457.76V441.03C430.21 440.77 430.42 440.55 430.69 440.55C430.96 440.55 431.17 440.76 431.17 441.03V457.76C431.17 458.03 430.96 458.24 430.69 458.24Z" fill="#373B42"/>
<path d="M326.44 390.18C323.4 391.93 323.38 394.77 326.39 396.51L401.3 439.93C404.31 441.67 409.21 441.67 412.26 439.92L487.65 396.51C490.69 394.76 490.71 391.92 487.7 390.18L412.79 346.76C409.78 345.02 404.87 345.02 401.83 346.77L326.44 390.18Z" fill="white"/>
<path d="M406.77 441.71C404.7 441.71 402.64 441.26 401.07 440.35L326.16 396.93C324.56 396 323.67 394.73 323.68 393.37C323.68 391.99 324.58 390.71 326.21 389.78L401.6 346.37C404.77 344.55 409.9 344.54 413.04 346.36L487.95 389.78C489.55 390.71 490.44 391.97 490.43 393.34C490.43 394.72 489.53 396 487.9 396.94L412.51 440.35C410.92 441.25 408.84 441.71 406.77 441.71ZM407.33 345.93C405.43 345.93 403.52 346.35 402.07 347.19L326.68 390.6C325.36 391.36 324.63 392.34 324.63 393.37C324.63 394.38 325.34 395.35 326.64 396.1L401.55 439.52C404.43 441.19 409.13 441.18 412.03 439.51L487.42 396.1C488.74 395.34 489.47 394.36 489.47 393.33C489.47 392.32 488.76 391.35 487.46 390.6L412.55 347.18C411.12 346.35 409.23 345.93 407.33 345.93Z" fill="#373B42"/>
<path d="M477.5 412.32C479.62 411.1 481.35 412.08 481.35 414.5C481.36 416.93 479.64 419.89 477.52 421.11C475.41 422.32 473.69 421.34 473.68 418.91C473.68 416.5 475.4 413.54 477.5 412.32Z" fill="#FF1091"/>
<path d="M463.82 420.2C465.94 418.98 467.67 419.96 467.67 422.38C467.68 424.81 465.96 427.77 463.84 428.99C461.73 430.2 460.01 429.22 460 426.79C460 424.38 461.72 421.42 463.82 420.2Z" fill="#FF1091"/>
<path d="M450.15 428.08C452.27 426.86 454 427.84 454 430.26C454.01 432.69 452.29 435.65 450.17 436.87C448.06 438.08 446.34 437.1 446.33 434.67C446.32 432.26 448.04 429.3 450.15 428.08Z" fill="#FF1091"/>
<path d="M364.9 393.91L406.78 418.18L448.97 393.89L407.09 369.61L364.9 393.91Z" fill="white"/>
<path d="M406.78 418.66C406.7 418.66 406.61 418.64 406.54 418.6L364.65 394.32C364.5 394.23 364.41 394.08 364.41 393.91C364.41 393.74 364.5 393.58 364.65 393.5L406.84 369.21C406.99 369.13 407.17 369.13 407.32 369.21L449.21 393.48C449.36 393.57 449.45 393.72 449.45 393.89C449.45 394.06 449.36 394.22 449.21 394.3L407.02 418.59C406.95 418.64 406.87 418.66 406.78 418.66ZM365.85 393.91L406.78 417.63L448.02 393.89L407.09 370.17L365.85 393.91Z" fill="#373B42"/>
<path d="M448.96 393.89L441.42 398.23L407.1 378.32L372.43 398.28L364.89 393.91L407.1 369.62L448.96 393.89Z" fill="#BEC4CD"/>
<path d="M372.44 398.75C372.36 398.75 372.27 398.73 372.2 398.69L364.65 394.33C364.5 394.25 364.41 394.09 364.41 393.92C364.41 393.75 364.5 393.59 364.65 393.51L406.86 369.22C407.01 369.14 407.19 369.14 407.34 369.22L449.2 393.49C449.35 393.58 449.44 393.73 449.44 393.9C449.44 394.07 449.35 394.23 449.2 394.31L441.66 398.65C441.51 398.73 441.33 398.73 441.18 398.65L407.1 378.88L372.68 398.69C372.6 398.73 372.52 398.75 372.44 398.75ZM365.85 393.91L372.44 397.72L406.87 377.91C407.02 377.83 407.2 377.83 407.35 377.91L441.43 397.68L448.02 393.89L407.11 370.17L365.85 393.91Z" fill="#373B42"/>
<path d="M407.1 378.32L372.43 398.28L364.89 393.91L407.1 369.62V378.32Z" fill="#DBDEE4"/>
<path d="M372.44 398.75C372.36 398.75 372.27 398.73 372.2 398.69L364.65 394.33C364.5 394.25 364.41 394.09 364.41 393.92C364.41 393.75 364.5 393.59 364.65 393.51L406.86 369.22C407.01 369.14 407.19 369.14 407.34 369.22C407.49 369.3 407.58 369.46 407.58 369.63V378.34C407.58 378.51 407.49 378.67 407.34 378.75L372.68 398.7C372.6 398.73 372.52 398.75 372.44 398.75ZM365.85 393.91L372.44 397.72L406.63 378.04V370.44L365.85 393.91Z" fill="#373B42"/>
<path d="M490.01 380.77C490.01 381.93 489.25 383.1 487.72 383.96L412.34 427.39C410.87 428.23 408.96 428.66 407.06 428.7C405.01 428.72 402.94 428.29 401.37 427.39L326.46 383.96C324.99 383.12 324.23 381.98 324.23 380.84L324.17 342.49C324.17 343.63 324.93 344.76 326.42 345.61L401.33 389.04C402.89 389.94 404.99 390.37 407.06 390.33C408.94 390.29 410.83 389.86 412.28 389.04L487.66 345.61C489.2 344.73 489.95 343.59 489.95 342.42L490.01 380.77Z" fill="white"/>
<path d="M406.92 429.17C404.73 429.17 402.68 428.68 401.12 427.8L326.2 384.37C324.63 383.48 323.73 382.19 323.73 380.83L323.67 342.49C323.67 342.23 323.88 342.01 324.15 342.01C324.41 342.01 324.63 342.22 324.63 342.49V342.5C324.63 343.5 325.35 344.46 326.64 345.2L401.56 388.63C402.98 389.45 404.98 389.9 407.04 389.85C408.93 389.81 410.7 389.37 412.04 388.63L487.42 345.2C488.75 344.44 489.47 343.46 489.47 342.43C489.47 342.17 489.68 341.95 489.95 341.95C490.21 341.95 490.43 342.16 490.43 342.43L490.49 380.77C490.49 382.18 489.59 383.46 487.95 384.37L412.57 427.8C411.09 428.64 409.14 429.13 407.06 429.17C407.02 429.17 406.97 429.17 406.92 429.17ZM324.64 344.81L324.7 380.82C324.7 381.82 325.42 382.81 326.69 383.53L401.61 426.96C403.05 427.78 405.02 428.23 407.06 428.2C408.97 428.16 410.77 427.72 412.11 426.96L487.49 383.53C488.82 382.79 489.54 381.81 489.54 380.76L489.48 344.76C489.07 345.22 488.54 345.64 487.9 346.01L412.52 389.44C411.04 390.27 409.11 390.75 407.07 390.79C404.88 390.84 402.65 390.34 401.09 389.44L326.18 346.01C325.55 345.66 325.03 345.26 324.64 344.81Z" fill="#373B42"/>
<path d="M407.05 428.69C405 428.71 402.93 428.28 401.36 427.38L326.45 383.95C324.98 383.11 324.22 381.97 324.22 380.83L324.16 342.48C324.16 343.62 324.92 344.75 326.41 345.6L401.32 389.03C402.88 389.93 404.98 390.36 407.05 390.32" fill="#DBDEE4"/>
<path d="M406.91 429.17C404.73 429.17 402.67 428.68 401.12 427.8L326.2 384.37C324.63 383.48 323.73 382.19 323.73 380.83L323.67 342.49C323.67 342.49 323.67 342.49 323.67 342.48C323.67 342.22 323.88 342 324.15 342C324.41 342 324.63 342.21 324.63 342.48V342.49C324.63 343.49 325.35 344.45 326.64 345.19L401.56 388.62C402.98 389.44 404.98 389.89 407.04 389.84C407.33 389.84 407.52 390.04 407.53 390.31C407.54 390.57 407.32 390.79 407.06 390.8C404.83 390.86 402.64 390.35 401.08 389.45L326.17 346.02C325.55 345.66 325.03 345.26 324.64 344.81L324.7 380.82C324.7 381.82 325.42 382.81 326.69 383.53L401.61 426.96C403.05 427.78 405.02 428.23 407.06 428.2C407.32 428.2 407.54 428.41 407.54 428.67C407.54 428.93 407.33 429.15 407.07 429.15C407.01 429.17 406.96 429.17 406.91 429.17Z" fill="#373B42"/>
<path d="M446.91 397.12C446.75 397.12 446.59 397.03 446.5 396.88C446.37 396.65 446.45 396.36 446.68 396.23L480.37 376.82C480.59 376.69 480.89 376.76 481.02 377C481.15 377.23 481.07 377.52 480.84 377.65L447.15 397.06C447.08 397.09 446.99 397.12 446.91 397.12Z" fill="#373B42"/>
<path d="M417.99 414.66C417.73 414.66 417.51 414.45 417.51 414.18V397.45C417.51 397.19 417.72 396.97 417.99 396.97C418.25 396.97 418.47 397.18 418.47 397.45V414.18C418.47 414.45 418.26 414.66 417.99 414.66Z" fill="#373B42"/>
<path d="M424.34 411C424.08 411 423.86 410.79 423.86 410.52V393.79C423.86 393.53 424.07 393.31 424.34 393.31C424.6 393.31 424.82 393.52 424.82 393.79V410.52C424.82 410.79 424.6 411 424.34 411Z" fill="#373B42"/>
<path d="M430.69 407.34C430.43 407.34 430.21 407.13 430.21 406.86V390.13C430.21 389.87 430.42 389.65 430.69 389.65C430.96 389.65 431.17 389.86 431.17 390.13V406.86C431.17 407.13 430.96 407.34 430.69 407.34Z" fill="#373B42"/>
<path d="M326.44 339.28C323.4 341.03 323.38 343.87 326.39 345.61L401.3 389.03C404.31 390.77 409.21 390.77 412.26 389.02L487.65 345.61C490.69 343.86 490.71 341.02 487.7 339.28L412.79 295.86C409.78 294.12 404.87 294.12 401.83 295.87L326.44 339.28Z" fill="white"/>
<path d="M406.77 390.8C404.7 390.8 402.64 390.35 401.07 389.44L326.16 346.02C324.56 345.09 323.67 343.82 323.68 342.46C323.68 341.08 324.58 339.8 326.21 338.87L401.6 295.46C404.77 293.64 409.9 293.63 413.04 295.45L487.95 338.87C489.55 339.8 490.44 341.07 490.43 342.43C490.43 343.81 489.53 345.09 487.9 346.02L412.51 389.43C410.92 390.35 408.84 390.8 406.77 390.8ZM407.33 295.03C405.43 295.03 403.52 295.45 402.07 296.29L326.68 339.7C325.36 340.46 324.63 341.44 324.63 342.47C324.63 343.48 325.34 344.45 326.64 345.2L401.55 388.62C404.43 390.29 409.13 390.28 412.03 388.61L487.42 345.2C488.74 344.44 489.47 343.46 489.47 342.43C489.47 341.42 488.76 340.45 487.46 339.7L412.55 296.28C411.12 295.45 409.23 295.03 407.33 295.03Z" fill="#373B42"/>
<path d="M477.5 361.42C479.62 360.2 481.35 361.18 481.35 363.6C481.36 366.03 479.64 368.99 477.52 370.21C475.41 371.42 473.69 370.44 473.68 368.01C473.68 365.6 475.4 362.64 477.5 361.42Z" fill="#FF1091"/>
<path d="M463.82 369.3C465.94 368.08 467.67 369.06 467.67 371.48C467.68 373.91 465.96 376.87 463.84 378.09C461.73 379.3 460.01 378.32 460 375.89C460 373.48 461.72 370.52 463.82 369.3Z" fill="#FF1091"/>
<path d="M450.15 377.18C452.27 375.96 454 376.94 454 379.36C454.01 381.79 452.29 384.75 450.17 385.97C448.06 387.18 446.34 386.2 446.33 383.77C446.32 381.36 448.04 378.39 450.15 377.18Z" fill="#FF1091"/>
<path d="M364.9 343.01L406.78 367.28L448.97 342.99L407.09 318.71L364.9 343.01Z" fill="white"/>
<path d="M406.78 367.76C406.7 367.76 406.61 367.74 406.54 367.7L364.65 343.42C364.5 343.33 364.41 343.18 364.41 343.01C364.41 342.84 364.5 342.68 364.65 342.6L406.84 318.31C406.99 318.23 407.17 318.23 407.32 318.31L449.21 342.58C449.36 342.67 449.45 342.82 449.45 342.99C449.45 343.16 449.36 343.32 449.21 343.4L407.02 367.69C406.95 367.74 406.87 367.76 406.78 367.76ZM365.85 343.01L406.78 366.73L448.02 342.99L407.09 319.27L365.85 343.01Z" fill="#373B42"/>
<path d="M448.96 342.99L441.42 347.33L407.1 327.42L372.43 347.37L364.89 343.01L407.1 318.72L448.96 342.99Z" fill="#373B42"/>
<path d="M372.44 347.85C372.36 347.85 372.27 347.83 372.2 347.79L364.65 343.43C364.5 343.35 364.41 343.19 364.41 343.02C364.41 342.85 364.5 342.69 364.65 342.61L406.86 318.32C407.01 318.24 407.19 318.24 407.34 318.32L449.2 342.59C449.35 342.68 449.44 342.83 449.44 343C449.44 343.17 449.35 343.33 449.2 343.41L441.66 347.75C441.51 347.83 441.33 347.83 441.18 347.75L407.1 327.98L372.68 347.79C372.6 347.83 372.52 347.85 372.44 347.85ZM365.85 343.01L372.44 346.82L406.87 327.01C407.02 326.93 407.2 326.93 407.35 327.01L441.43 346.78L448.02 342.99L407.11 319.27L365.85 343.01Z" fill="#373B42"/>
<path d="M407.1 327.42L372.43 347.37L364.89 343.01L407.1 318.72V327.42Z" fill="#DBDEE4"/>
<path d="M372.44 347.85C372.36 347.85 372.27 347.83 372.2 347.79L364.65 343.43C364.5 343.35 364.41 343.19 364.41 343.02C364.41 342.85 364.5 342.69 364.65 342.61L406.86 318.32C407.01 318.24 407.19 318.24 407.34 318.32C407.49 318.4 407.58 318.56 407.58 318.73V327.44C407.58 327.61 407.49 327.77 407.34 327.85L372.68 347.8C372.6 347.83 372.52 347.85 372.44 347.85ZM365.85 343.01L372.44 346.82L406.63 327.14V319.54L365.85 343.01Z" fill="#373B42"/>
<path d="M345.89 275.25L367.63 344.09L406.78 366.8L446.24 344.09L467.98 275.25C467.98 241.03 345.89 241.03 345.89 275.25Z" fill="url(#paint0_linear_71_40580)"/>
<g opacity="0.1">
<path d="M330.26 175.81C327.54 177.37 327.53 179.9 330.22 181.46L397.13 220.24C399.82 221.8 404.2 221.8 406.92 220.23L474.25 181.46C476.97 179.9 476.98 177.37 474.29 175.81L407.38 137.03C404.69 135.47 400.31 135.47 397.59 137.04L330.26 175.81Z" fill="black"/>
</g>
<path d="M477.86 165.92C477.86 166.96 477.18 168 475.81 168.76L408.48 207.55C407.16 208.3 405.46 208.68 403.76 208.72C401.93 208.74 400.08 208.36 398.68 207.55L331.77 168.76C330.45 168.01 329.78 166.99 329.78 165.97L329.73 131.72C329.73 132.74 330.41 133.74 331.74 134.51L398.65 173.3C400.04 174.1 401.92 174.49 403.77 174.45C405.45 174.41 407.13 174.03 408.43 173.3L475.76 134.51C477.13 133.73 477.81 132.7 477.81 131.67L477.86 165.92Z" fill="white"/>
<path d="M403.64 209.2C401.68 209.2 399.84 208.76 398.44 207.97L331.53 169.18C330.11 168.38 329.3 167.21 329.3 165.98L329.25 131.74C329.25 131.48 329.46 131.26 329.73 131.26C329.99 131.26 330.21 131.47 330.21 131.74V131.75C330.21 132.62 330.84 133.47 331.98 134.12L398.89 172.91C400.15 173.64 401.93 174.03 403.76 173.99C405.44 173.95 407.01 173.57 408.2 172.9L475.52 134.12C476.69 133.45 477.33 132.59 477.33 131.69C477.33 131.43 477.54 131.21 477.81 131.21C478.07 131.21 478.29 131.42 478.29 131.69L478.34 165.94C478.34 167.22 477.53 168.38 476.05 169.2L408.73 207.98C407.4 208.73 405.65 209.17 403.78 209.21C403.73 209.2 403.69 209.2 403.64 209.2ZM330.21 133.94L330.26 165.97C330.26 166.85 330.9 167.71 332.01 168.35L398.92 207.14C400.2 207.87 401.94 208.25 403.76 208.24C405.46 208.2 407.06 207.81 408.25 207.14L475.57 168.35C476.74 167.7 477.38 166.84 477.38 165.92L477.33 133.9C476.98 134.28 476.53 134.63 475.99 134.93L408.67 173.72C407.35 174.46 405.61 174.89 403.78 174.93C401.78 174.97 399.81 174.53 398.41 173.72L331.5 134.93C330.99 134.64 330.55 134.3 330.21 133.94Z" fill="#373B42"/>
<path d="M403.77 208.72C401.94 208.74 400.09 208.36 398.69 207.55L331.78 168.76C330.46 168.01 329.79 166.99 329.79 165.97L329.74 131.72C329.74 132.74 330.42 133.74 331.75 134.51L398.66 173.3C400.05 174.1 401.93 174.49 403.78 174.45" fill="#DBDEE4"/>
<path d="M403.64 209.2C401.68 209.2 399.84 208.76 398.45 207.97L331.54 169.18C330.12 168.38 329.31 167.21 329.31 165.98L329.25 131.74C329.25 131.48 329.46 131.26 329.73 131.26C329.99 131.26 330.21 131.47 330.21 131.74C330.21 132.62 330.84 133.46 331.98 134.12L398.89 172.91C400.15 173.64 401.93 174.03 403.76 173.99C404.05 174.02 404.24 174.19 404.25 174.46C404.26 174.72 404.04 174.94 403.78 174.95C401.77 174.99 399.81 174.55 398.41 173.74L331.5 134.95C330.98 134.65 330.55 134.32 330.21 133.96L330.26 165.99C330.26 166.87 330.9 167.73 332.01 168.37L398.92 207.16C400.2 207.89 401.94 208.27 403.76 208.26C403.76 208.26 403.76 208.26 403.77 208.26C404.03 208.26 404.25 208.47 404.25 208.73C404.25 208.99 404.04 209.21 403.78 209.21C403.73 209.2 403.68 209.2 403.64 209.2Z" fill="#373B42"/>
<path d="M439.36 180.57C439.2 180.57 439.04 180.48 438.95 180.33C438.82 180.1 438.9 179.81 439.13 179.68L469.22 162.35C469.44 162.22 469.74 162.3 469.87 162.53C470 162.76 469.92 163.05 469.69 163.18L439.6 180.51C439.53 180.55 439.45 180.57 439.36 180.57Z" fill="#373B42"/>
<path d="M413.53 196.24C413.27 196.24 413.05 196.03 413.05 195.76V180.82C413.05 180.56 413.26 180.34 413.53 180.34C413.8 180.34 414.01 180.55 414.01 180.82V195.76C414.01 196.03 413.8 196.24 413.53 196.24Z" fill="#373B42"/>
<path d="M419.21 192.97C418.95 192.97 418.73 192.76 418.73 192.49V177.55C418.73 177.29 418.94 177.07 419.21 177.07C419.48 177.07 419.69 177.28 419.69 177.55V192.49C419.68 192.76 419.47 192.97 419.21 192.97Z" fill="#373B42"/>
<path d="M424.88 189.71C424.62 189.71 424.4 189.5 424.4 189.23V174.29C424.4 174.03 424.61 173.81 424.88 173.81C425.15 173.81 425.36 174.02 425.36 174.29V189.23C425.36 189.49 425.14 189.71 424.88 189.71Z" fill="#373B42"/>
<path d="M331.77 128.87C329.05 130.43 329.04 132.96 331.73 134.52L398.64 173.3C401.33 174.86 405.71 174.86 408.43 173.29L475.76 134.52C478.48 132.96 478.49 130.43 475.8 128.87L408.89 90.09C406.2 88.53 401.82 88.53 399.1 90.1L331.77 128.87Z" fill="white"/>
<path d="M403.51 174.93C401.65 174.93 399.8 174.52 398.39 173.71L331.49 134.93C330.04 134.09 329.24 132.95 329.25 131.71C329.25 130.46 330.06 129.3 331.54 128.45L398.87 89.68C401.71 88.04 406.32 88.04 409.13 89.67L476.04 128.45C477.49 129.29 478.28 130.43 478.28 131.67C478.28 132.92 477.47 134.08 475.99 134.93L408.66 173.7C407.24 174.53 405.37 174.93 403.51 174.93ZM404.02 89.4C402.33 89.4 400.64 89.77 399.35 90.52L332.02 129.29C330.85 129.96 330.21 130.82 330.21 131.72C330.21 132.6 330.84 133.45 331.98 134.12L398.88 172.9C401.44 174.38 405.61 174.38 408.19 172.89L475.52 134.12C476.69 133.45 477.33 132.59 477.33 131.69C477.33 130.81 476.7 129.96 475.57 129.29L408.66 90.51C407.38 89.77 405.7 89.4 404.02 89.4Z" fill="#373B42"/>
<path d="M466.69 148.64C468.58 147.55 470.13 148.43 470.13 150.59C470.14 152.76 468.6 155.41 466.71 156.5C464.83 157.58 463.29 156.71 463.28 154.54C463.27 152.37 464.8 149.73 466.69 148.64Z" fill="#FF1091"/>
<path d="M454.47 155.68C456.36 154.59 457.91 155.47 457.91 157.63C457.92 159.8 456.38 162.45 454.49 163.54C452.61 164.62 451.07 163.75 451.06 161.58C451.06 159.41 452.59 156.76 454.47 155.68Z" fill="#FF1091"/>
<path d="M442.25 162.72C444.14 161.63 445.69 162.51 445.69 164.67C445.7 166.84 444.16 169.49 442.27 170.58C440.39 171.66 438.85 170.79 438.84 168.62C438.84 166.45 440.37 163.8 442.25 162.72Z" fill="#FF1091"/>
<path d="M366.12 132.2L403.53 153.88L441.21 132.18L403.8 110.5L366.12 132.2Z" fill="white"/>
<path d="M403.53 154.35C403.45 154.35 403.36 154.33 403.29 154.29L365.88 132.61C365.73 132.52 365.64 132.37 365.64 132.2C365.64 132.03 365.73 131.87 365.88 131.79L403.56 110.09C403.71 110.01 403.89 110.01 404.04 110.09L441.45 131.77C441.6 131.86 441.69 132.01 441.69 132.18C441.69 132.35 441.6 132.51 441.45 132.59L403.77 154.29C403.69 154.33 403.61 154.35 403.53 154.35ZM367.07 132.2L403.52 153.33L440.25 132.18L403.8 111.05L367.07 132.2Z" fill="#373B42"/>
<path d="M441.2 132.18L434.46 136.06L403.81 118.28L372.85 136.1L366.11 132.2L403.81 110.5L441.2 132.18Z" fill="#BEC4CD"/>
<path d="M372.85 136.58C372.77 136.58 372.68 136.56 372.61 136.52L365.87 132.62C365.72 132.54 365.63 132.38 365.63 132.21C365.63 132.04 365.72 131.88 365.87 131.8L403.57 110.1C403.72 110.02 403.9 110.02 404.05 110.1L441.44 131.78C441.59 131.87 441.68 132.02 441.68 132.19C441.68 132.36 441.59 132.52 441.44 132.6L434.7 136.48C434.55 136.56 434.37 136.56 434.22 136.48L403.81 118.84L373.09 136.52C373.01 136.55 372.93 136.58 372.85 136.58ZM367.06 132.2L372.84 135.55L403.56 117.87C403.71 117.79 403.89 117.79 404.04 117.87L434.45 135.51L440.23 132.18L403.8 111.06L367.06 132.2Z" fill="#373B42"/>
<path d="M403.81 118.28L372.85 136.1L366.11 132.2L403.81 110.5V118.28Z" fill="#DBDEE4"/>
<path d="M372.85 136.58C372.77 136.58 372.68 136.56 372.61 136.52L365.87 132.62C365.72 132.54 365.63 132.38 365.63 132.21C365.63 132.04 365.72 131.88 365.87 131.8L403.57 110.1C403.72 110.02 403.9 110.02 404.05 110.1C404.2 110.18 404.29 110.34 404.29 110.51V118.29C404.29 118.46 404.2 118.62 404.05 118.7L373.09 136.52C373.01 136.55 372.93 136.58 372.85 136.58ZM367.06 132.2L372.84 135.55L403.33 118V111.33L367.06 132.2Z" fill="#373B42"/>
<path d="M477.86 120.46C477.86 121.5 477.18 122.54 475.81 123.3L408.48 162.09C407.16 162.84 405.46 163.22 403.76 163.26C401.93 163.28 400.08 162.9 398.68 162.09L331.77 123.3C330.45 122.55 329.78 121.53 329.78 120.51L329.73 86.26C329.73 87.28 330.41 88.28 331.74 89.05L398.65 127.84C400.04 128.64 401.92 129.03 403.77 128.99C405.45 128.95 407.13 128.57 408.43 127.84L475.76 89.05C477.13 88.27 477.81 87.24 477.81 86.21L477.86 120.46Z" fill="white"/>
<path d="M403.65 163.74C401.69 163.74 399.84 163.3 398.45 162.51L331.54 123.72C330.12 122.92 329.31 121.75 329.31 120.52L329.25 86.28C329.25 86.02 329.46 85.8 329.73 85.8C329.99 85.8 330.21 86.01 330.21 86.28V86.29C330.21 87.16 330.84 88.01 331.98 88.66L398.89 127.45C400.15 128.18 401.93 128.58 403.76 128.53C405.44 128.49 407.01 128.11 408.2 127.44L475.52 88.65C476.69 87.98 477.33 87.12 477.33 86.22C477.33 85.96 477.54 85.74 477.81 85.74C478.07 85.74 478.29 85.95 478.29 86.22L478.34 120.47C478.34 121.73 477.51 122.92 476.05 123.73L408.73 162.51C407.4 163.26 405.65 163.7 403.78 163.74C403.73 163.74 403.69 163.74 403.65 163.74ZM330.21 88.48L330.26 120.51C330.26 121.39 330.9 122.25 332.01 122.89L398.92 161.68C400.2 162.41 401.95 162.79 403.76 162.78C405.46 162.74 407.05 162.35 408.25 161.68L475.57 122.89C476.74 122.24 477.38 121.38 477.38 120.46L477.33 88.44C476.98 88.82 476.53 89.17 475.99 89.47L408.67 128.26C407.35 129 405.61 129.43 403.78 129.47C401.78 129.51 399.81 129.07 398.41 128.26L331.5 89.47C330.99 89.18 330.55 88.84 330.21 88.48Z" fill="#373B42"/>
<path d="M403.77 163.26C401.94 163.28 400.09 162.9 398.69 162.09L331.78 123.3C330.46 122.55 329.79 121.53 329.79 120.51L329.74 86.26C329.74 87.28 330.42 88.28 331.75 89.05L398.66 127.84C400.05 128.64 401.93 129.03 403.78 128.99" fill="#DBDEE4"/>
<path d="M403.64 163.74C401.68 163.74 399.84 163.3 398.44 162.51L331.53 123.72C330.11 122.92 329.3 121.75 329.3 120.52L329.25 86.28C329.25 86.02 329.46 85.8 329.73 85.8C329.99 85.8 330.21 86.01 330.21 86.28C330.21 87.16 330.84 88 331.98 88.66L398.89 127.45C400.15 128.18 401.93 128.58 403.76 128.53C404.05 128.53 404.24 128.73 404.25 129C404.26 129.26 404.04 129.48 403.78 129.49C401.77 129.53 399.81 129.09 398.41 128.28L331.5 89.49C330.98 89.19 330.55 88.86 330.21 88.5L330.26 120.53C330.26 121.41 330.9 122.27 332.01 122.91L398.92 161.7C400.2 162.43 401.95 162.81 403.76 162.8C404.02 162.8 404.24 163.01 404.24 163.27C404.24 163.53 404.03 163.75 403.77 163.75C403.73 163.74 403.68 163.74 403.64 163.74Z" fill="#373B42"/>
<path d="M439.36 135.11C439.2 135.11 439.04 135.02 438.95 134.87C438.82 134.64 438.9 134.35 439.13 134.22L469.22 116.89C469.44 116.76 469.74 116.83 469.87 117.07C470 117.3 469.92 117.59 469.69 117.72L439.6 135.05C439.53 135.09 439.45 135.11 439.36 135.11Z" fill="#373B42"/>
<path d="M413.53 150.78C413.27 150.78 413.05 150.57 413.05 150.3V135.36C413.05 135.1 413.26 134.88 413.53 134.88C413.8 134.88 414.01 135.09 414.01 135.36V150.3C414.01 150.57 413.8 150.78 413.53 150.78Z" fill="#373B42"/>
<path d="M419.21 147.51C418.95 147.51 418.73 147.3 418.73 147.03V132.09C418.73 131.83 418.94 131.61 419.21 131.61C419.48 131.61 419.69 131.82 419.69 132.09V147.03C419.68 147.3 419.47 147.51 419.21 147.51Z" fill="#373B42"/>
<path d="M424.88 144.25C424.62 144.25 424.4 144.04 424.4 143.77V128.83C424.4 128.57 424.61 128.35 424.88 128.35C425.15 128.35 425.36 128.56 425.36 128.83V143.77C425.36 144.03 425.14 144.25 424.88 144.25Z" fill="#373B42"/>
<path d="M331.77 83.4101C329.05 84.9701 329.04 87.5001 331.73 89.0601L398.64 127.84C401.33 129.4 405.71 129.4 408.43 127.83L475.76 89.0601C478.48 87.5001 478.49 84.9701 475.8 83.4101L408.89 44.6301C406.2 43.0701 401.82 43.0701 399.1 44.6401L331.77 83.4101Z" fill="white"/>
<path d="M403.51 129.47C401.65 129.47 399.8 129.06 398.39 128.25L331.49 89.47C330.04 88.63 329.24 87.48 329.25 86.24C329.25 84.99 330.06 83.83 331.54 82.99L398.87 44.22C401.71 42.58 406.32 42.58 409.13 44.21L476.04 83C477.49 83.84 478.28 84.99 478.28 86.22C478.28 87.47 477.47 88.63 475.99 89.48L408.66 128.25C407.24 129.06 405.37 129.47 403.51 129.47ZM404.02 43.94C402.33 43.94 400.64 44.31 399.35 45.06L332.02 83.83C330.85 84.5 330.21 85.36 330.21 86.26C330.21 87.14 330.84 88 331.98 88.66L398.88 127.44C401.44 128.92 405.62 128.92 408.19 127.43L475.52 88.66C476.69 87.99 477.33 87.13 477.33 86.23C477.33 85.35 476.7 84.49 475.57 83.83L408.65 45.05C407.38 44.31 405.7 43.94 404.02 43.94Z" fill="#373B42"/>
<path d="M466.69 103.18C468.58 102.09 470.13 102.97 470.13 105.13C470.14 107.3 468.6 109.95 466.71 111.04C464.83 112.12 463.29 111.25 463.28 109.08C463.27 106.91 464.8 104.27 466.69 103.18Z" fill="#FF1091"/>
<path d="M454.47 110.22C456.36 109.13 457.91 110.01 457.91 112.17C457.92 114.34 456.38 116.99 454.49 118.08C452.61 119.16 451.07 118.29 451.06 116.12C451.06 113.95 452.59 111.3 454.47 110.22Z" fill="#FF1091"/>
<path d="M442.25 117.26C444.14 116.17 445.69 117.05 445.69 119.21C445.7 121.38 444.16 124.03 442.27 125.12C440.39 126.2 438.85 125.33 438.84 123.16C438.84 120.99 440.37 118.34 442.25 117.26Z" fill="#FF1091"/>
<path d="M366.12 86.74L403.53 108.42L441.21 86.72L403.8 65.04L366.12 86.74Z" fill="white"/>
<path d="M403.53 108.89C403.45 108.89 403.36 108.87 403.29 108.83L365.88 87.1501C365.73 87.0601 365.64 86.9101 365.64 86.7401C365.64 86.5701 365.73 86.4101 365.88 86.3301L403.56 64.6301C403.71 64.5501 403.89 64.5501 404.04 64.6301L441.45 86.3101C441.6 86.4001 441.69 86.5501 441.69 86.7201C441.69 86.8901 441.6 87.0501 441.45 87.1301L403.77 108.83C403.69 108.87 403.61 108.89 403.53 108.89ZM367.07 86.7401L403.52 107.87L440.25 86.7201L403.8 65.5901L367.07 86.7401Z" fill="#373B42"/>
<path d="M441.2 86.72L434.46 90.6L403.81 72.82L372.85 90.64L366.11 86.74L403.81 65.04L441.2 86.72Z" fill="#373B42"/>
<path d="M372.85 91.1201C372.77 91.1201 372.68 91.1001 372.61 91.0601L365.87 87.1601C365.72 87.0801 365.63 86.9201 365.63 86.7501C365.63 86.5801 365.72 86.4201 365.87 86.3401L403.57 64.6401C403.72 64.5601 403.9 64.5601 404.05 64.6401L441.44 86.3201C441.59 86.4101 441.68 86.5601 441.68 86.7301C441.68 86.9001 441.59 87.0601 441.44 87.1401L434.7 91.0201C434.55 91.1001 434.37 91.1001 434.22 91.0201L403.81 73.3801L373.09 91.0601C373.01 91.0901 372.93 91.1201 372.85 91.1201ZM367.06 86.7401L372.84 90.0901L403.56 72.4101C403.71 72.3301 403.89 72.3301 404.04 72.4101L434.45 90.0501L440.23 86.7201L403.8 65.6001L367.06 86.7401Z" fill="#373B42"/>
<path d="M403.81 72.82L372.85 90.64L366.11 86.74L403.81 65.04V72.82Z" fill="#DBDEE4"/>
<path d="M372.85 91.1201C372.77 91.1201 372.68 91.1001 372.61 91.0601L365.87 87.1601C365.72 87.0801 365.63 86.9201 365.63 86.7501C365.63 86.5801 365.72 86.4201 365.87 86.3401L403.57 64.6401C403.72 64.5601 403.9 64.5601 404.05 64.6401C404.2 64.7201 404.29 64.8801 404.29 65.0501V72.8301C404.29 73.0001 404.2 73.1601 404.05 73.2401L373.09 91.0601C373.01 91.0901 372.93 91.1201 372.85 91.1201ZM367.06 86.7401L372.84 90.0901L403.32 72.5501V65.8801L367.06 86.7401Z" fill="#373B42"/>
<path d="M349.14 26.22L368.56 87.7L403.53 107.98L438.77 87.7L458.19 26.22C458.18 -4.33995 349.14 -4.33995 349.14 26.22Z" fill="url(#paint1_linear_71_40580)"/>
<path d="M453.9 487.35C457.36 485.36 457.38 482.13 453.94 480.14C450.51 478.15 444.92 478.15 441.46 480.14C438 482.13 437.99 485.36 441.42 487.35C444.85 489.34 450.44 489.34 453.9 487.35Z" fill="white"/>
<path d="M447.65 489.31C445.3 489.31 442.96 488.79 441.18 487.76C439.37 486.71 438.37 485.29 438.38 483.75C438.38 482.21 439.39 480.78 441.22 479.72C444.81 477.66 450.62 477.66 454.18 479.72C455.99 480.77 456.98 482.19 456.98 483.73C456.98 485.27 455.97 486.71 454.14 487.76C452.34 488.8 450 489.31 447.65 489.31ZM447.71 479.12C445.54 479.12 443.36 479.6 441.7 480.56C440.18 481.44 439.34 482.57 439.33 483.76C439.33 484.94 440.16 486.07 441.66 486.94C444.96 488.85 450.34 488.85 453.66 486.94C455.18 486.06 456.02 484.93 456.03 483.74C456.03 482.56 455.2 481.43 453.71 480.56C452.05 479.6 449.88 479.12 447.71 479.12Z" fill="#DBDEE4"/>
<path d="M447.7 481.47C446.35 481.47 445.05 481.78 444.12 482.31C443.38 482.74 442.95 483.26 442.95 483.75C442.95 484.23 443.37 484.75 444.1 485.18C445.02 485.71 446.32 486.02 447.66 486.02C449.01 486.02 450.31 485.71 451.24 485.18C451.98 484.75 452.41 484.22 452.41 483.73C452.41 483.25 451.99 482.73 451.26 482.3C450.34 481.78 449.04 481.47 447.7 481.47Z" fill="#FF1091"/>
<path d="M478.13 464.2C476.68 464.2 475.28 464.53 474.29 465.1C473.49 465.56 473.03 466.13 473.03 466.65C473.03 467.17 473.48 467.73 474.26 468.18C475.25 468.75 476.64 469.08 478.09 469.08C479.54 469.08 480.94 468.75 481.93 468.18C482.73 467.72 483.19 467.15 483.19 466.63C483.19 466.11 482.74 465.55 481.96 465.1C480.97 464.53 479.58 464.2 478.13 464.2Z" fill="#373B42"/>
<path d="M336.33 220.32C334.88 220.32 333.48 219.99 332.49 219.42C331.69 218.96 331.23 218.39 331.23 217.87C331.23 217.35 331.68 216.79 332.46 216.34C333.45 215.77 334.84 215.44 336.29 215.44C337.74 215.44 339.14 215.77 340.13 216.34C340.93 216.8 341.39 217.37 341.39 217.89C341.39 218.41 340.94 218.97 340.16 219.42C339.17 220 337.77 220.32 336.33 220.32Z" fill="#373B42"/>
<path d="M327.54 286.24C326.09 286.24 324.69 285.91 323.7 285.34C322.9 284.88 322.44 284.31 322.44 283.79C322.44 283.27 322.89 282.71 323.67 282.26C324.66 281.69 326.05 281.36 327.5 281.36C328.95 281.36 330.35 281.69 331.34 282.26C332.14 282.72 332.6 283.29 332.6 283.81C332.6 284.33 332.15 284.89 331.37 285.34C330.38 285.92 328.99 286.24 327.54 286.24Z" fill="#373B42"/>
<path d="M226.6 455.28C225.15 455.28 223.75 454.95 222.76 454.38C221.96 453.92 221.5 453.35 221.5 452.83C221.5 452.31 221.95 451.75 222.73 451.3C223.72 450.73 225.11 450.4 226.56 450.4C228.01 450.4 229.41 450.73 230.4 451.3C231.2 451.76 231.66 452.33 231.66 452.85C231.66 453.37 231.21 453.93 230.43 454.38C229.44 454.95 228.04 455.28 226.6 455.28Z" fill="#373B42"/>
<path d="M324.17 474.43C322.72 474.43 321.32 474.1 320.33 473.53C319.53 473.07 319.07 472.5 319.07 471.98C319.07 471.46 319.52 470.9 320.3 470.45C321.29 469.88 322.68 469.55 324.13 469.55C325.58 469.55 326.98 469.88 327.97 470.45C328.77 470.91 329.23 471.48 329.23 472C329.23 472.52 328.78 473.08 328 473.53C327.01 474.11 325.62 474.43 324.17 474.43Z" fill="#373B42"/>
<defs>
<linearGradient id="paint0_linear_71_40580" x1="406.936" y1="348.169" x2="406.936" y2="255.238" gradientUnits="userSpaceOnUse">
<stop offset="0.0334" stop-color="#FF1091" stop-opacity="0.9"/>
<stop offset="0.2548" stop-color="#FF1091" stop-opacity="0.6939"/>
<stop offset="0.7548" stop-color="#FF1091" stop-opacity="0.2283"/>
<stop offset="1" stop-color="white" stop-opacity="0"/>
</linearGradient>
<linearGradient id="paint1_linear_71_40580" x1="403.662" y1="91.3467" x2="403.662" y2="8.34915" gradientUnits="userSpaceOnUse">
<stop offset="0.0334" stop-color="#FF1091" stop-opacity="0.9"/>
<stop offset="0.2548" stop-color="#FF1091" stop-opacity="0.6939"/>
<stop offset="0.7548" stop-color="#FF1091" stop-opacity="0.2283"/>
<stop offset="1" stop-color="white" stop-opacity="0"/>
</linearGradient>
</defs>
</svg>
