<svg width="20" height="20" viewBox="0 0 20 20" fill="none" xmlns="http://www.w3.org/2000/svg">
<path d="M13.8077 11.5384C13.8846 10.9038 13.9423 10.2692 13.9423 9.61537C13.9423 8.96152 13.8846 8.32691 13.8077 7.69229H17.0577C17.2115 8.30768 17.3077 8.95191 17.3077 9.61537C17.3077 10.2788 17.2115 10.9231 17.0577 11.5384H13.8077ZM12.1057 16.8846C12.6827 15.8173 13.125 14.6634 13.4327 13.4615H16.2692C15.3376 15.0656 13.8597 16.2807 12.1057 16.8846ZM11.8654 11.5384H7.36537C7.26922 10.9038 7.21152 10.2692 7.21152 9.61537C7.21152 8.96152 7.26922 8.31729 7.36537 7.69229H11.8654C11.9519 8.31729 12.0192 8.96152 12.0192 9.61537C12.0192 10.2692 11.9519 10.9038 11.8654 11.5384ZM9.61537 17.2692C8.81729 16.1154 8.17306 14.8365 7.77883 13.4615H11.4519C11.0577 14.8365 10.4134 16.1154 9.61537 17.2692ZM5.76922 5.76922H2.96153C3.88351 4.16078 5.36037 2.94373 7.11537 2.34615C6.53845 3.41346 6.10576 4.5673 5.76922 5.76922ZM2.96153 13.4615H5.76922C6.10576 14.6634 6.53845 15.8173 7.11537 16.8846C5.36405 16.2804 3.88927 15.0651 2.96153 13.4615ZM2.17307 11.5384C2.01923 10.9231 1.92307 10.2788 1.92307 9.61537C1.92307 8.95191 2.01923 8.30768 2.17307 7.69229H5.42307C5.34614 8.32691 5.28845 8.96152 5.28845 9.61537C5.28845 10.2692 5.34614 10.9038 5.42307 11.5384H2.17307ZM9.61537 1.95192C10.4134 3.10576 11.0577 4.39422 11.4519 5.76922H7.77883C8.17306 4.39422 8.81729 3.10576 9.61537 1.95192ZM16.2692 5.76922H13.4327C13.1317 4.57832 12.6861 3.42874 12.1057 2.34615C13.875 2.95192 15.3461 4.17307 16.2692 5.76922ZM9.61537 0C4.29807 0 0 4.32691 0 9.61537C0 12.1655 1.01304 14.6112 2.81628 16.4145C3.70914 17.3073 4.76913 18.0156 5.93572 18.4988C7.10231 18.982 8.35266 19.2307 9.61537 19.2307C12.1655 19.2307 14.6112 18.2177 16.4145 16.4145C18.2177 14.6112 19.2307 12.1655 19.2307 9.61537C19.2307 8.35266 18.982 7.10231 18.4988 5.93572C18.0156 4.76913 17.3073 3.70914 16.4145 2.81628C15.5216 1.92341 14.4616 1.21514 13.295 0.731926C12.1284 0.248709 10.8781 0 9.61537 0Z" fill="#FF1091"/>
</svg>
