<svg width="537" height="223" viewBox="0 0 537 223" fill="none" xmlns="http://www.w3.org/2000/svg">
<path d="M526.292 140.299H5.7473C2.92017 140.299 0.628784 138.008 0.628784 135.181C0.628784 132.354 2.92017 130.063 5.7473 130.063H526.292C529.119 130.063 531.41 132.354 531.41 135.181C531.41 138.008 529.119 140.299 526.292 140.299Z" fill="#FF1091" stroke="#2C2C42" stroke-width="1.25762" stroke-miterlimit="10"/>
<path d="M5.7473 130.062C2.92017 130.062 0.628784 132.354 0.628784 135.181C0.628784 138.008 2.92017 140.299 5.7473 140.299H10.2546L17.6494 130.06H5.7473V130.062Z" fill="#2C2C42" stroke="#2C2C42" stroke-width="1.25762" stroke-miterlimit="10"/>
<path d="M59.9407 130.062H39.8715L32.4792 140.299H52.5484L59.9407 130.062Z" fill="#2C2C42" stroke="#2C2C42" stroke-width="1.25762" stroke-miterlimit="10"/>
<path d="M102.234 130.062H82.1653L74.7705 140.299H94.8396L102.234 130.062Z" fill="#2C2C42" stroke="#2C2C42" stroke-width="1.25762" stroke-miterlimit="10"/>
<path d="M144.526 130.062H124.459L117.064 140.299H137.133L144.526 130.062Z" fill="#2C2C42" stroke="#2C2C42" stroke-width="1.25762" stroke-miterlimit="10"/>
<path d="M186.82 130.062H166.75L159.358 140.299H179.425L186.82 130.062Z" fill="#2C2C42" stroke="#2C2C42" stroke-width="1.25762" stroke-miterlimit="10"/>
<path d="M229.111 130.062H209.044L201.649 140.299H221.719L229.111 130.062Z" fill="#2C2C42" stroke="#2C2C42" stroke-width="1.25762" stroke-miterlimit="10"/>
<path d="M271.405 130.062H251.336L243.943 140.299H264.01L271.405 130.062Z" fill="#2C2C42" stroke="#2C2C42" stroke-width="1.25762" stroke-miterlimit="10"/>
<path d="M313.696 130.062H293.629L286.234 140.299H306.304L313.696 130.062Z" fill="#2C2C42" stroke="#2C2C42" stroke-width="1.25762" stroke-miterlimit="10"/>
<path d="M120.293 213.918C131.153 213.918 139.957 205.114 139.957 194.254C139.957 183.394 131.153 174.59 120.293 174.59C109.433 174.59 100.629 183.394 100.629 194.254C100.629 205.114 109.433 213.918 120.293 213.918Z" fill="#FF1091" stroke="#2C2C42" stroke-width="1.25762" stroke-miterlimit="10"/>
<path d="M120.293 194.254C132.26 196.472 129.461 211.654 129.461 211.654" stroke="#2C2C42" stroke-width="1.25762" stroke-miterlimit="10"/>
<path d="M120.293 194.254C128.198 185 139.947 195.013 139.947 195.013" stroke="#2C2C42" stroke-width="1.25762" stroke-miterlimit="10"/>
<path d="M120.293 194.254C116.231 182.782 130.776 177.613 130.776 177.613" stroke="#2C2C42" stroke-width="1.25762" stroke-miterlimit="10"/>
<path d="M120.293 194.254C108.325 192.035 111.125 176.853 111.125 176.853" stroke="#2C2C42" stroke-width="1.25762" stroke-miterlimit="10"/>
<path d="M120.293 194.254C112.388 203.507 100.639 193.494 100.639 193.494" stroke="#2C2C42" stroke-width="1.25762" stroke-miterlimit="10"/>
<path d="M120.293 194.254C124.355 205.728 109.809 210.895 109.809 210.895" stroke="#2C2C42" stroke-width="1.25762" stroke-miterlimit="10"/>
<path d="M90.9612 2.58978L97.3172 27.9837L115.517 9.1697L108.324 34.3373L133.491 27.1463L114.68 45.3464L140.071 51.7026L114.68 58.056L133.491 76.2564L108.324 69.0651L115.517 94.2328L97.3172 75.4213L90.9612 100.813L84.6052 75.4213L66.4049 94.2328L73.5985 69.0651L48.431 76.2564L67.2424 58.056L41.8511 51.7026L67.2424 45.3464L48.431 27.1463L73.5985 34.3373L66.4049 9.1697L84.6052 27.9837L90.9612 2.58978Z" stroke="#2C2C42" stroke-width="1.25762" stroke-miterlimit="10"/>
<path d="M17.6495 167.69L20.2452 174.436L26.9911 177.032L20.2452 179.628L17.6495 186.374L15.0512 179.63L8.30786 177.032L15.0537 174.436L17.6495 167.69Z" fill="#2C2C42"/>
<path d="M206.038 69.1432L208.634 75.889L215.38 78.4848L208.634 81.0806L206.038 87.8265L203.44 81.083L196.697 78.4848L203.443 75.889L206.038 69.1432Z" fill="#2C2C42"/>
<path d="M526.684 158.349L529.28 165.095L536.026 167.69L529.28 170.286L526.684 177.032L524.086 170.289L517.342 167.69L524.088 165.095L526.684 158.349Z" fill="#2C2C42"/>
<path d="M413.687 27.3499L416.283 34.0959L423.028 36.6914L416.283 39.2872L413.687 46.0332L411.089 39.2897L404.345 36.6914L411.091 34.0959L413.687 27.3499Z" fill="#2C2C42"/>
<path d="M348.713 87.8265L351.309 94.5722L358.055 97.168L351.309 99.7638L348.713 106.51L346.115 99.7663L339.371 97.168L346.117 94.5722L348.713 87.8265Z" fill="#2C2C42"/>
<path d="M386.629 194.239H442.314" stroke="#2C2C42" stroke-width="1.25762" stroke-miterlimit="10"/>
<path d="M414.473 166.395V222.08" stroke="#2C2C42" stroke-width="1.25762" stroke-miterlimit="10"/>
<path d="M414.473 222.08C414.473 222.08 423.754 209.775 423.754 194.239C423.754 178.702 414.473 166.398 414.473 166.398" stroke="#2C2C42" stroke-width="1.25762" stroke-miterlimit="10"/>
<path d="M414.473 222.08C429.849 222.08 442.314 209.615 442.314 194.239C442.314 178.863 429.849 166.398 414.473 166.398C399.096 166.398 386.631 178.863 386.631 194.239C386.631 209.615 399.096 222.08 414.473 222.08Z" stroke="#2C2C42" stroke-width="1.25762" stroke-miterlimit="10"/>
<path d="M414.473 222.08C414.473 222.08 433.035 215.87 433.035 194.239C433.035 172.608 414.473 166.398 414.473 166.398" stroke="#2C2C42" stroke-width="1.25762" stroke-miterlimit="10"/>
<path d="M414.473 222.08C414.473 222.08 405.191 209.775 405.191 194.239C405.191 178.702 414.473 166.398 414.473 166.398" stroke="#2C2C42" stroke-width="1.25762" stroke-miterlimit="10"/>
<path d="M414.473 222.08C414.473 222.08 395.91 215.87 395.91 194.239C395.91 172.608 414.473 166.398 414.473 166.398" stroke="#2C2C42" stroke-width="1.25762" stroke-miterlimit="10"/>
<path d="M389.572 206.707C392.545 205.429 400.508 202.715 414.473 202.715C428.437 202.715 436.4 205.429 439.373 206.707" stroke="#2C2C42" stroke-width="1.25762" stroke-miterlimit="10"/>
<path d="M396.149 215.201C399.042 213.837 404.749 211.999 414.473 211.999C424.124 211.999 429.818 213.812 432.731 215.171" stroke="#2C2C42" stroke-width="1.25762" stroke-miterlimit="10"/>
<path d="M389.572 181.768C392.545 183.046 400.508 185.76 414.473 185.76C428.437 185.76 436.4 183.046 439.373 181.768" stroke="#2C2C42" stroke-width="1.25762" stroke-miterlimit="10"/>
<path d="M396.149 173.274C399.042 174.637 404.749 176.476 414.473 176.476C424.124 176.476 429.818 174.663 432.731 173.304" stroke="#2C2C42" stroke-width="1.25762" stroke-miterlimit="10"/>
<path d="M157.882 194.239H374.157" stroke="#2C2C42" stroke-width="1.25762" stroke-miterlimit="10"/>
<path d="M348.713 212.182C348.713 212.182 353.801 194.239 374.157 194.239C353.801 194.239 348.713 176.295 348.713 176.295" stroke="#2C2C42" stroke-width="1.25762" stroke-miterlimit="10"/>
</svg>
