<svg width="621" height="274" viewBox="0 0 621 274" fill="none" xmlns="http://www.w3.org/2000/svg">
<path d="M410.89 165.057C410.89 165.057 258.881 150.67 223.6 81.4196C219.934 73.9665 217.876 65.5792 217.876 56.7142C217.876 25.7551 242.975 0.656082 273.934 0.656082C304.894 0.656082 329.993 25.7551 329.993 56.7142C329.993 65.5818 327.935 73.9665 324.269 81.4222C288.985 150.673 136.979 165.059 136.979 165.059" stroke="#2C2C42" stroke-width="1.31216" stroke-miterlimit="10"/>
<path d="M386.295 178.286C386.295 178.286 392.68 162.858 410.89 165.057C392.68 162.858 390.173 146.177 390.173 146.177" stroke="#2C2C42" stroke-width="1.31216" stroke-miterlimit="10"/>
<path d="M21.7214 131.342V149.628H22.7213V131.342C22.5586 131.363 22.3907 131.373 22.2201 131.373C22.0495 131.373 21.8841 131.363 21.7214 131.342Z" fill="#2C2C42"/>
<path d="M22.7213 123.474V105.188H21.7214V123.474C21.8841 123.453 22.0521 123.443 22.2227 123.443C22.3933 123.443 22.5586 123.453 22.7213 123.474Z" fill="#2C2C42"/>
<path d="M26.1566 127.909H44.4429V126.91H26.1566C26.1776 127.072 26.1881 127.24 26.1881 127.411C26.1881 127.579 26.1776 127.744 26.1566 127.909Z" fill="#2C2C42"/>
<path d="M18.2863 126.91H0V127.909H18.2863C18.2653 127.747 18.2547 127.579 18.2547 127.408C18.2547 127.238 18.2653 127.072 18.2863 126.91Z" fill="#2C2C42"/>
<path d="M19.7926 124.272L6.86254 111.342L6.15662 112.048L19.0867 124.978C19.2914 124.716 19.5275 124.477 19.7926 124.272Z" fill="#2C2C42"/>
<path d="M24.6501 130.544L37.5802 143.474L38.2861 142.768L25.3561 129.838C25.1514 130.101 24.9152 130.34 24.6501 130.544Z" fill="#2C2C42"/>
<path d="M25.3561 124.981L38.2861 112.051L37.5802 111.345L24.6501 124.275C24.9152 124.477 25.1514 124.716 25.3561 124.981Z" fill="#2C2C42"/>
<path d="M19.0867 129.836L6.15662 142.766L6.86254 143.472L19.7926 130.542C19.5275 130.34 19.2914 130.101 19.0867 129.836Z" fill="#2C2C42"/>
<path d="M123.041 148.802H30.6206V206.374H123.041V148.802Z" fill="#FF1091" stroke="#2C2C42" stroke-width="1.31216" stroke-miterlimit="10"/>
<path d="M30.6206 148.802L76.8297 187.198L123.041 148.802" stroke="#2C2C42" stroke-width="1.31216" stroke-miterlimit="10"/>
<path d="M86.7679 178.942L123.041 206.374" stroke="#2C2C42" stroke-width="1.31216" stroke-miterlimit="10"/>
<path d="M30.6206 206.374L66.894 178.942" stroke="#2C2C42" stroke-width="1.31216" stroke-miterlimit="10"/>
<path d="M530.567 135.121H450.279C436.771 135.121 425.82 146.072 425.82 159.58V206.371H474.74H555.028V159.58C555.028 146.072 544.077 135.121 530.567 135.121Z" fill="#FF1091" stroke="#2C2C42" stroke-width="1.31216" stroke-miterlimit="10"/>
<path d="M450.279 135.121C436.771 135.121 425.82 146.072 425.82 159.58V206.371H474.74V159.58C474.74 146.072 463.789 135.121 450.279 135.121Z" fill="#2C2C42" stroke="#2C2C42" stroke-width="1.31216" stroke-miterlimit="10"/>
<path d="M494.566 206.374H486.507V269.245H494.566V206.374Z" fill="#2C2C42" stroke="#2C2C42" stroke-width="1.31216" stroke-miterlimit="10"/>
<path d="M510.415 206.374H494.564V269.245H510.415V206.374Z" fill="#FF1091" stroke="#2C2C42" stroke-width="1.31216" stroke-miterlimit="10"/>
<path d="M136.976 177.588C244.099 177.588 266.521 203.71 332.244 190.822" stroke="#2C2C42" stroke-width="1.31216" stroke-miterlimit="10"/>
<path d="M312.798 210.851C312.798 210.851 314.215 194.213 332.239 190.801C314.215 194.213 306.783 179.073 306.783 179.073" stroke="#2C2C42" stroke-width="1.31216" stroke-miterlimit="10"/>
<path d="M136.976 189.119C237.777 189.119 214.95 313.365 410.89 192.657" stroke="#2C2C42" stroke-width="1.31216" stroke-miterlimit="10"/>
<path d="M400.049 218.393C400.049 218.393 395.336 202.375 410.893 192.657C395.336 202.375 382.915 190.964 382.915 190.964" stroke="#2C2C42" stroke-width="1.31216" stroke-miterlimit="10"/>
<path d="M418.501 206.374L420.98 212.819L427.426 215.299L420.98 217.779L418.501 224.225L416.018 217.782L409.575 215.299L416.021 212.819L418.501 206.374Z" fill="#2C2C42"/>
<path d="M476.188 120.257L478.668 126.702L485.114 129.182L478.668 131.662L476.188 138.108L473.706 131.665L467.263 129.182L473.708 126.702L476.188 120.257Z" fill="#2C2C42"/>
<path d="M207.938 260.915H92.9534C84.0491 260.915 76.8296 253.696 76.8296 244.791V217.26" stroke="#2C2C42" stroke-width="1.31216" stroke-miterlimit="10"/>
<path d="M207.938 260.915C217.207 260.915 217.207 272.987 226.476 272.987C235.745 272.987 235.745 260.915 245.015 260.915C254.284 260.915 254.284 272.987 263.553 272.987C272.822 272.987 272.822 260.915 282.091 260.915C291.36 260.915 291.36 272.987 300.632 272.987C309.904 272.987 309.901 260.915 319.173 260.915" stroke="#2C2C42" stroke-width="1.31216" stroke-miterlimit="10"/>
<path d="M450.279 217.262V244.794C450.279 253.698 443.059 260.918 434.155 260.918H319.17" stroke="#2C2C42" stroke-width="1.31216" stroke-miterlimit="10"/>
<path d="M76.8297 220.645C78.6979 220.645 80.2124 219.131 80.2124 217.262C80.2124 215.394 78.6979 213.88 76.8297 213.88C74.9614 213.88 73.4469 215.394 73.4469 217.262C73.4469 219.131 74.9614 220.645 76.8297 220.645Z" fill="#2C2C42"/>
<path d="M450.278 220.645C452.147 220.645 453.661 219.13 453.661 217.262C453.661 215.394 452.147 213.88 450.278 213.88C448.41 213.88 446.896 215.394 446.896 217.262C446.896 219.13 448.41 220.645 450.278 220.645Z" fill="#2C2C42"/>
<path d="M566.922 75.8003V84.3021H567.387V75.8003C567.31 75.8103 567.233 75.8159 567.154 75.8159C567.075 75.8159 566.999 75.8103 566.922 75.8003Z" fill="#2C2C42"/>
<path d="M567.387 72.1424V63.6407H566.922V72.1424C566.999 72.1324 567.075 72.1269 567.154 72.1269C567.233 72.1269 567.311 72.1324 567.387 72.1424Z" fill="#2C2C42"/>
<path d="M568.984 74.2043H577.485V73.7396H568.984C568.994 73.8163 568.999 73.893 568.999 73.9719C568.999 74.0508 568.994 74.1276 568.984 74.2043Z" fill="#2C2C42"/>
<path d="M565.325 73.7385H556.823V74.2031H565.325C565.315 74.1264 565.309 74.0497 565.309 73.9708C565.31 73.893 565.316 73.8152 565.325 73.7385Z" fill="#2C2C42"/>
<path d="M566.025 72.5137L560.013 66.5016L559.684 66.8306L565.696 72.8427C565.792 72.7193 565.903 72.6093 566.025 72.5137Z" fill="#2C2C42"/>
<path d="M568.283 75.4291L574.295 81.4411L574.624 81.1121L568.612 75.1001C568.517 75.2235 568.407 75.3346 568.283 75.4291Z" fill="#2C2C42"/>
<path d="M568.612 72.8427L574.624 66.8306L574.295 66.5016L568.283 72.5137C568.407 72.6093 568.517 72.7193 568.612 72.8427Z" fill="#2C2C42"/>
<path d="M565.696 75.1012L559.684 81.1132L560.013 81.4422L566.025 75.4302C565.903 75.3346 565.792 75.2234 565.696 75.1012Z" fill="#2C2C42"/>
<path d="M502.923 117.688H575.282" stroke="#2C2C42" stroke-width="0.555741" stroke-miterlimit="10"/>
<path d="M539.102 81.5079V153.868" stroke="#2C2C42" stroke-width="0.555741" stroke-miterlimit="10"/>
<path d="M539.102 153.868C539.102 153.868 551.162 137.877 551.162 117.688C551.162 97.4987 539.102 81.5079 539.102 81.5079" stroke="#2C2C42" stroke-width="0.555741" stroke-miterlimit="10"/>
<path d="M539.102 153.868C559.084 153.868 575.282 137.669 575.282 117.688C575.282 97.7061 559.084 81.5078 539.102 81.5078C519.121 81.5078 502.923 97.7061 502.923 117.688C502.923 137.669 519.121 153.868 539.102 153.868Z" stroke="#2C2C42" stroke-width="0.555741" stroke-miterlimit="10"/>
<path d="M539.102 153.868C539.102 153.868 563.223 145.796 563.223 117.688C563.223 89.5794 539.102 81.5079 539.102 81.5079" stroke="#2C2C42" stroke-width="0.555741" stroke-miterlimit="10"/>
<path d="M539.102 153.868C539.102 153.868 527.043 137.877 527.043 117.688C527.043 97.4987 539.102 81.5079 539.102 81.5079" stroke="#2C2C42" stroke-width="0.555741" stroke-miterlimit="10"/>
<path d="M539.102 153.868C539.102 153.868 514.982 145.796 514.982 117.688C514.982 89.5794 539.102 81.5079 539.102 81.5079" stroke="#2C2C42" stroke-width="0.555741" stroke-miterlimit="10"/>
<path d="M506.745 133.892C510.61 132.233 520.956 128.706 539.101 128.706C557.247 128.706 567.595 132.233 571.459 133.892" stroke="#2C2C42" stroke-width="0.555741" stroke-miterlimit="10"/>
<path d="M515.291 144.928C519.05 143.157 526.465 140.765 539.102 140.765C551.644 140.765 559.042 143.121 562.828 144.888" stroke="#2C2C42" stroke-width="0.555741" stroke-miterlimit="10"/>
<path d="M506.745 101.483C510.61 103.143 520.956 106.67 539.101 106.67C557.247 106.67 567.595 103.143 571.459 101.483" stroke="#2C2C42" stroke-width="0.555741" stroke-miterlimit="10"/>
<path d="M515.291 90.4475C519.05 92.2181 526.465 94.61 539.102 94.61C551.644 94.61 559.042 92.2548 562.828 90.4875" stroke="#2C2C42" stroke-width="0.555741" stroke-miterlimit="10"/>
<path d="M612.484 82.7849L614.85 88.9347L621 91.3011L614.85 93.6674L612.484 99.8161L610.115 93.6697L603.968 91.3011L610.117 88.9347L612.484 82.7849Z" fill="#2C2C42"/>
<path d="M562.828 149.153L564.539 153.598L568.984 155.308L564.539 157.019L562.828 161.465L561.115 157.021L556.672 155.308L561.118 153.598L562.828 149.153Z" fill="#2C2C42"/>
</svg>
