<svg width="207" height="113" viewBox="0 0 207 113" fill="none" xmlns="http://www.w3.org/2000/svg">
<path d="M206 39.5981H146.778V76.4889H206V39.5981Z" fill="#292234" stroke="white" stroke-width="0.510429" stroke-miterlimit="10"/>
<path d="M146.778 39.5981L176.389 64.2018L206 39.5981" stroke="white" stroke-width="0.510429" stroke-miterlimit="10"/>
<path d="M182.756 58.9116L206 76.4888" stroke="white" stroke-width="0.510429" stroke-miterlimit="10"/>
<path d="M146.778 76.4888L170.022 58.9116" stroke="white" stroke-width="0.510429" stroke-miterlimit="10"/>
<path d="M151.902 84.2002H112.404V108.804H151.902V84.2002Z" fill="#292234" stroke="white" stroke-width="0.510429" stroke-miterlimit="10"/>
<path d="M112.404 84.2002L132.152 100.609L151.901 84.2002" stroke="white" stroke-width="0.510429" stroke-miterlimit="10"/>
<path d="M136.399 97.0815L151.901 108.804" stroke="white" stroke-width="0.510429" stroke-miterlimit="10"/>
<path d="M112.404 108.804L127.905 97.0815" stroke="white" stroke-width="0.510429" stroke-miterlimit="10"/>
<path d="M137.5 7.28174H98.0024V31.8854H137.5V7.28174Z" fill="#292234" stroke="white" stroke-width="0.510429" stroke-miterlimit="10"/>
<path d="M98.0024 7.28174L117.751 23.692L137.499 7.28174" stroke="white" stroke-width="0.510429" stroke-miterlimit="10"/>
<path d="M121.998 20.1626L137.499 31.8861" stroke="white" stroke-width="0.510429" stroke-miterlimit="10"/>
<path d="M98.0024 31.8861L113.504 20.1626" stroke="white" stroke-width="0.510429" stroke-miterlimit="10"/>
<path d="M196.596 26.0244L197.991 29.6515L201.617 31.047L197.991 32.4425L196.596 36.0686L195.198 32.4436L191.573 31.047L195.199 29.6515L196.596 26.0244Z" fill="white"/>
<path d="M159.708 79.0776L160.895 82.1617L163.979 83.3479L160.895 84.5352L159.708 87.6192L158.521 84.5362L155.437 83.3479L158.522 82.1617L159.708 79.0776Z" fill="white"/>
<path d="M105.788 105.457L106.718 107.874L109.135 108.804L106.718 109.734L105.788 112.151L104.857 109.735L102.44 108.804L104.858 107.874L105.788 105.457Z" fill="white"/>
<path d="M134.353 34.2607L135.309 36.7435L137.79 37.698L135.309 38.6535L134.353 41.1362L133.397 38.6545L130.915 37.698L133.398 36.7435L134.353 34.2607Z" fill="white"/>
<path d="M100.159 0L100.839 1.76711L102.607 2.44802L100.839 3.12791L100.159 4.89502L99.4776 3.12893L97.7115 2.44802L99.4786 1.76711L100.159 0Z" fill="white"/>
<path d="M91.5107 51.2349L92.1906 53.002L93.9578 53.6829L92.1906 54.3628L91.5107 56.1299L90.8298 54.3638L89.0627 53.6829L90.8298 53.002L91.5107 51.2349Z" fill="white"/>
<path d="M58.2053 75.1587L58.8852 76.9268L60.6534 77.6067L58.8852 78.2866L58.2053 80.0547L57.5244 78.2876L55.7573 77.6067L57.5254 76.9268L58.2053 75.1587Z" fill="white"/>
<path d="M35.9782 33.6216L36.6591 35.3887L38.4262 36.0686L36.6591 36.7495L35.9782 38.5166L35.2973 36.7495L33.5311 36.0686L35.2983 35.3887L35.9782 33.6216Z" fill="white"/>
<path d="M2.74924 71.4844H0" stroke="white" stroke-width="0.510429" stroke-miterlimit="10"/>
<path d="M21.4351 71.4844H11.7389" stroke="white" stroke-width="0.510429" stroke-miterlimit="10"/>
<path d="M142.267 71.4844H27.604" stroke="white" stroke-width="0.510429" stroke-miterlimit="10"/>
<path d="M21.4351 44.6021H17.9611" stroke="white" stroke-width="0.510429" stroke-miterlimit="10"/>
<path d="M53.0091 44.6021H35.9781" stroke="white" stroke-width="0.510429" stroke-miterlimit="10"/>
<path d="M142.267 44.6021H62.0479" stroke="white" stroke-width="0.510429" stroke-miterlimit="10"/>
<path d="M55.7572 94.7437H51.8239" stroke="white" stroke-width="0.510429" stroke-miterlimit="10"/>
<path d="M107.603 94.7437H63.9435" stroke="white" stroke-width="0.510429" stroke-miterlimit="10"/>
<path d="M41.8012 20.1626H38.1025" stroke="white" stroke-width="0.510429" stroke-miterlimit="10"/>
<path d="M93.2392 20.1626H50.0916" stroke="white" stroke-width="0.510429" stroke-miterlimit="10"/>
</svg>
