<svg width="327" height="383" viewBox="0 0 327 383" fill="none" xmlns="http://www.w3.org/2000/svg">
<path d="M201.349 24.5062C201.24 24.2886 201.131 24.0712 201.131 23.9625C201.021 23.8537 200.912 23.5275 200.912 23.4188C200.802 23.3101 200.694 23.0926 200.694 22.8751C200.584 22.7664 200.475 22.5489 200.475 22.3315C200.365 22.2227 200.257 22.0053 200.257 21.7878C200.147 21.679 200.038 21.4616 200.038 21.2441C200.694 22.6577 201.349 24.0712 202.004 25.5934C201.896 25.376 201.786 25.1585 201.786 25.0497C201.459 24.9411 201.349 24.7236 201.349 24.5062Z" fill="#27304F"/>
<path d="M326.577 45.2738C326.468 44.0783 326.249 42.9906 326.03 41.7943C325.703 40.7074 325.375 39.6198 324.938 38.5329L317.289 20.5918C317.398 20.7006 317.398 20.9181 317.398 21.0267C316.414 18.6347 315.103 16.5688 313.464 14.6116C311.17 12.002 308.219 9.82731 304.831 8.19638C301.444 6.67406 297.51 5.69549 293.139 5.47804L170.752 0.0414326C166.49 -0.176019 162.338 0.476331 158.294 1.67244C154.361 2.86846 150.536 4.71692 147.258 7.10905C143.98 9.50117 141.029 12.3282 138.734 15.5901C136.44 18.8521 134.801 22.3316 133.926 26.1372L65.3021 326.347C64.4277 330.37 64.4277 334.285 65.1926 337.873C65.7393 340.483 66.7223 342.983 68.1433 345.158C68.0338 344.941 67.8156 344.723 67.7061 344.397L76.9947 360.925C77.9777 362.773 79.2892 364.513 80.8189 366.035C82.3486 367.557 83.9878 368.971 85.9547 370.058C87.8129 371.254 89.8884 372.124 92.1838 372.776C94.4784 373.429 96.8824 373.864 99.396 374.081L224.952 382.453C229.323 382.78 233.693 382.236 237.846 380.932C241.999 379.735 245.933 377.778 249.32 375.278C252.817 372.776 255.767 369.732 258.171 366.361C260.575 362.99 262.214 359.076 263.089 355.053L326.249 52.4503C326.468 51.1461 326.687 49.9497 326.795 48.7534C326.687 47.5578 326.687 46.3615 326.577 45.2738ZM318.272 23.7451C318.272 23.8539 318.272 23.9625 318.382 24.0713C318.382 23.9625 318.381 23.8539 318.272 23.7451Z" fill="#27304F"/>
<path d="M316.961 24.071C316.524 22.44 315.977 20.9177 315.103 19.3955C314.338 17.9819 313.355 16.5685 312.261 15.2637C311.169 13.9589 309.967 12.8716 308.547 11.7842C307.126 10.8056 305.705 9.82707 303.957 9.06595C302.317 8.30483 300.57 7.76116 298.711 7.2175C296.854 6.78251 294.887 6.45638 292.811 6.45638L170.423 1.01968C168.456 0.911 166.381 1.01969 164.413 1.23722C162.446 1.45467 160.479 1.88957 158.512 2.54201C156.655 3.08559 154.798 3.84679 152.94 4.7166C151.192 5.58649 149.443 6.56506 147.913 7.76116C146.384 8.95718 144.853 10.1533 143.433 11.4581C142.121 12.7629 140.811 14.2851 139.717 15.8074C138.625 17.3296 137.641 18.9606 136.876 20.7003C136.111 22.4401 135.456 24.1798 135.019 26.0282L116.114 108.882L85.1898 244.037L66.3946 326.238C65.9574 328.196 65.7384 330.044 65.7384 331.892C65.7384 333.741 65.9574 335.589 66.2851 337.22C66.6127 338.96 67.2689 340.591 67.9243 342.222C68.6891 343.745 69.5635 345.266 70.656 346.571C71.7485 347.985 72.9506 349.181 74.3716 350.268C75.7918 351.356 77.2128 352.334 78.852 353.204C80.4912 354.074 82.2391 354.727 84.0973 355.162C85.9546 355.705 87.9215 356.031 90.1066 356.14L216.319 364.404C218.395 364.513 220.581 364.513 222.657 364.187C224.733 363.968 226.809 363.534 228.776 362.881C230.743 362.229 232.71 361.576 234.568 360.598C236.425 359.728 238.174 358.641 239.813 357.445C241.452 356.248 243.091 354.944 244.512 353.531C245.932 352.117 247.243 350.594 248.336 348.855C249.429 347.224 250.412 345.485 251.287 343.636C252.051 341.788 252.707 339.939 253.144 337.982L316.961 34.1828C317.398 32.3344 317.507 30.5946 317.507 28.7465C317.616 27.4417 317.398 25.702 316.961 24.071Z" fill="white"/>
<path d="M263.416 184.126L234.568 320.15L84.9708 311.342L115.568 176.623L263.416 184.126Z" fill="#FF98CB" stroke="#27304F" stroke-width="0.811083" stroke-miterlimit="10"/>
<path d="M243.638 115.624L215.117 251.866L85.4088 244.254L116.334 109.1L243.638 115.624Z" fill="#27304F"/>
<path d="M232.164 99.8579L203.643 236.208L0.502319 224.247L31.3178 89.7454L232.164 99.8579Z" fill="#FF1091" stroke="#27304F" stroke-width="0.811083" stroke-miterlimit="10"/>
<path d="M48.9109 112.906L167.911 117.146" stroke="#27304F" stroke-width="0.811083" stroke-miterlimit="10" stroke-linecap="round" stroke-linejoin="round"/>
<path d="M179.166 136.283L205.173 137.153" stroke="#27304F" stroke-width="0.811083" stroke-miterlimit="10" stroke-linecap="round" stroke-linejoin="round"/>
<path d="M42.0264 131.499L148.241 135.196" stroke="#27304F" stroke-width="0.811083" stroke-miterlimit="10" stroke-linecap="round" stroke-linejoin="round"/>
<path d="M166.271 177.601L192.279 178.471" stroke="#27304F" stroke-width="0.811083" stroke-miterlimit="10" stroke-linecap="round" stroke-linejoin="round"/>
<path d="M29.569 172.817L135.784 176.514" stroke="#27304F" stroke-width="0.811083" stroke-miterlimit="10" stroke-linecap="round" stroke-linejoin="round"/>
<path d="M92.2925 154.876L205.172 158.573" stroke="#27304F" stroke-width="0.811083" stroke-miterlimit="10" stroke-linecap="round" stroke-linejoin="round"/>
<path d="M35.1421 152.811L73.6069 154.116" stroke="#27304F" stroke-width="0.811083" stroke-miterlimit="10" stroke-linecap="round" stroke-linejoin="round"/>
<path d="M248.008 15.59C249.21 15.59 250.303 15.9162 251.287 16.3511C252.27 16.7861 253.035 17.4385 253.691 18.1996C254.346 18.9607 254.783 19.8306 255.002 20.8092C255.22 21.7878 255.22 22.7664 255.002 23.8537C254.783 24.9411 254.346 25.9196 253.691 26.8982C253.035 27.7681 252.27 28.6379 251.287 29.2905C250.303 29.9426 249.32 30.486 248.118 30.8129C247.025 31.139 245.823 31.3563 244.512 31.2476L206.812 29.5079C205.61 29.3992 204.517 29.1816 203.533 28.7467C202.55 28.3118 201.785 27.6593 201.129 26.8982C200.474 26.1371 200.037 25.2672 199.819 24.2886C199.6 23.3101 199.6 22.3315 199.819 21.2442C200.037 20.1568 200.583 19.1782 201.129 18.1996C201.785 17.3298 202.55 16.4599 203.533 15.8075C204.517 15.1551 205.501 14.6114 206.703 14.2852C207.796 13.959 208.998 13.7416 210.2 13.8503L248.008 15.59Z" fill="#27304F"/>
<path d="M222.657 293.837L221.674 298.512L226.919 298.73L226.155 302.1L220.909 301.883L219.925 306.559L215.992 306.341L216.975 301.665L211.73 301.339L212.495 297.968L217.74 298.294L218.723 293.619L222.657 293.837Z" fill="#27304F"/>
<path d="M111.307 257.628L228.777 263.391" stroke="#27304F" stroke-width="0.811083" stroke-miterlimit="10"/>
<path d="M109.886 276.222L177.964 279.81" stroke="#27304F" stroke-width="0.811083" stroke-miterlimit="10"/>
<path d="M166.04 76.0886C172.048 69.5123 172.211 59.9237 166.405 54.6735C160.599 49.4226 151.023 50.4973 145.015 57.0743C139.008 63.6514 138.845 73.2392 144.65 78.4902C150.456 83.7403 160.033 82.6656 166.04 76.0886Z" fill="#27304F"/>
<path d="M186.706 62.9976L242.435 65.1721" stroke="#27304F" stroke-width="0.811083" stroke-miterlimit="10"/>
<path d="M184.52 73.8708L213.478 75.5019" stroke="#27304F" stroke-width="0.811083" stroke-miterlimit="10"/>
</svg>
