<svg width="132" height="38" viewBox="0 0 132 38" fill="none" xmlns="http://www.w3.org/2000/svg">
<path d="M123.671 36.2657C122.727 35.3171 122.255 34.1754 122.255 32.8403C122.255 31.5053 122.727 30.3811 123.671 29.4676C124.614 28.519 125.732 28.0447 127.025 28.0447C128.353 28.0447 129.489 28.519 130.431 29.4676C131.375 30.3811 131.847 31.5053 131.847 32.8403C131.847 34.1754 131.375 35.3171 130.431 36.2657C129.489 37.1791 128.353 37.6358 127.025 37.6358C125.732 37.6358 124.614 37.1791 123.671 36.2657Z" fill="#FF1091"/>
<path d="M112.287 37.1973C112.146 36.4985 112.076 35.5726 112.076 34.4196C111.409 35.5726 110.408 36.4461 109.073 37.04C107.774 37.599 106.387 37.8786 104.912 37.8786C101.856 37.8786 99.4504 36.9178 97.6947 34.9961C95.9387 33.0395 95.0607 30.6113 95.0607 27.7113V11.4121H102.067V26.2962C102.067 27.8336 102.47 29.0913 103.279 30.0697C104.087 31.013 105.263 31.4847 106.808 31.4847C108.318 31.4847 109.512 31.0305 110.391 30.1221C111.268 29.1788 111.707 27.9384 111.707 26.401V11.4121H118.714V32.5329C118.714 34.175 118.802 35.7298 118.978 37.1973H112.287Z" fill="#FF1091"/>
<path d="M73.4946 29.6951C74.7946 30.9916 76.3582 31.6399 78.1852 31.6399C80.0122 31.6399 81.5582 30.9916 82.8231 29.6951C84.1231 28.3985 84.7731 26.5939 84.7731 24.2811C84.7731 21.9683 84.1231 20.1638 82.8231 18.8671C81.5582 17.5706 80.0122 16.9224 78.1852 16.9224C76.3582 16.9224 74.7946 17.5706 73.4946 18.8671C72.2298 20.1638 71.5973 21.9683 71.5973 24.2811C71.5973 26.5939 72.2298 28.3985 73.4946 29.6951ZM68.4351 14.4519C71.0352 11.8588 74.2851 10.5623 78.1852 10.5623C82.0852 10.5623 85.3177 11.8588 87.8826 14.4519C90.4827 17.045 91.7827 20.3214 91.7827 24.2811C91.7827 28.2408 90.4827 31.5173 87.8826 34.1104C85.3177 36.7035 82.0852 38 78.1852 38C74.2851 38 71.0352 36.7035 68.4351 34.1104C65.8702 31.5173 64.5878 28.2408 64.5878 24.2811C64.5878 20.3214 65.8702 17.045 68.4351 14.4519Z" fill="#FF1091"/>
<path d="M44.7216 29.6951C46.0216 30.9916 47.5851 31.6399 49.4122 31.6399C51.2392 31.6399 52.7851 30.9916 54.05 29.6951C55.3501 28.3985 56 26.5939 56 24.2811C56 21.9683 55.3501 20.1638 54.05 18.8671C52.7851 17.5706 51.2392 16.9224 49.4122 16.9224C47.5851 16.9224 46.0216 17.5706 44.7216 18.8671C43.4567 20.1638 42.8242 21.9683 42.8242 24.2811C42.8242 26.5939 43.4567 28.3985 44.7216 29.6951ZM39.6621 14.4519C42.2621 11.8588 45.5121 10.5623 49.4122 10.5623C53.3122 10.5623 56.5446 11.8588 59.1096 14.4519C61.7096 17.045 63.0096 20.3214 63.0096 24.2811C63.0096 28.2408 61.7096 31.5173 59.1096 34.1104C56.5446 36.7035 53.3122 38 49.4122 38C45.5121 38 42.2621 36.7035 39.6621 34.1104C37.0971 31.5173 35.8147 28.2408 35.8147 24.2811C35.8147 20.3214 37.0971 17.045 39.6621 14.4519Z" fill="#FF1091"/>
<path d="M31.8083 37.2716H24.1849L7.25545 10.8293V37.2716H0V0H9.04303L24.5529 24.655V0H31.8083V37.2716Z" fill="#FF1091"/>
</svg>
