<svg width="356" height="282" viewBox="0 0 356 282" fill="none" xmlns="http://www.w3.org/2000/svg">
<path d="M256.332 169.938C310.899 169.938 355.134 160.489 355.134 148.834C355.134 137.179 310.899 127.73 256.332 127.73C201.766 127.73 157.531 137.179 157.531 148.834C157.531 160.489 201.766 169.938 256.332 169.938Z" stroke="#111120" stroke-width="1.13071" stroke-miterlimit="10"/>
<path d="M256.332 191.041C310.899 191.041 355.134 181.593 355.134 169.938C355.134 158.282 310.899 148.834 256.332 148.834C201.766 148.834 157.531 158.282 157.531 169.938C157.531 181.593 201.766 191.041 256.332 191.041Z" stroke="#111120" stroke-width="1.13071" stroke-miterlimit="10"/>
<path d="M256.332 127.73C310.899 127.73 355.134 118.282 355.134 106.627C355.134 94.9716 310.899 85.5232 256.332 85.5232C201.766 85.5232 157.531 94.9716 157.531 106.627C157.531 118.282 201.766 127.73 256.332 127.73Z" stroke="#111120" stroke-width="1.13071" stroke-miterlimit="10"/>
<path d="M256.332 148.834C310.899 148.834 355.134 139.386 355.134 127.73C355.134 116.075 310.899 106.627 256.332 106.627C201.766 106.627 157.531 116.075 157.531 127.73C157.531 139.386 201.766 148.834 256.332 148.834Z" stroke="#111120" stroke-width="1.13071" stroke-miterlimit="10"/>
<path d="M256.332 212.145C310.899 212.145 355.134 202.696 355.134 191.041C355.134 179.386 310.899 169.938 256.332 169.938C201.766 169.938 157.531 179.386 157.531 191.041C157.531 202.696 201.766 212.145 256.332 212.145Z" stroke="#111120" stroke-width="1.13071" stroke-miterlimit="10"/>
<path d="M256.332 233.248C310.899 233.248 355.134 223.8 355.134 212.145C355.134 200.489 310.899 191.041 256.332 191.041C201.766 191.041 157.531 200.489 157.531 212.145C157.531 223.8 201.766 233.248 256.332 233.248Z" stroke="#111120" stroke-width="1.13071" stroke-miterlimit="10"/>
<path d="M256.332 254.352C310.899 254.352 355.134 244.903 355.134 233.248C355.134 221.593 310.899 212.145 256.332 212.145C201.766 212.145 157.531 221.593 157.531 233.248C157.531 244.903 201.766 254.352 256.332 254.352Z" stroke="#111120" stroke-width="1.13071" stroke-miterlimit="10"/>
<path d="M256.332 275.455C310.899 275.455 355.134 266.007 355.134 254.352C355.134 242.697 310.899 233.248 256.332 233.248C201.766 233.248 157.531 242.697 157.531 254.352C157.531 266.007 201.766 275.455 256.332 275.455Z" stroke="#111120" stroke-width="1.13071" stroke-miterlimit="10"/>
<path d="M92.6234 37.5539H275.523C279.808 37.5539 283.282 41.0275 283.282 45.3129V79.2636H84.8645V45.3129C84.8645 41.0275 88.3381 37.5539 92.6234 37.5539Z" fill="#FF1091" stroke="#111120" stroke-width="1.13071" stroke-miterlimit="10"/>
<path d="M109.937 64.9985C113.576 64.9985 116.527 62.0482 116.527 58.4087C116.527 54.7693 113.576 51.819 109.937 51.819C106.297 51.819 103.347 54.7693 103.347 58.4087C103.347 62.0482 106.297 64.9985 109.937 64.9985Z" stroke="#111120" stroke-width="1.13071" stroke-miterlimit="10"/>
<path d="M132.707 64.9985C136.346 64.9985 139.297 62.0482 139.297 58.4087C139.297 54.7693 136.346 51.819 132.707 51.819C129.068 51.819 126.117 54.7693 126.117 58.4087C126.117 62.0482 129.068 64.9985 132.707 64.9985Z" stroke="#111120" stroke-width="1.13071" stroke-miterlimit="10"/>
<path d="M155.477 64.9985C159.117 64.9985 162.067 62.0482 162.067 58.4087C162.067 54.7693 159.117 51.819 155.477 51.819C151.838 51.819 148.888 54.7693 148.888 58.4087C148.888 62.0482 151.838 64.9985 155.477 64.9985Z" stroke="#111120" stroke-width="1.13071" stroke-miterlimit="10"/>
<path d="M84.8645 79.2636H283.282V249.924C283.282 254.209 279.808 257.683 275.523 257.683H92.6234C88.3381 257.683 84.8645 254.209 84.8645 249.924V79.2636Z" fill="#FF1091" stroke="#111120" stroke-width="1.13071" stroke-miterlimit="10"/>
<path d="M154.132 207.396H164.345C198.696 145.657 248.365 141.014 248.365 141.014V97.3798C186.626 129.874 159.229 196.254 159.229 196.254C159.229 196.254 150.419 168.402 119.781 155.869V186.507C119.781 186.507 140.206 186.971 154.132 207.396Z" fill="#111120"/>
<path d="M38.4987 51.819H36.8049V127.122H38.4987V51.819Z" fill="#111120"/>
<path d="M75.303 90.3181V88.6243L-5.34058e-05 88.6243V90.3181L75.303 90.3181Z" fill="#111120"/>
<path d="M11.6281 62.2519L10.4304 63.4496L63.6772 116.696L64.8749 115.499L11.6281 62.2519Z" fill="#111120"/>
<path d="M64.8701 63.4475L63.6724 62.2499L10.4256 115.497L11.6233 116.694L64.8701 63.4475Z" fill="#111120"/>
<path d="M37.6506 96.1926C41.3625 96.1926 44.3716 93.1835 44.3716 89.4716C44.3716 85.7598 41.3625 82.7507 37.6506 82.7507C33.9387 82.7507 30.9297 85.7598 30.9297 89.4716C30.9297 93.1835 33.9387 96.1926 37.6506 96.1926Z" fill="#111120"/>
<path d="M64.1772 45.3129C64.1772 29.6277 76.9384 16.8665 92.6236 16.8665H229.693" stroke="#111120" stroke-width="1.13071" stroke-miterlimit="10"/>
<path d="M206.002 33.5739C206.002 33.5739 210.74 16.8642 229.693 16.8642C210.74 16.8642 206.002 0.154602 206.002 0.154602" stroke="#111120" stroke-width="1.13071" stroke-miterlimit="10"/>
<path d="M162.171 278.368H92.6234C76.9382 278.368 64.177 265.607 64.177 249.922V136.448" stroke="#111120" stroke-width="1.13071" stroke-miterlimit="10"/>
<path d="M64.1772 139.363C65.7871 139.363 67.0921 138.058 67.0921 136.448C67.0921 134.838 65.7871 133.533 64.1772 133.533C62.5673 133.533 61.2622 134.838 61.2622 136.448C61.2622 138.058 62.5673 139.363 64.1772 139.363Z" fill="#111120"/>
<path d="M162.171 281.283C163.781 281.283 165.086 279.978 165.086 278.368C165.086 276.758 163.781 275.453 162.171 275.453C160.561 275.453 159.256 276.758 159.256 278.368C159.256 279.978 160.561 281.283 162.171 281.283Z" fill="#111120"/>
</svg>
