<svg width="530" height="373" viewBox="0 0 530 373" fill="none" xmlns="http://www.w3.org/2000/svg">
<path d="M144.593 62.161C224.07 62.161 288.499 48.3996 288.499 31.424C288.499 14.4484 224.07 0.687012 144.593 0.687012C65.1157 0.687012 0.686523 14.4484 0.686523 31.424C0.686523 48.3996 65.1157 62.161 144.593 62.161Z" stroke="#1B1A2D" stroke-width="1.37378" stroke-miterlimit="10"/>
<path d="M144.593 92.8978C224.07 92.8978 288.499 79.1364 288.499 62.1608C288.499 45.1853 224.07 31.4238 144.593 31.4238C65.1157 31.4238 0.686523 45.1853 0.686523 62.1608C0.686523 79.1364 65.1157 92.8978 144.593 92.8978Z" stroke="#1B1A2D" stroke-width="1.37378" stroke-miterlimit="10"/>
<path d="M144.593 123.635C224.07 123.635 288.499 109.874 288.499 92.8981C288.499 75.9226 224.07 62.1611 144.593 62.1611C65.1157 62.1611 0.686523 75.9226 0.686523 92.8981C0.686523 109.874 65.1157 123.635 144.593 123.635Z" stroke="#1B1A2D" stroke-width="1.37378" stroke-miterlimit="10"/>
<path d="M144.593 154.372C224.07 154.372 288.499 140.611 288.499 123.635C288.499 106.659 224.07 92.8979 144.593 92.8979C65.1157 92.8979 0.686523 106.659 0.686523 123.635C0.686523 140.611 65.1157 154.372 144.593 154.372Z" stroke="#1B1A2D" stroke-width="1.37378" stroke-miterlimit="10"/>
<path d="M144.593 185.109C224.07 185.109 288.499 171.347 288.499 154.372C288.499 137.396 224.07 123.635 144.593 123.635C65.1157 123.635 0.686523 137.396 0.686523 154.372C0.686523 171.347 65.1157 185.109 144.593 185.109Z" stroke="#1B1A2D" stroke-width="1.37378" stroke-miterlimit="10"/>
<path d="M144.593 215.849C224.07 215.849 288.499 202.087 288.499 185.112C288.499 168.136 224.07 154.375 144.593 154.375C65.1157 154.375 0.686523 168.136 0.686523 185.112C0.686523 202.087 65.1157 215.849 144.593 215.849Z" stroke="#1B1A2D" stroke-width="1.37378" stroke-miterlimit="10"/>
<path d="M144.593 246.586C224.07 246.586 288.499 232.824 288.499 215.849C288.499 198.873 224.07 185.112 144.593 185.112C65.1157 185.112 0.686523 198.873 0.686523 215.849C0.686523 232.824 65.1157 246.586 144.593 246.586Z" stroke="#1B1A2D" stroke-width="1.37378" stroke-miterlimit="10"/>
<path d="M144.593 277.323C224.07 277.323 288.499 263.561 288.499 246.586C288.499 229.61 224.07 215.849 144.593 215.849C65.1157 215.849 0.686523 229.61 0.686523 246.586C0.686523 263.561 65.1157 277.323 144.593 277.323Z" stroke="#1B1A2D" stroke-width="1.37378" stroke-miterlimit="10"/>
<path d="M385.175 289.027H529.106" stroke="#1B1A2D" stroke-width="1.37378" stroke-miterlimit="10"/>
<path d="M457.142 217.063V360.991" stroke="#1B1A2D" stroke-width="1.37378" stroke-miterlimit="10"/>
<path d="M457.142 360.991C457.142 360.991 481.131 329.186 481.131 289.027C481.131 248.869 457.142 217.063 457.142 217.063" stroke="#1B1A2D" stroke-width="1.37378" stroke-miterlimit="10"/>
<path d="M457.142 360.991C496.887 360.991 529.106 328.772 529.106 289.027C529.106 249.282 496.887 217.063 457.142 217.063C417.397 217.063 385.178 249.282 385.178 289.027C385.178 328.772 417.397 360.991 457.142 360.991Z" stroke="#1B1A2D" stroke-width="1.37378" stroke-miterlimit="10"/>
<path d="M457.142 360.991C457.142 360.991 505.117 344.937 505.117 289.027C505.117 233.117 457.142 217.063 457.142 217.063" stroke="#1B1A2D" stroke-width="1.37378" stroke-miterlimit="10"/>
<path d="M457.141 360.991C457.141 360.991 433.152 329.186 433.152 289.027C433.152 248.869 457.141 217.063 457.141 217.063" stroke="#1B1A2D" stroke-width="1.37378" stroke-miterlimit="10"/>
<path d="M457.142 360.991C457.142 360.991 409.167 344.937 409.167 289.027C409.167 233.117 457.142 217.063 457.142 217.063" stroke="#1B1A2D" stroke-width="1.37378" stroke-miterlimit="10"/>
<path d="M392.78 321.259C400.468 317.959 421.047 310.944 457.142 310.944C493.237 310.944 513.819 317.959 521.504 321.259" stroke="#1B1A2D" stroke-width="1.37378" stroke-miterlimit="10"/>
<path d="M409.779 343.212C417.255 339.69 432.004 334.934 457.142 334.934C482.087 334.934 496.803 339.618 504.334 343.132" stroke="#1B1A2D" stroke-width="1.37378" stroke-miterlimit="10"/>
<path d="M392.78 256.795C400.468 260.095 421.047 267.11 457.142 267.11C493.237 267.11 513.819 260.095 521.504 256.795" stroke="#1B1A2D" stroke-width="1.37378" stroke-miterlimit="10"/>
<path d="M409.779 234.845C417.255 238.368 432.004 243.124 457.142 243.124C482.087 243.124 496.803 238.439 504.334 234.925" stroke="#1B1A2D" stroke-width="1.37378" stroke-miterlimit="10"/>
<path d="M80.0225 90.9937H449.773V295.63C449.773 300.182 446.083 303.872 441.531 303.872H88.2652C83.7124 303.872 80.0225 300.182 80.0225 295.63V90.9937Z" fill="#FF1091" stroke="#1B1A2D" stroke-width="1.37378" stroke-miterlimit="10"/>
<path d="M88.2652 46.6782H441.531C446.083 46.6782 449.773 50.3682 449.773 54.9209V90.991H80.0225V54.9209C80.0225 50.3682 83.7124 46.6782 88.2652 46.6782Z" fill="#FF1091" stroke="#1B1A2D" stroke-width="1.37378" stroke-miterlimit="10"/>
<path d="M106.66 75.8356C110.526 75.8356 113.661 72.7012 113.661 68.8348C113.661 64.9683 110.526 61.834 106.66 61.834C102.794 61.834 99.6592 64.9683 99.6592 68.8348C99.6592 72.7012 102.794 75.8356 106.66 75.8356Z" stroke="#1B1A2D" stroke-width="1.37378" stroke-miterlimit="10"/>
<path d="M130.852 75.8356C134.719 75.8356 137.853 72.7012 137.853 68.8348C137.853 64.9683 134.719 61.834 130.852 61.834C126.986 61.834 123.852 64.9683 123.852 68.8348C123.852 72.7012 126.986 75.8356 130.852 75.8356Z" stroke="#1B1A2D" stroke-width="1.37378" stroke-miterlimit="10"/>
<path d="M155.045 75.8356C158.911 75.8356 162.046 72.7012 162.046 68.8348C162.046 64.9683 158.911 61.834 155.045 61.834C151.178 61.834 148.044 64.9683 148.044 68.8348C148.044 72.7012 151.178 75.8356 155.045 75.8356Z" stroke="#1B1A2D" stroke-width="1.37378" stroke-miterlimit="10"/>
<path d="M169.714 115.763L177.874 148.363L201.24 124.209L192.005 156.523L224.319 147.289L200.165 170.657L232.765 178.817L200.165 186.975L224.319 210.343L192.005 201.108L201.24 233.422L177.874 209.268L169.714 241.868L161.554 209.268L138.186 233.422L147.42 201.108L115.109 210.343L139.26 186.975L106.66 178.817L139.26 170.657L115.109 147.289L147.42 156.523L138.186 124.209L161.554 148.363L169.714 115.763Z" stroke="#1B1A2D" stroke-width="1.37378" stroke-miterlimit="10"/>
<path d="M275.473 207.153L222.593 192.986L169.714 178.817L183.883 231.697L198.052 284.576L223.987 249.325L250.08 275.421L266.318 259.183L240.225 233.09L275.473 207.153Z" fill="#1B1A2D"/>
<path d="M179.388 192.546H160.037C157.798 192.546 155.981 190.73 155.981 188.491V169.14C155.981 166.901 157.798 165.084 160.037 165.084H179.388C181.627 165.084 183.443 166.901 183.443 169.14V188.491C183.446 190.73 181.63 192.546 179.388 192.546Z" fill="#1B1A2D"/>
<path d="M274.573 192.546H255.221C252.982 192.546 251.166 190.73 251.166 188.491V169.14C251.166 166.901 252.982 165.084 255.221 165.084H274.573C276.812 165.084 278.628 166.901 278.628 169.14V188.491C278.628 190.73 276.812 192.546 274.573 192.546Z" stroke="#1B1A2D" stroke-width="1.37378" stroke-miterlimit="10"/>
<path d="M369.756 192.546H350.405C348.166 192.546 346.35 190.73 346.35 188.491V169.14C346.35 166.901 348.166 165.084 350.405 165.084H369.756C371.995 165.084 373.812 166.901 373.812 169.14V188.491C373.812 190.73 371.995 192.546 369.756 192.546Z" stroke="#1B1A2D" stroke-width="1.37378" stroke-miterlimit="10"/>
<mask id="mask0_18465_1261" style="mask-type:luminance" maskUnits="userSpaceOnUse" x="169" y="178" width="107" height="107">
<path d="M275.473 207.153L222.593 192.986L169.714 178.817L183.883 231.697L198.052 284.576L223.987 249.325L250.08 275.421L266.318 259.183L240.225 233.09L275.473 207.153Z" fill="white"/>
</mask>
<g mask="url(#mask0_18465_1261)">
<path d="M179.388 192.546H160.037C157.798 192.546 155.981 190.73 155.981 188.491V169.14C155.981 166.901 157.798 165.084 160.037 165.084H179.388C181.627 165.084 183.443 166.901 183.443 169.14V188.491C183.446 190.73 181.63 192.546 179.388 192.546Z" fill="#FF1091"/>
</g>
<mask id="mask1_18465_1261" style="mask-type:luminance" maskUnits="userSpaceOnUse" x="169" y="178" width="107" height="107">
<path d="M275.473 207.153L222.593 192.986L169.714 178.817L183.883 231.697L198.052 284.576L223.987 249.325L250.08 275.421L266.318 259.183L240.225 233.09L275.473 207.153Z" fill="white"/>
</mask>
<g mask="url(#mask1_18465_1261)">
<path d="M169.714 115.763L177.874 148.363L201.24 124.209L192.005 156.523L224.319 147.289L200.165 170.657L232.765 178.817L200.165 186.975L224.319 210.343L192.005 201.108L201.24 233.422L177.874 209.268L169.714 241.868L161.554 209.268L138.186 233.422L147.42 201.108L115.109 210.343L139.26 186.975L106.66 178.817L139.26 170.657L115.109 147.289L147.42 156.523L138.186 124.209L161.554 148.363L169.714 115.763Z" stroke="#FF1091" stroke-width="1.37378" stroke-miterlimit="10"/>
</g>
<path d="M352.29 343.718H92.3593C70.442 343.718 51.6349 330.137 43.917 310.945" stroke="#1B1A2D" stroke-width="1.37378" stroke-miterlimit="10"/>
<path d="M311.98 372.147C311.98 372.147 320.042 343.718 352.29 343.718C320.042 343.718 311.98 315.289 311.98 315.289" stroke="#1B1A2D" stroke-width="1.37378" stroke-miterlimit="10"/>
<path d="M322.353 6.83057H437.434C466.21 6.83057 489.619 30.2398 489.619 59.0151V175.273" stroke="#1B1A2D" stroke-width="1.37378" stroke-miterlimit="10"/>
<path d="M489.619 178.817C491.575 178.817 493.16 177.231 493.16 175.276C493.16 173.32 491.575 171.734 489.619 171.734C487.663 171.734 486.077 173.32 486.077 175.276C486.077 177.231 487.663 178.817 489.619 178.817Z" fill="#1B1A2D"/>
<path d="M322.352 10.3723C324.308 10.3723 325.894 8.78662 325.894 6.83064C325.894 4.87467 324.308 3.28906 322.352 3.28906C320.396 3.28906 318.811 4.87467 318.811 6.83064C318.811 8.78662 320.396 10.3723 322.352 10.3723Z" fill="#1B1A2D"/>
</svg>
